<svg width="121" height="67" viewBox="0 0 121 67" fill="none" xmlns="http://www.w3.org/2000/svg">
<path d="M119.94 36.2203L106.387 22.5417C105.947 22.0981 105.215 22.0981 104.775 22.5417C104.335 22.9853 104.335 23.7247 104.775 24.1683L118.328 37.8469C118.548 38.0687 118.841 38.1796 119.134 38.1796C119.427 38.1796 119.72 38.0687 119.94 37.8469C120.398 37.4033 120.398 36.6639 119.94 36.2203Z" fill="#F3AE4B"/>
<path d="M102.025 20.0469C101.86 20.2872 101.787 20.583 101.824 20.8602C101.824 20.8602 101.824 20.8602 101.824 20.8787C101.824 20.8972 101.824 20.9157 101.842 20.9342C101.897 21.2484 102.08 21.5257 102.355 21.7105C102.538 21.8214 102.758 21.8769 102.959 21.8769C103.289 21.8769 103.619 21.729 103.839 21.4517C103.875 21.4148 103.893 21.3963 103.93 21.3408C103.948 21.3039 103.967 21.2854 103.985 21.2484C104.003 21.2114 104.022 21.1745 104.04 21.119V21.1005C104.296 20.4166 105.121 20.0284 106.073 19.5663C106.256 19.4739 106.439 19.4 106.622 19.3075C107.154 19.0488 107.392 18.4203 107.19 17.8842C107.19 17.8657 107.19 17.8288 107.19 17.8103C106.879 16.1652 105.029 15.13 103.802 14.4461L103.71 14.3906C103.198 13.6143 102.575 12.8379 101.769 11.9877C100.633 10.7862 99.2231 9.51072 97.1901 7.88408C96.6956 7.4959 95.9813 7.56984 95.5967 8.06893C95.212 8.56801 95.2853 9.28891 95.7798 9.67708C97.7212 11.2483 99.0582 12.4498 100.139 13.5773C100.908 14.4091 101.512 15.1485 101.97 15.8694C101.97 15.8879 101.989 15.8879 101.989 15.8879C102.025 15.9433 102.08 15.9988 102.135 16.0543C102.154 16.0727 102.154 16.0727 102.172 16.0912C102.227 16.1467 102.3 16.2021 102.373 16.2391L102.392 16.2576C102.483 16.313 102.593 16.3685 102.721 16.4424C103.161 16.6827 104.132 17.2373 104.644 17.7364C103.637 18.1985 102.575 18.8454 102.025 20.0469Z" fill="#F3AE4B"/>
<path d="M110.781 32.2838C110.342 31.8402 109.609 31.8402 109.17 32.2838L109.005 32.4501C108.858 32.598 108.693 32.7274 108.547 32.8753C108.327 33.0601 108.089 33.2265 107.851 33.3744L104.463 29.9547C104.023 29.5111 103.29 29.5111 102.851 29.9547C102.411 30.3984 102.411 31.1377 102.851 31.5814L105.488 34.2432C105.195 34.2801 104.902 34.3171 104.591 34.3171C102.924 34.3171 101.349 33.6516 100.159 32.4686C97.7226 30.0102 97.7226 25.999 100.159 23.5221C100.598 23.0785 100.598 22.3391 100.159 21.8955C99.7189 21.4518 98.9863 21.4518 98.5468 21.8955C95.2134 25.2596 95.2134 30.7311 98.5468 34.0768C99.1512 34.6868 99.8471 35.2044 100.58 35.5925C98.0156 35.4077 95.6163 34.2986 93.7665 32.4501C89.5722 28.2172 89.5722 21.3039 93.7665 17.071C94.6456 16.1837 95.6346 15.4813 96.7335 14.9453C96.7518 14.9268 96.7702 14.9268 96.7885 14.9083C96.8251 14.8898 96.8617 14.8713 96.8984 14.8528C96.935 14.8343 96.9533 14.7974 96.99 14.7789C97.0083 14.7604 97.0266 14.7419 97.0449 14.7419L97.0632 14.7234C97.0998 14.6865 97.1182 14.6495 97.1365 14.631C97.1548 14.6125 97.1731 14.5756 97.1914 14.5571C97.2097 14.5201 97.2281 14.4831 97.2464 14.4647C97.2647 14.4277 97.283 14.3907 97.3013 14.3722C97.3196 14.3353 97.3196 14.2983 97.3379 14.2798C97.3563 14.2428 97.3563 14.2059 97.3563 14.1689C97.3563 14.1319 97.3563 14.095 97.3746 14.058C97.3746 14.021 97.3746 13.9841 97.3746 13.9471C97.3746 13.9101 97.3746 13.8731 97.3563 13.8362C97.3563 13.7992 97.3563 13.7622 97.3379 13.7253C97.3379 13.6883 97.3196 13.6698 97.3013 13.6328C97.283 13.5959 97.283 13.5589 97.2647 13.5035C97.2647 13.485 97.2647 13.485 97.2464 13.4665C97.2281 13.448 97.2281 13.4295 97.2097 13.411C97.1914 13.3741 97.1731 13.3371 97.1548 13.3001C97.1365 13.2632 97.0998 13.2447 97.0815 13.2077C97.0632 13.1892 97.0449 13.1707 97.0449 13.1522L96.0742 12.1726C95.6346 11.7289 94.902 11.7289 94.4624 12.1726C94.0412 12.5977 94.0229 13.2447 94.3892 13.7068C93.5833 14.2244 92.8324 14.8159 92.1547 15.4998C87.063 20.6385 87.063 28.9935 92.1547 34.1322C94.0045 35.9992 96.3306 37.2377 98.8398 37.7367L96.9533 39.6407C96.5137 40.0843 96.5137 40.8237 96.9533 41.2673C97.1731 41.4891 97.4662 41.6 97.7592 41.6C98.0522 41.6 98.3453 41.4891 98.5651 41.2673L101.844 37.9586C102.503 37.9401 103.162 37.8661 103.803 37.7552L101.477 40.1028C101.038 40.5464 101.038 41.2858 101.477 41.7294C101.697 41.9512 101.99 42.0621 102.283 42.0621C102.576 42.0621 102.869 41.9512 103.089 41.7294L109.976 34.7792L113.584 38.4207C113.803 38.6425 114.097 38.7534 114.39 38.7534C114.683 38.7534 114.976 38.6425 115.195 38.4207C115.635 37.977 115.635 37.2377 115.195 36.794L110.781 32.2838Z" fill="#F3AE4B"/>
<path d="M98.8398 17.6068C98.8398 18.2353 99.3893 18.7898 100.012 18.7898C100.635 18.7898 101.184 18.2353 101.184 17.6068C101.184 16.9784 100.635 16.4238 100.012 16.4238C99.371 16.4238 98.8398 16.9784 98.8398 17.6068Z" fill="#F3AE4B"/>
<path d="M93.5458 11.5435C94.1685 11.5435 94.6813 11.0259 94.6813 10.3974C94.6813 9.76894 94.1685 9.25137 93.5458 9.25137C92.2088 9.25137 91.1281 8.16078 91.1281 6.8114C91.1281 5.46203 92.2088 4.37144 93.5458 4.37144C93.9121 4.37144 94.2601 4.46386 94.5714 4.61174C94.5531 4.7781 94.5348 4.92597 94.5348 5.09234C94.5348 5.499 94.5897 5.88717 94.6813 6.25687C94.8278 6.77443 95.2857 7.10716 95.7802 7.10716C95.8718 7.10716 95.9817 7.08867 96.0733 7.07019C96.6777 6.90383 97.044 6.27535 96.8792 5.66536C96.8242 5.499 96.8059 5.31415 96.8059 5.11082C96.8059 4.87052 96.8425 4.63022 96.9158 4.40841C97.2271 3.37327 98.1612 2.67085 99.2418 2.67085C100.084 2.67085 100.835 3.096 101.275 3.77993C100.945 3.98326 100.725 4.33447 100.725 4.75961V4.99991C100.725 5.0184 100.725 5.0184 100.725 5.03688C100.725 5.07385 100.725 5.1293 100.744 5.16627C100.744 5.20324 100.744 5.24021 100.762 5.2587C100.762 5.29567 100.78 5.33264 100.799 5.36961C100.817 5.40657 100.817 5.44354 100.835 5.48051C100.854 5.51748 100.872 5.55445 100.89 5.57293C100.909 5.6099 100.927 5.62839 100.945 5.66536C100.963 5.70233 101 5.72081 101.018 5.75778C101.037 5.77626 101.073 5.81324 101.092 5.83172C101.11 5.8502 101.147 5.88717 101.183 5.90566C101.22 5.92414 101.238 5.96111 101.275 5.9796C101.293 5.9796 101.293 5.99808 101.293 5.99808C101.311 6.01656 101.33 6.01656 101.366 6.03505C101.403 6.05353 101.44 6.07202 101.476 6.0905C101.513 6.10899 101.55 6.10899 101.586 6.12747C101.623 6.14596 101.659 6.14596 101.696 6.14596C101.733 6.14596 101.788 6.16444 101.824 6.16444C101.843 6.16444 101.861 6.16444 101.898 6.16444C101.916 6.16444 101.916 6.16444 101.934 6.16444C101.971 6.16444 102.026 6.16444 102.062 6.14596C102.099 6.14596 102.136 6.14596 102.172 6.12747C102.209 6.12747 102.246 6.10899 102.282 6.0905C102.319 6.07202 102.355 6.07202 102.392 6.05353C102.429 6.03505 102.447 6.01656 102.484 5.99808C102.52 5.9796 102.557 5.96111 102.575 5.94263C102.612 5.92414 102.63 5.90566 102.648 5.86869C102.685 5.8502 102.703 5.81324 102.74 5.79475C102.758 5.77627 102.777 5.7393 102.813 5.72081C102.832 5.68384 102.868 5.64687 102.887 5.62839C102.887 5.6099 102.905 5.60991 102.905 5.60991C103.051 5.36961 103.216 5.16627 103.436 4.98143C103.876 4.61174 104.425 4.40841 104.993 4.40841C106.33 4.40841 107.41 5.499 107.41 6.84837C107.41 8.19775 106.33 9.28834 104.993 9.28834C104.132 9.28834 103.344 8.84471 102.905 8.08684C102.575 7.55079 101.879 7.36594 101.348 7.68018C100.799 8.0129 100.634 8.71532 100.945 9.25137C101.623 10.3789 102.74 11.1738 103.986 11.451V12.9483C103.986 13.5768 104.498 14.0943 105.121 14.0943C105.744 14.0943 106.257 13.5768 106.257 12.9483V11.3771C108.235 10.8226 109.682 8.99259 109.682 6.8114C109.682 4.18659 107.575 2.06086 104.975 2.06086C104.352 2.06086 103.747 2.19025 103.18 2.43055C102.319 1.15512 100.872 0.341797 99.2968 0.341797C97.7217 0.341797 96.2564 1.15512 95.4139 2.43055C94.8462 2.19025 94.2234 2.06086 93.619 2.06086C91.0182 2.06086 88.912 4.18659 88.912 6.8114C88.8387 9.41773 90.9633 11.5435 93.5458 11.5435Z" fill="#F3AE4B"/>
<path d="M32.995 63.7809C32.9034 63.7809 32.8484 63.744 32.7752 63.6885C32.7202 63.6331 32.6836 63.5591 32.6836 63.4852V58.6792C32.6836 58.5868 32.7202 58.5128 32.7752 58.4574C32.8301 58.4019 32.9034 58.3834 32.995 58.3834C33.0865 58.3834 33.1598 58.4019 33.2147 58.4574C33.2697 58.5128 33.288 58.5868 33.288 58.6792V63.4852C33.288 63.5776 33.2697 63.6331 33.2147 63.6885C33.1598 63.7625 33.0865 63.7809 32.995 63.7809ZM37.3357 63.7809C37.2441 63.7809 37.1892 63.744 37.1159 63.6885C37.061 63.6331 37.0243 63.5591 37.0243 63.4852V60.8234C37.0243 60.3798 36.9328 60.0286 36.7679 59.7513C36.6031 59.474 36.3833 59.2522 36.0902 59.1043C35.7972 58.9565 35.4858 58.901 35.1195 58.901C34.7715 58.901 34.4419 58.9749 34.1671 59.1043C33.8924 59.2337 33.6726 59.4186 33.5078 59.6589C33.3429 59.8992 33.2697 60.158 33.2697 60.4537H32.7752C32.7935 60.047 32.9217 59.6774 33.1415 59.3446C33.3613 59.0119 33.636 58.7531 33.984 58.5683C34.332 58.3834 34.7166 58.291 35.1378 58.291C35.614 58.291 36.0353 58.3834 36.4016 58.5868C36.7679 58.7901 37.0793 59.0674 37.2807 59.4371C37.5005 59.8067 37.6104 60.2689 37.6104 60.8234V63.4852C37.6104 63.5776 37.5738 63.6331 37.5188 63.6885C37.4822 63.7625 37.4089 63.7809 37.3357 63.7809Z" fill="#506E83"/>
<path d="M41.6584 63.8365C41.1456 63.8365 40.6877 63.7256 40.2848 63.4853C39.8818 63.245 39.5705 62.9308 39.3324 62.5056C39.1126 62.099 38.9844 61.6184 38.9844 61.0823C38.9844 60.5463 39.0943 60.0657 39.3141 59.659C39.5338 59.2524 39.8269 58.9196 40.2115 58.6793C40.5961 58.439 41.0174 58.3281 41.5119 58.3281C41.9881 58.3281 42.4277 58.439 42.794 58.6608C43.1603 58.8827 43.4533 59.1969 43.6731 59.6036C43.8746 60.0102 43.9845 60.4538 43.9845 60.9899C43.9845 61.0823 43.9662 61.1378 43.9112 61.1932C43.8563 61.2487 43.783 61.2672 43.7097 61.2672H39.4056V60.7496H43.8746L43.435 61.0823C43.4533 60.6572 43.3801 60.269 43.2152 59.9548C43.0504 59.622 42.8306 59.3633 42.5376 59.1784C42.2445 58.9936 41.9148 58.9011 41.5119 58.9011C41.1456 58.9011 40.8159 58.9936 40.5229 59.1784C40.2298 59.3633 40.01 59.622 39.8452 59.9548C39.6804 60.2875 39.5888 60.6572 39.5888 61.1008C39.5888 61.5259 39.6804 61.9141 39.8452 62.2284C40.0284 62.5611 40.2665 62.8199 40.5778 63.0047C40.8892 63.1896 41.2555 63.282 41.6584 63.282C41.9148 63.282 42.1713 63.245 42.4277 63.1526C42.6841 63.0602 42.8856 62.9493 43.0321 62.8014C43.087 62.7459 43.142 62.7274 43.2152 62.709C43.2885 62.709 43.3618 62.7274 43.3984 62.7644C43.4716 62.8199 43.5083 62.8938 43.5083 62.9677C43.5083 63.0417 43.4716 63.0971 43.4167 63.1711C43.2152 63.3559 42.9405 63.5223 42.5925 63.6517C42.2811 63.7811 41.9698 63.8365 41.6584 63.8365Z" fill="#506E83"/>
<path d="M45.5418 63.7812C45.4502 63.7812 45.3953 63.7442 45.322 63.6888C45.2671 63.6333 45.2305 63.5594 45.2305 63.467V58.661C45.2305 58.5686 45.2671 58.4946 45.322 58.4392C45.377 58.3837 45.4502 58.3652 45.5418 58.3652C45.6334 58.3652 45.7067 58.3837 45.7616 58.4392C45.8166 58.4946 45.8349 58.5686 45.8349 58.661V60.8422H46.9887V61.3782H45.8349V63.4855C45.8349 63.5779 45.8166 63.6333 45.7616 63.7073C45.7067 63.7627 45.6334 63.7812 45.5418 63.7812ZM49.2965 63.7073C49.2415 63.7627 49.1866 63.7812 49.095 63.7997C49.0217 63.7997 48.9485 63.7627 48.8935 63.7073L46.5858 61.1009L48.8203 58.4761C48.8752 58.4207 48.9302 58.4022 48.9851 58.3837C49.0401 58.3837 49.1133 58.4022 49.1683 58.4577C49.2415 58.5131 49.2598 58.5686 49.2598 58.6425C49.2598 58.7164 49.2415 58.7904 49.1866 58.8458L47.3001 61.064L49.2781 63.3006C49.3331 63.3561 49.3514 63.43 49.3514 63.5039C49.388 63.5779 49.3514 63.6518 49.2965 63.7073Z" fill="#506E83"/>
<path d="M52.5559 63.855C52.0247 63.855 51.5669 63.7256 51.1456 63.4853C50.7244 63.245 50.413 62.9123 50.1749 62.5056C49.9368 62.0805 49.8086 61.6184 49.8086 61.1008C49.8086 60.5648 49.9368 60.1027 50.1749 59.6775C50.413 59.2524 50.7427 58.9381 51.1456 58.6978C51.5669 58.4575 52.0247 58.3281 52.5559 58.3281C53.087 58.3281 53.5449 58.439 53.9479 58.6978C54.3508 58.9381 54.6805 59.2708 54.9186 59.6775C55.1567 60.1027 55.2849 60.5648 55.2849 61.1008L55.0468 61.489C55.0468 61.9326 54.9369 62.3393 54.7171 62.6905C54.4973 63.0417 54.2043 63.3375 53.838 63.5408C53.4717 63.7441 53.0321 63.855 52.5559 63.855ZM52.5559 63.3005C52.9588 63.3005 53.3434 63.2081 53.6548 63.0047C53.9845 62.8014 54.2409 62.5426 54.424 62.2099C54.6072 61.8772 54.6988 61.5075 54.6988 61.0823C54.6988 60.6572 54.6072 60.2875 54.424 59.9548C54.2409 59.6221 53.9845 59.3633 53.6548 59.1599C53.3251 58.9566 52.9588 58.8642 52.5559 58.8642C52.153 58.8642 51.7866 58.9566 51.457 59.1599C51.1273 59.3633 50.8709 59.6221 50.6877 59.9548C50.5046 60.2875 50.3947 60.6572 50.3947 61.0823C50.3947 61.489 50.4863 61.8772 50.6877 62.2099C50.8709 62.5426 51.1273 62.8014 51.457 63.0047C51.7866 63.1896 52.153 63.3005 52.5559 63.3005ZM55.0101 63.7811C54.9186 63.7811 54.8453 63.7441 54.7904 63.6887C54.7354 63.6332 54.6988 63.5593 54.6988 63.4853V61.6923L54.8819 61.1008H55.2849V63.5038C55.2849 63.5962 55.2666 63.6517 55.2116 63.7071C55.1567 63.7626 55.1017 63.7811 55.0101 63.7811Z" fill="#506E83"/>
<path d="M57.0614 66.1092C56.9698 66.1092 56.9148 66.0722 56.8416 66.0168C56.7866 65.9613 56.75 65.8874 56.75 65.8135V61.0444C56.7683 60.5269 56.8965 60.0648 57.1346 59.6581C57.3727 59.2514 57.7024 58.9372 58.1053 58.6969C58.5083 58.4566 58.9845 58.3457 59.479 58.3457C60.0101 58.3457 60.468 58.4751 60.8893 58.7154C61.3105 58.9557 61.6219 59.2884 61.86 59.6951C62.0981 60.1202 62.2263 60.5823 62.2263 61.1184C62.2263 61.636 62.0981 62.1166 61.86 62.5232C61.6219 62.9484 61.2922 63.2626 60.8893 63.5029C60.468 63.7432 60.0101 63.8726 59.479 63.8726C59.0028 63.8726 58.5815 63.7617 58.2152 63.5583C57.8489 63.355 57.5559 63.0778 57.3361 62.745V65.8319C57.3361 65.9244 57.3178 65.9798 57.2628 66.0353C57.2262 66.0722 57.1529 66.1092 57.0614 66.1092ZM59.4973 63.2996C59.9002 63.2996 60.2849 63.2071 60.5962 63.0038C60.9259 62.8005 61.1823 62.5417 61.3655 62.209C61.5486 61.8763 61.6585 61.5066 61.6585 61.0814C61.6585 60.6563 61.5669 60.2866 61.3655 59.9539C61.1823 59.6211 60.9259 59.3624 60.5962 59.159C60.2665 58.9557 59.9002 58.8633 59.4973 58.8633C59.0944 58.8633 58.7281 58.9557 58.3984 59.159C58.0687 59.3624 57.8123 59.6211 57.6291 59.9539C57.446 60.2866 57.3544 60.6563 57.3544 61.0814C57.3544 61.4881 57.446 61.8763 57.6291 62.209C57.8123 62.5417 58.0687 62.8005 58.3984 63.0038C58.7281 63.1887 59.0944 63.2996 59.4973 63.2996Z" fill="#506E83"/>
<path d="M64.0028 63.7803C63.9112 63.7803 63.8562 63.7434 63.783 63.6879C63.728 63.6325 63.6914 63.5585 63.6914 63.4846V58.6786C63.6914 58.5861 63.728 58.5122 63.783 58.4568C63.8379 58.4013 63.9112 58.3828 64.0028 58.3828C64.0943 58.3828 64.1676 58.4013 64.2225 58.4568C64.2775 58.5122 64.2958 58.5861 64.2958 58.6786V63.4846C64.2958 63.577 64.2775 63.6325 64.2225 63.6879C64.1676 63.7618 64.0943 63.7803 64.0028 63.7803ZM64.1676 60.8598H68.2885V61.3958H64.1676V60.8598ZM68.3435 63.7803C68.2519 63.7803 68.197 63.7434 68.1237 63.6879C68.0688 63.6325 68.0321 63.5585 68.0321 63.4846V58.6786C68.0321 58.5861 68.0688 58.5122 68.1237 58.4568C68.1787 58.4013 68.2519 58.3828 68.3435 58.3828C68.4351 58.3828 68.5083 58.4013 68.5633 58.4568C68.6182 58.5122 68.6365 58.5861 68.6365 58.6786V63.4846C68.6365 63.577 68.6182 63.6325 68.5633 63.6879C68.5083 63.7618 68.4351 63.7803 68.3435 63.7803Z" fill="#506E83"/>
<path d="M70.2322 63.7064C70.1773 63.6509 70.1406 63.577 70.1406 63.503C70.1406 63.4291 70.1772 63.3737 70.2139 63.2997L71.7157 61.4143L72.4484 61.4513L70.6351 63.6879C70.5802 63.7618 70.5252 63.7803 70.4337 63.7803C70.3604 63.7988 70.2871 63.7618 70.2322 63.7064ZM74.0418 63.7803C73.9502 63.7803 73.8953 63.7433 73.8403 63.6879C73.7854 63.6324 73.7487 63.5585 73.7487 63.4661V61.8764H72.0637V61.8025C71.7341 61.8025 71.441 61.7285 71.1846 61.5991C70.9282 61.4513 70.7267 61.2664 70.5802 61.0076C70.4337 60.7488 70.3604 60.4531 70.3604 60.1204C70.3604 59.7692 70.4337 59.4734 70.5985 59.2146C70.7633 58.9558 70.9831 58.7525 71.2579 58.6046C71.5326 58.4567 71.8623 58.3828 72.2286 58.3828H74.0052C74.0967 58.3828 74.17 58.4013 74.2249 58.4567C74.2799 58.5122 74.2982 58.5861 74.2982 58.6786V63.503C74.2982 63.5955 74.2616 63.6509 74.2066 63.7064C74.1883 63.7618 74.1334 63.7803 74.0418 63.7803ZM72.2652 61.3404H73.7487V58.9189H72.2652C71.8806 58.9189 71.5692 59.0298 71.3311 59.2331C71.093 59.4364 70.9648 59.7322 70.9648 60.1204C70.9648 60.5085 71.093 60.8043 71.3311 61.0261C71.5692 61.2479 71.8806 61.3404 72.2652 61.3404Z" fill="#506E83"/>
<path d="M82.1356 63.7812C82.044 63.7812 81.9891 63.7442 81.9158 63.6888C81.8608 63.6333 81.8242 63.5594 81.8242 63.467V58.661C81.8242 58.5686 81.8608 58.4946 81.9158 58.4392C81.9707 58.3837 82.044 58.3652 82.1356 58.3652C82.2272 58.3652 82.3004 58.3837 82.3554 58.4392C82.4103 58.4946 82.4286 58.5686 82.4286 58.661V60.8422H83.5825V61.3782H82.4286V63.4855C82.4286 63.5779 82.4103 63.6333 82.3554 63.7073C82.3004 63.7627 82.2272 63.7812 82.1356 63.7812ZM85.8719 63.7073C85.817 63.7627 85.762 63.7812 85.6705 63.7997C85.5972 63.7997 85.5239 63.7627 85.469 63.7073L83.1612 61.1009L85.3957 58.4761C85.4507 58.4207 85.5056 58.4022 85.5606 58.3837C85.6155 58.3837 85.6888 58.4022 85.7437 58.4577C85.817 58.5131 85.8353 58.5686 85.8353 58.6425C85.8353 58.7164 85.817 58.7904 85.762 58.8458L83.8755 61.064L85.8536 63.3006C85.9086 63.3561 85.9269 63.43 85.9269 63.5039C85.9635 63.5779 85.9269 63.6518 85.8719 63.7073Z" fill="#506E83"/>
<path d="M89.1496 63.855C88.6185 63.855 88.1606 63.7256 87.7393 63.4853C87.3181 63.245 87.0067 62.9123 86.7686 62.5056C86.5305 62.0805 86.4023 61.6184 86.4023 61.1008C86.4023 60.5648 86.5305 60.1027 86.7686 59.6775C87.0067 59.2524 87.3364 58.9381 87.7393 58.6978C88.1606 58.4575 88.6185 58.3281 89.1496 58.3281C89.6807 58.3281 90.1386 58.439 90.5416 58.6978C90.9445 58.9381 91.2742 59.2708 91.5123 59.6775C91.7503 60.1027 91.8786 60.5648 91.8786 61.1008L91.6405 61.489C91.6405 61.9326 91.5306 62.3393 91.3108 62.6905C91.091 63.0417 90.798 63.3375 90.4317 63.5408C90.0471 63.7441 89.6258 63.855 89.1496 63.855ZM89.1496 63.3005C89.5525 63.3005 89.9372 63.2081 90.2485 63.0047C90.5782 62.8014 90.8346 62.5426 91.0178 62.2099C91.2009 61.8772 91.2925 61.5075 91.2925 61.0823C91.2925 60.6572 91.2009 60.2875 91.0178 59.9548C90.8346 59.6221 90.5782 59.3633 90.2485 59.1599C89.9188 58.9566 89.5525 58.8642 89.1496 58.8642C88.7467 58.8642 88.3804 58.9566 88.0507 59.1599C87.721 59.3633 87.4646 59.6221 87.2815 59.9548C87.0983 60.2875 86.9884 60.6572 86.9884 61.0823C86.9884 61.489 87.08 61.8772 87.2815 62.2099C87.4646 62.5426 87.721 62.8014 88.0507 63.0047C88.3621 63.1896 88.7284 63.3005 89.1496 63.3005ZM91.5855 63.7811C91.4939 63.7811 91.4207 63.7441 91.3657 63.6887C91.3108 63.6332 91.2742 63.5593 91.2742 63.4853V61.6923L91.4573 61.1008H91.8602V63.5038C91.8602 63.5962 91.8419 63.6517 91.787 63.7071C91.7503 63.7626 91.6771 63.7811 91.5855 63.7811Z" fill="#506E83"/>
<path d="M95.7785 63.8543C95.2474 63.8543 94.7712 63.7249 94.3499 63.4846C93.947 63.2443 93.6173 62.93 93.3792 62.5049C93.1411 62.0982 93.0312 61.6176 93.0312 61.0816C93.0312 60.5455 93.1411 60.0649 93.3792 59.6398C93.6173 59.2331 93.9287 58.9004 94.3499 58.6601C94.7529 58.4198 95.2291 58.3089 95.7785 58.3089V58.8634C95.3573 58.8634 94.991 58.9559 94.6613 59.1407C94.3316 59.3256 94.0935 59.5843 93.9104 59.9171C93.7272 60.2498 93.6356 60.6195 93.6356 61.0631C93.6356 61.4883 93.7272 61.8764 93.9104 62.2091C94.0935 62.5419 94.3499 62.8007 94.6613 62.9855C94.991 63.1703 95.3573 63.2628 95.7785 63.2813V63.8543ZM96.0716 66.1094C95.98 66.1094 95.925 66.0724 95.8518 66.017C95.7968 65.9615 95.7602 65.8876 95.7602 65.8136V56.368C95.7602 56.2756 95.7968 56.2017 95.8518 56.1462C95.9067 56.0907 95.98 56.0723 96.0716 56.0723C96.1631 56.0723 96.2364 56.0907 96.2913 56.1462C96.3463 56.2017 96.3646 56.2756 96.3646 56.368V65.8136C96.3646 65.9061 96.3463 65.9615 96.2913 66.017C96.2364 66.0724 96.1631 66.1094 96.0716 66.1094ZM96.3646 63.8543V63.2997C96.7858 63.2997 97.1705 63.2073 97.4818 63.0225C97.8115 62.8376 98.0496 62.5788 98.2327 62.2461C98.4159 61.9134 98.5075 61.5252 98.5075 61.1001C98.5075 60.6564 98.4159 60.2868 98.2327 59.954C98.0496 59.6213 97.7932 59.3625 97.4818 59.1777C97.1522 58.9928 96.7858 58.9004 96.3646 58.9004V58.3459C96.8957 58.3459 97.3719 58.4568 97.7932 58.6971C98.1961 58.9374 98.5258 59.2516 98.7639 59.6768C99.002 60.0834 99.1119 60.564 99.1119 61.1186C99.1119 61.6546 99.002 62.1352 98.7639 62.5419C98.5258 62.9485 98.2144 63.2813 97.7932 63.5216C97.3719 63.7249 96.8957 63.8543 96.3646 63.8543Z" fill="#506E83"/>
<path d="M102.94 63.8365C102.427 63.8365 101.969 63.7256 101.566 63.4853C101.163 63.245 100.852 62.9308 100.614 62.5056C100.394 62.099 100.266 61.6184 100.266 61.0823C100.266 60.5463 100.376 60.0657 100.595 59.659C100.815 59.2524 101.108 58.9196 101.493 58.6793C101.877 58.439 102.299 58.3281 102.793 58.3281C103.269 58.3281 103.709 58.439 104.075 58.6608C104.442 58.8827 104.735 59.1969 104.954 59.6036C105.156 60.0102 105.266 60.4538 105.266 60.9899C105.266 61.0823 105.247 61.1378 105.193 61.1932C105.138 61.2487 105.064 61.2672 104.991 61.2672H100.687V60.7496H105.156L104.716 61.0823C104.735 60.6572 104.661 60.269 104.497 59.9548C104.332 59.622 104.112 59.3633 103.819 59.1784C103.526 58.9936 103.196 58.9011 102.793 58.9011C102.427 58.9011 102.097 58.9936 101.804 59.1784C101.511 59.3633 101.291 59.622 101.126 59.9548C100.962 60.2875 100.87 60.6572 100.87 61.1008C100.87 61.5259 100.962 61.9141 101.126 62.2284C101.31 62.5611 101.548 62.8199 101.859 63.0047C102.17 63.1896 102.537 63.282 102.94 63.282C103.196 63.282 103.453 63.245 103.709 63.1526C103.965 63.0602 104.167 62.9493 104.313 62.8014C104.368 62.7459 104.423 62.7274 104.497 62.709C104.57 62.709 104.643 62.7274 104.68 62.7644C104.753 62.8199 104.79 62.8938 104.79 62.9677C104.79 63.0417 104.753 63.0971 104.698 63.1711C104.497 63.3559 104.222 63.5223 103.874 63.6517C103.581 63.7811 103.251 63.8365 102.94 63.8365Z" fill="#506E83"/>
<path d="M78.3801 61.4711C78.3801 61.6929 78.197 61.8777 77.9772 61.8777C77.7574 61.8777 77.5742 61.6929 77.5742 61.4711C77.5742 61.2493 77.7574 61.0645 77.9772 61.0645C78.197 61.0645 78.3801 61.2493 78.3801 61.4711Z" fill="#506E83"/>
<path d="M34.7746 28.8262C31.2764 28.8262 28.4375 31.6913 28.4375 35.2218C28.4375 38.7524 31.2764 41.6175 34.7746 41.6175C36.3131 41.6175 37.7234 41.0629 38.8223 40.1202V40.453C38.8223 41.0814 39.3351 41.599 39.9578 41.599C40.5806 41.599 41.0934 41.0814 41.0934 40.453V35.3512C41.0934 35.3327 41.0934 35.3143 41.0934 35.2958C41.0934 35.2588 41.0934 35.2403 41.0934 35.2033C41.1117 31.6913 38.2728 28.8262 34.7746 28.8262ZM34.7746 39.3069C32.5401 39.3069 30.7269 37.4769 30.7269 35.2218C30.7269 32.9667 32.5401 31.1367 34.7746 31.1367C37.0091 31.1367 38.8223 32.9667 38.8223 35.2218C38.8406 37.4769 37.0091 39.3069 34.7746 39.3069Z" fill="#F3AE4B"/>
<path d="M71.2004 28.8262C67.7022 28.8262 64.8633 31.6913 64.8633 35.2218C64.8633 38.7524 67.7022 41.6175 71.2004 41.6175C72.7389 41.6175 74.1492 41.0629 75.2481 40.1202V40.453C75.2481 41.0814 75.7609 41.599 76.3836 41.599C77.0064 41.599 77.5192 41.0814 77.5192 40.453V35.2033C77.5192 31.6913 74.6803 28.8262 71.2004 28.8262ZM71.2004 39.3069C68.9659 39.3069 67.1527 37.4769 67.1527 35.2218C67.1527 32.9667 68.9659 31.1367 71.2004 31.1367C73.4349 31.1367 75.2481 32.9667 75.2481 35.2218C75.2481 37.4769 73.4349 39.3069 71.2004 39.3069Z" fill="#F3AE4B"/>
<path d="M57.3191 41.7473C57.9419 41.7473 58.4547 41.2298 58.4547 40.6013V34.982C58.766 34.908 59.0774 34.8341 59.3521 34.7417C59.9565 40.2131 63.8394 42.5237 65.5977 43.2816C65.7442 43.337 65.8907 43.374 66.0555 43.374C66.4951 43.374 66.9164 43.1152 67.0995 42.6716C67.3559 42.0801 67.0812 41.4146 66.4951 41.1558C65.0482 40.5274 61.7514 38.5495 61.5683 33.7065C62.9603 32.8008 63.8211 31.6548 64.4804 30.5642C64.8101 30.0281 64.6453 29.3072 64.0958 28.993C63.5647 28.6603 62.8504 28.8266 62.539 29.3812C61.6416 30.8784 60.5426 32.0244 58.4547 32.6344V30.139C58.4547 29.5105 57.9419 28.993 57.3191 28.993C56.6964 28.993 56.1836 29.5105 56.1836 30.139V40.6198C56.1836 41.2482 56.6964 41.7473 57.3191 41.7473Z" fill="#F3AE4B"/>
<path d="M26.0007 18.4018C25.2864 17.6809 24.1509 17.2188 23.1069 17.2188C17.5757 17.2188 14.5537 21.6735 14.5353 25.925V35.3521C14.5353 36.9972 13.5646 38.4945 12.0445 39.1415C11.8796 39.2154 11.6781 39.2893 11.4217 39.3448C11.1287 39.4187 10.799 39.4557 10.4877 39.4557C9.5902 39.4557 8.72938 39.1599 8.01509 38.6054C7.52057 38.2172 6.80627 38.3096 6.42165 38.8087C6.03703 39.3078 6.12861 40.0287 6.62312 40.4169C7.74036 41.2857 9.07737 41.7663 10.4877 41.7663C11.0005 41.7663 11.495 41.7108 11.9529 41.5814C12.3192 41.489 12.6672 41.3781 12.9602 41.2487C15.3046 40.2505 16.8248 37.94 16.8248 35.3521V25.888C16.8431 22.7272 19.0043 19.5108 23.1252 19.5108C23.6197 19.5108 24.1692 19.7696 24.4073 20.0099C24.737 20.3426 24.9201 20.7678 24.9568 21.2299V40.4539C24.9568 41.0823 25.4696 41.5999 26.0923 41.5999C26.715 41.5999 27.2279 41.0823 27.2279 40.4539V21.2114C27.2279 21.1929 27.2279 21.1745 27.2279 21.1375C27.1546 20.1208 26.7333 19.1411 26.0007 18.4018Z" fill="#F3AE4B"/>
<path d="M50.3605 29.1957C49.7561 29.0294 49.1333 29.3806 48.9685 29.9906C48.8037 30.6006 49.1517 31.229 49.7561 31.3954C51.5143 31.876 52.7415 33.5026 52.7415 35.3511C52.7415 37.6062 50.9282 39.4547 48.6938 39.4547C46.4593 39.4547 44.6461 37.6247 44.6461 35.3511C44.6461 33.5581 45.5802 32.3751 46.8622 30.7669C48.7487 28.4009 51.0931 25.4434 51.0931 19.288C51.0931 16.8665 49.1333 14.8887 46.734 14.8887C44.3347 14.8887 42.375 16.8665 42.375 19.288V35.3511C42.375 38.8817 45.2139 41.7468 48.7121 41.7468C52.2103 41.7468 55.0492 38.8817 55.0492 35.3511C55.0126 32.486 53.1078 29.9536 50.3605 29.1957ZM44.6278 19.288C44.6278 18.1235 45.5619 17.1808 46.7157 17.1808C47.8696 17.1808 48.8037 18.1235 48.8037 19.288C48.8037 24.63 46.8256 27.1255 45.0674 29.3251C44.9208 29.51 44.7743 29.6948 44.6278 29.8797V19.288Z" fill="#F3AE4B"/>
<path d="M105.342 49.2882C105.342 45.7577 102.503 42.8926 99.0051 42.8926C95.5069 42.8926 92.668 45.7577 92.668 49.2882C92.668 52.8188 95.5069 55.6839 99.0051 55.6839C100.544 55.6839 101.954 55.1293 103.053 54.1866V54.5194C103.053 55.1478 103.566 55.6654 104.188 55.6654C104.811 55.6654 105.324 55.1478 105.324 54.5194L105.342 49.2882ZM99.0051 53.3918C96.7706 53.3918 94.9574 51.5618 94.9574 49.3067C94.9574 47.0516 96.7706 45.2216 99.0051 45.2216C101.24 45.2216 103.053 47.0516 103.053 49.3067C103.071 51.5433 101.24 53.3918 99.0051 53.3918Z" fill="#506E83"/>
<path d="M11.9324 42.3945C11.3097 42.3945 10.7969 42.9121 10.7969 43.5406V54.5389C10.7969 55.1674 11.3097 55.6849 11.9324 55.6849C12.5551 55.6849 13.068 55.1674 13.068 54.5389V43.5406C13.068 42.9121 12.5551 42.3945 11.9324 42.3945Z" fill="#506E83"/>
<path d="M48.673 42.9121C45.1748 42.9121 42.3359 45.7772 42.3359 49.3078C42.3359 52.8383 45.1748 55.7034 48.673 55.7034C52.1712 55.7034 55.0101 52.8383 55.0101 49.3078C55.0101 45.7772 52.1712 42.9121 48.673 42.9121ZM48.673 53.3929C46.4386 53.3929 44.6253 51.5629 44.6253 49.3078C44.6253 47.0527 46.4386 45.2227 48.673 45.2227C50.9075 45.2227 52.7207 47.0527 52.7207 49.3078C52.739 51.5444 50.9258 53.3929 48.673 53.3929Z" fill="#506E83"/>
<path d="M34.7746 42.9121C31.2764 42.9121 28.4375 45.7772 28.4375 49.3078V57.2746C28.4375 57.9031 28.9503 58.4206 29.573 58.4206C30.1958 58.4206 30.7086 57.9031 30.7086 57.2746V54.2062C31.8075 55.1304 33.2178 55.7034 34.7563 55.7034C38.2545 55.7034 41.0934 52.8383 41.0934 49.3078C41.1117 45.7772 38.2728 42.9121 34.7746 42.9121ZM34.7746 53.3928C32.5401 53.3928 30.7269 51.5629 30.7269 49.3078C30.7269 47.0526 32.5401 45.2227 34.7746 45.2227C37.0091 45.2227 38.8223 47.0526 38.8223 49.3078C38.8406 51.5444 37.0091 53.3928 34.7746 53.3928Z" fill="#506E83"/>
<path d="M71.1848 42.9121C69.2617 42.9121 67.4667 43.7809 66.2396 45.3151C65.3422 46.4427 64.8477 47.866 64.8477 49.3078C64.8477 50.7681 65.3239 52.1544 66.2396 53.3004C67.4484 54.8162 69.2617 55.685 71.1848 55.685C74.683 55.685 77.5219 52.8198 77.5219 49.2893C77.5219 45.7772 74.683 42.9121 71.1848 42.9121ZM71.1848 53.3929C69.9576 53.3929 68.8038 52.8383 68.0162 51.8586C67.4301 51.1193 67.1188 50.232 67.1188 49.2893C67.1188 48.3466 67.4301 47.4593 67.9979 46.7384C68.7855 45.7587 69.9393 45.2042 71.1665 45.2042C73.4009 45.2042 75.2325 47.0342 75.2325 49.2893C75.2508 51.5444 73.4376 53.3929 71.1848 53.3929Z" fill="#506E83"/>
<path d="M63.235 42.9121H62.5207C59.0225 42.9121 56.1836 45.7772 56.1836 49.3078V54.5574C56.1836 55.1859 56.6964 55.7034 57.3191 55.7034C57.9419 55.7034 58.4547 55.1859 58.4547 54.5574V49.3078C58.4547 47.0527 60.2679 45.2227 62.5207 45.2227H63.235C63.8577 45.2227 64.3706 44.7051 64.3706 44.0766C64.3706 43.4112 63.8577 42.9121 63.235 42.9121Z" fill="#506E83"/>
<path d="M26.0711 42.9121C25.4484 42.9121 24.9356 43.4297 24.9356 44.0582V49.2893C24.9356 51.5444 23.1224 53.3929 20.8879 53.3929C18.6534 53.3929 16.8219 51.5629 16.8219 49.2893V44.0582C16.8219 43.4297 16.3091 42.9121 15.6863 42.9121C15.0636 42.9121 14.5508 43.4297 14.5508 44.0582V49.2893C14.5508 52.8198 17.3897 55.685 20.8879 55.685C22.4264 55.685 23.8367 55.1304 24.9356 54.1877V54.5204C24.9356 55.1489 25.4484 55.6665 26.0711 55.6665C26.6938 55.6665 27.2067 55.1489 27.2067 54.5204V44.0397C27.2067 43.4112 26.6938 42.9121 26.0711 42.9121Z" fill="#506E83"/>
<path d="M87.0636 43.0961C86.4592 42.9298 85.8365 43.281 85.6716 43.891C85.5068 44.501 85.8548 45.1294 86.4592 45.2958C88.2175 45.7764 89.4446 47.403 89.4446 49.2515C89.4446 51.5066 87.6314 53.3366 85.3969 53.3366C83.1624 53.3366 81.3492 51.5066 81.3492 49.2515C81.3492 47.4585 82.2833 46.2755 83.5654 44.6673C85.4519 42.3013 87.7962 39.3438 87.7962 33.1884C87.7962 30.7669 85.8365 28.7891 83.4372 28.7891C81.0379 28.7891 79.0781 30.7669 79.0781 33.1884V49.2515C79.0781 52.782 81.917 55.6471 85.4152 55.6471C88.9134 55.6471 91.7523 52.782 91.7523 49.2515C91.7157 46.3864 89.7926 43.854 87.0636 43.0961ZM81.3126 33.2069C81.3126 32.0423 82.2467 31.0996 83.4005 31.0996C84.5544 31.0996 85.4885 32.0423 85.4885 33.2069C85.4885 38.5489 83.5104 41.0443 81.7522 43.244C81.6056 43.4288 81.4591 43.6137 81.3126 43.7985V33.2069Z" fill="#506E83"/>
<path d="M10.7976 35.5725V37.0513C10.7976 37.6798 11.3105 38.1973 11.9332 38.1973C12.5559 38.1973 13.0687 37.6798 13.0687 37.0513V35.5725C13.0687 33.2065 11.1639 31.2656 8.80127 31.2656H4.662C2.31764 31.2656 0.394531 33.188 0.394531 35.5725V54.5377C0.394531 55.1662 0.907357 55.6837 1.53008 55.6837C2.1528 55.6837 2.66563 55.1662 2.66563 54.5377V35.5725C2.66563 34.4635 3.56308 33.5762 4.662 33.5762H8.80127C9.90019 33.5577 10.7976 34.4635 10.7976 35.5725Z" fill="#506E83"/>
</svg>
