<svg width="32" height="32" viewBox="0 0 32 32" fill="none" xmlns="http://www.w3.org/2000/svg">
<rect width="32" height="32" rx="16" fill="#419FD9"/>
<path fill-rule="evenodd" clip-rule="evenodd" d="M19.5567 23.9234C20.6751 24.4126 21.0944 23.3875 21.0944 23.3875L24.0534 8.52289C24.0301 7.52104 22.6788 8.12681 22.6788 8.12681L6.11335 14.6272C6.11335 14.6272 5.32119 14.9067 5.39109 15.396C5.46098 15.8853 6.09005 16.1183 6.09005 16.1183L10.2605 17.5162C10.2605 17.5162 11.5187 21.6401 11.7749 22.4322C12.0079 23.2011 12.2176 23.2244 12.2176 23.2244C12.4506 23.3176 12.6603 23.1545 12.6603 23.1545L15.363 20.7081L19.5567 23.9234ZM20.2785 11.1553C20.2785 11.1553 20.861 10.8058 20.8377 11.1553C20.8377 11.1553 20.9309 11.2019 20.628 11.5281C20.3484 11.8077 13.7549 17.7256 12.8695 18.5177C12.7996 18.5643 12.753 18.6342 12.753 18.7274L12.4967 20.9175C12.4501 21.1505 12.1473 21.1738 12.0774 20.9641L10.9823 17.3761C10.9357 17.2363 10.9823 17.0732 11.1221 16.98L20.2785 11.1553Z" fill="white"/>
</svg>
