<svg width="1156" height="103" viewBox="0 0 1156 103" fill="none" xmlns="http://www.w3.org/2000/svg">
<path d="M84.1484 0H47.9983C41.4534 0 36.1484 5.29541 36.1484 11.8499V66.0747C36.1484 68.3752 38.7866 69.7207 40.6484 68.3247L51.9482 59.8499H84.1484C90.6934 59.8499 95.9983 54.5544 95.9983 48V11.8499C95.9983 5.30493 90.7029 0 84.1484 0V0Z" fill="#EFF6FE"/>
<path d="M84.1501 0H66.0747V59.8499H84.1501C90.6958 59.8499 96 54.5552 96 48V11.8499C96 5.3042 90.7053 0 84.1501 0V0Z" fill="#D9E4EF"/>
<path d="M68.8872 43.4805C68.8872 45.0339 67.6282 46.293 66.0747 46.293C64.522 46.293 63.2622 45.0339 63.2622 43.4805C63.2622 41.9277 64.522 40.668 66.0747 40.668C67.6282 40.668 68.8872 41.9277 68.8872 43.4805Z" fill="#00D66A"/>
<path d="M66.0718 13.5566C60.3625 13.5566 55.7314 18.1768 55.7314 23.897V23.9006C55.7314 25.4534 56.9905 26.7117 58.5439 26.7117C60.0974 26.7117 61.3564 25.4504 61.3564 23.897C61.3564 21.2969 63.4592 19.1816 66.0754 19.1816C68.677 19.1816 70.7937 21.2983 70.7937 23.9006C70.7937 26.5022 68.677 28.6189 66.0754 28.6189C64.522 28.6189 63.2629 29.8787 63.2629 31.4314V34.4438C63.2629 35.9973 64.522 37.2563 66.0754 37.2563C67.6282 37.2563 68.8879 35.9973 68.8879 34.4438V33.8557C73.229 32.6274 76.4187 28.6292 76.4187 23.9006C76.4187 18.1965 71.7788 13.5566 66.0718 13.5566V13.5566Z" fill="#00D66A"/>
<path d="M68.8872 43.4805C68.8872 45.0332 67.6274 46.293 66.0747 46.293V40.668C67.6274 40.668 68.8872 41.9285 68.8872 43.4805Z" fill="#00B85E"/>
<path d="M76.4194 23.9006C76.4194 28.6299 73.2283 32.6274 68.8872 33.855V34.4438C68.8872 35.9966 67.6274 37.2563 66.0747 37.2563V28.6182C68.6777 28.6182 70.7944 26.5015 70.7944 23.9006C70.7944 21.2983 68.6777 19.1816 66.0747 19.1816V13.5566C71.7803 13.5581 76.4194 18.1987 76.4194 23.9006Z" fill="#00B85E"/>
<path d="M31.168 58.4812C31.168 65.8237 25.2156 71.7761 17.873 71.7761C10.5305 71.7761 4.57812 65.8237 4.57812 58.4812C4.57812 51.1379 10.5305 45.1855 17.873 45.1855C25.2156 45.1855 31.168 51.1379 31.168 58.4812Z" fill="#FFCFBE"/>
<path d="M31.1697 58.4812C31.1697 65.8237 25.2166 71.7754 17.874 71.7754V45.1855C25.2166 45.1855 31.1697 51.1387 31.1697 58.4812V58.4812Z" fill="#F9BCAA"/>
<path d="M17.8748 71.7754C8.00317 71.7754 0 79.7786 0 89.6501V93.187C0 94.7405 1.25903 95.9995 2.8125 95.9995H32.9377C34.4905 95.9995 35.7502 94.7405 35.7502 93.187V89.6501C35.7502 79.7786 27.7471 71.7754 17.8748 71.7754V71.7754Z" fill="#FFCC4B"/>
<path d="M17.8748 71.7754C17.8748 71.7754 17.8748 71.7754 17.874 71.7754V95.9995H32.937C34.4905 95.9995 35.7495 94.7405 35.7495 93.187V89.6501C35.7502 79.7786 27.7471 71.7754 17.8748 71.7754V71.7754Z" fill="#FFB826"/>
<path d="M462.002 52.5H459.002C459.003 53.8299 458.561 55.1224 457.747 56.1735C456.932 57.2246 455.79 57.9745 454.502 58.305C454.013 58.4389 453.509 58.5046 453.002 58.5C451.411 58.5 449.885 57.8678 448.759 56.7426C447.634 55.6174 447.002 54.0913 447.002 52.5V46.5C447.009 43.0442 446.153 39.6412 444.512 36.6C444.302 36.21 444.077 35.82 443.852 35.445C441.991 32.4602 439.414 29.9881 436.354 28.2538C433.294 26.5194 429.849 25.5779 426.332 25.515C426.336 25.515 426.34 25.5134 426.343 25.5106C426.345 25.5078 426.347 25.504 426.347 25.5H435.002C438.548 25.4986 442.06 26.1961 445.336 27.5524C448.613 28.9088 451.59 30.8976 454.097 33.405C456.604 35.9125 458.593 38.8895 459.95 42.1659C461.306 45.4423 462.003 48.9539 462.002 52.5V52.5Z" fill="#3D9AE2"/>
<path d="M419.67 25.515C416.153 25.5779 412.708 26.5194 409.648 28.2538C406.588 29.9881 404.011 32.4602 402.15 35.445C401.925 35.82 401.7 36.21 401.49 36.6C399.849 39.6412 398.993 43.0442 399 46.5V52.5C399 54.0913 398.368 55.6174 397.243 56.7426C396.117 57.8679 394.591 58.5 393 58.5C392.493 58.5046 391.989 58.439 391.5 58.305C390.212 57.9745 389.07 57.2246 388.255 56.1735C387.441 55.1224 386.999 53.8299 387 52.5H384C384.006 45.341 386.853 38.4769 391.915 33.4147C396.977 28.3525 403.841 25.506 411 25.5H419.655C419.655 25.504 419.657 25.5078 419.659 25.5106C419.662 25.5134 419.666 25.515 419.67 25.515V25.515Z" fill="#FF6243"/>
<path d="M454.5 58.305V88.5C454.498 89.2949 454.181 90.0566 453.619 90.6187C453.057 91.1808 452.295 91.4976 451.5 91.5H394.5C393.705 91.4976 392.943 91.1808 392.381 90.6187C391.819 90.0566 391.502 89.2949 391.5 88.5V58.305C391.989 58.439 392.493 58.5046 393 58.5C394.591 58.5 396.117 57.8679 397.243 56.7426C398.368 55.6174 399 54.0913 399 52.5C399 54.0913 399.632 55.6174 400.757 56.7426C401.883 57.8679 403.409 58.5 405 58.5C406.591 58.5 408.117 57.8679 409.243 56.7426C410.368 55.6174 411 54.0913 411 52.5C411 54.0913 411.632 55.6174 412.757 56.7426C413.883 57.8679 415.409 58.5 417 58.5C418.591 58.5 420.117 57.8679 421.243 56.7426C422.368 55.6174 423 54.0913 423 52.5C423 54.0913 423.632 55.6174 424.757 56.7426C425.883 57.8679 427.409 58.5 429 58.5C430.591 58.5 432.117 57.8679 433.243 56.7426C434.368 55.6174 435 54.0913 435 52.5C435 54.0913 435.632 55.6174 436.757 56.7426C437.883 57.8679 439.409 58.5 441 58.5C442.591 58.5 444.117 57.8679 445.243 56.7426C446.368 55.6174 447 54.0913 447 52.5C447 54.0913 447.632 55.6174 448.757 56.7426C449.883 57.8679 451.409 58.5 453 58.5C453.507 58.5046 454.011 58.439 454.5 58.305V58.305Z" fill="#00CCB3"/>
<path d="M415.5 70.5V91.5H400.5V70.5C400.502 69.7051 400.819 68.9434 401.381 68.3813C401.943 67.8192 402.705 67.5024 403.5 67.5H412.5C413.295 67.5024 414.057 67.8192 414.619 68.3813C415.181 68.9434 415.498 69.7051 415.5 70.5V70.5Z" fill="#96C8EF"/>
<path d="M444 67.5H426C425.172 67.5 424.5 68.1716 424.5 69V78C424.5 78.8284 425.172 79.5 426 79.5H444C444.828 79.5 445.5 78.8284 445.5 78V69C445.5 68.1716 444.828 67.5 444 67.5Z" fill="#96C8EF"/>
<path d="M435 37.5V52.5C435 54.0913 434.368 55.6174 433.243 56.7426C432.117 57.8679 430.591 58.5 429 58.5C427.409 58.5 425.883 57.8679 424.757 56.7426C423.632 55.6174 423 54.0913 423 52.5V25.5C424.002 25.5017 424.999 25.6277 425.97 25.875C428.304 26.4703 430.405 27.7544 432 29.5603C433.594 31.3661 434.608 33.61 434.91 36C434.97 36.4977 435 36.9986 435 37.5Z" fill="#3D9AE2"/>
<path d="M423 25.5006C420.076 25.497 417.251 26.5624 415.057 28.4963C412.864 30.4301 411.453 33.099 411.09 36.0006C411.029 36.4983 410.999 36.9993 411 37.5006V52.5006C411 54.0919 410.368 55.6181 409.242 56.7433C408.117 57.8685 406.591 58.5006 405 58.5006C403.409 58.5006 401.882 57.8685 400.757 56.7433C399.632 55.6181 399 54.0919 399 52.5006V46.5006C398.993 43.0448 399.848 39.6418 401.49 36.6006C401.7 36.2106 401.925 35.8206 402.15 35.4456C404.01 32.4608 406.588 29.9887 409.648 28.2544C412.708 26.52 416.153 25.5786 419.67 25.5156C419.779 25.5031 419.89 25.4981 420 25.5006H423Z" fill="#3D9AE2"/>
<path d="M447 46.5006V52.5006C447 54.0919 446.368 55.6181 445.243 56.7433C444.117 57.8685 442.591 58.5006 441 58.5006C439.409 58.5006 437.883 57.8685 436.757 56.7433C435.632 55.6181 435 54.0919 435 52.5006V37.5006C435 36.9993 434.97 36.4983 434.91 36.0006C434.608 33.6106 433.594 31.3667 432 29.5609C430.405 27.7551 428.304 26.471 425.97 25.8756C424.999 25.6283 424.002 25.5023 423 25.5006H426C426.11 25.4981 426.22 25.5031 426.33 25.5156C429.847 25.5786 433.292 26.52 436.352 28.2544C439.412 29.9887 441.989 32.4608 443.85 35.4456C444.075 35.8206 444.3 36.2106 444.51 36.6006C446.151 39.6418 447.007 43.0448 447 46.5006V46.5006Z" fill="#FF6243"/>
<path d="M423 25.5V52.5C423 54.0913 422.368 55.6174 421.243 56.7426C420.117 57.8679 418.591 58.5 417 58.5C415.409 58.5 413.883 57.8679 412.757 56.7426C411.632 55.6174 411 54.0913 411 52.5V37.5C411 36.9986 411.03 36.4977 411.09 36C411.458 33.1006 412.871 30.4348 415.063 28.502C417.256 26.5692 420.077 25.5019 423 25.5V25.5Z" fill="#FF6243"/>
<path d="M454.5 58.305V61.305C454.011 61.439 453.507 61.5046 453 61.5C451.409 61.5 449.883 60.8679 448.757 59.7426C447.632 58.6174 447 57.0913 447 55.5C447 57.0913 446.368 58.6174 445.243 59.7426C444.117 60.8679 442.591 61.5 441 61.5C439.409 61.5 437.883 60.8679 436.757 59.7426C435.632 58.6174 435 57.0913 435 55.5C435 57.0913 434.368 58.6174 433.243 59.7426C432.117 60.8679 430.591 61.5 429 61.5C427.409 61.5 425.883 60.8679 424.757 59.7426C423.632 58.6174 423 57.0913 423 55.5C423 57.0913 422.368 58.6174 421.243 59.7426C420.117 60.8679 418.591 61.5 417 61.5C415.409 61.5 413.883 60.8679 412.757 59.7426C411.632 58.6174 411 57.0913 411 55.5C411 57.0913 410.368 58.6174 409.243 59.7426C408.117 60.8679 406.591 61.5 405 61.5C403.409 61.5 401.883 60.8679 400.757 59.7426C399.632 58.6174 399 57.0913 399 55.5C399 57.0913 398.368 58.6174 397.243 59.7426C396.117 60.8679 394.591 61.5 393 61.5C392.493 61.5046 391.989 61.439 391.5 61.305V58.305C391.989 58.439 392.493 58.5046 393 58.5C394.591 58.5 396.117 57.8679 397.243 56.7426C398.368 55.6174 399 54.0913 399 52.5C399 54.0913 399.632 55.6174 400.757 56.7426C401.883 57.8679 403.409 58.5 405 58.5C406.591 58.5 408.117 57.8679 409.243 56.7426C410.368 55.6174 411 54.0913 411 52.5C411 54.0913 411.632 55.6174 412.757 56.7426C413.883 57.8679 415.409 58.5 417 58.5C418.591 58.5 420.117 57.8679 421.243 56.7426C422.368 55.6174 423 54.0913 423 52.5C423 54.0913 423.632 55.6174 424.757 56.7426C425.883 57.8679 427.409 58.5 429 58.5C430.591 58.5 432.117 57.8679 433.243 56.7426C434.368 55.6174 435 54.0913 435 52.5C435 54.0913 435.632 55.6174 436.757 56.7426C437.883 57.8679 439.409 58.5 441 58.5C442.591 58.5 444.117 57.8679 445.243 56.7426C446.368 55.6174 447 54.0913 447 52.5C447 54.0913 447.632 55.6174 448.757 56.7426C449.883 57.8679 451.409 58.5 453 58.5C453.507 58.5046 454.011 58.439 454.5 58.305Z" fill="#00B39D"/>
<path d="M415.5 72V78L402 91.5H400.5V87L415.5 72Z" fill="#78B9EB"/>
<path d="M415.5 81V86.25L410.25 91.5H405L415.5 81Z" fill="#78B9EB"/>
<path d="M445.5 69L435 79.5H429L441 67.5H444C444.398 67.5 444.779 67.658 445.061 67.9393C445.342 68.2206 445.5 68.6022 445.5 69Z" fill="#78B9EB"/>
<path d="M445.5 72V77.25L443.25 79.5H438L445.5 72Z" fill="#78B9EB"/>
<path d="M411.002 46.0353V49.0203C406.449 46.151 403.075 41.7445 401.492 36.6003C401.702 36.2103 401.927 35.8203 402.152 35.4453C403.92 39.8152 407.016 43.5195 411.002 46.0353V46.0353Z" fill="#1E81CE"/>
<path d="M402.15 35.445C401.925 35.82 401.7 36.21 401.49 36.6C400.831 34.4621 400.497 32.2372 400.5 30C400.5 29.49 400.515 28.995 400.56 28.5C400.715 30.8851 401.252 33.2299 402.15 35.445V35.445Z" fill="#ED1C24"/>
<path d="M423 49.5002V52.5002C418.75 52.5076 414.587 51.3001 411 49.0202V46.0352C414.589 48.3086 418.752 49.5106 423 49.5002Z" fill="#ED1C24"/>
<path d="M435 46.0352V49.0202C431.413 51.3001 427.25 52.5076 423 52.5002V49.5002C427.248 49.5106 431.411 48.3086 435 46.0352Z" fill="#1E81CE"/>
<path d="M444.51 36.6003C442.927 41.7445 439.553 46.151 435 49.0203V46.0353C438.987 43.5195 442.082 39.8152 443.85 35.4453C444.075 35.8203 444.3 36.2103 444.51 36.6003V36.6003Z" fill="#ED1C24"/>
<path d="M445.501 30C445.503 32.2372 445.17 34.4621 444.511 36.6C444.301 36.21 444.076 35.82 443.851 35.445C444.749 33.2299 445.285 30.8851 445.441 28.5C445.486 28.995 445.501 29.49 445.501 30V30Z" fill="#1E81CE"/>
<path d="M423 49.5C435.426 49.5 445.5 39.4264 445.5 27C445.5 14.5736 435.426 4.5 423 4.5C410.574 4.5 400.5 14.5736 400.5 27C400.5 39.4264 410.574 49.5 423 49.5Z" fill="#FFD422"/>
<path d="M435.181 25.7106C435.13 26.0685 434.952 26.396 434.679 26.633C434.406 26.87 434.057 27.0006 433.696 27.0006H433.306C432.944 27.0006 432.595 26.87 432.322 26.633C432.049 26.396 431.871 26.0685 431.821 25.7106L430.711 18.0156C432.638 18.0458 434.502 18.7041 436.021 19.8906V19.9056L435.181 25.7106Z" fill="#A97C50"/>
<path d="M424.679 24.21C424.628 24.5678 424.45 24.8954 424.177 25.1324C423.904 25.3694 423.555 25.4999 423.194 25.5H422.804C422.442 25.4999 422.093 25.3694 421.82 25.1324C421.547 24.8954 421.369 24.5678 421.319 24.21L420.434 18H425.564L424.679 24.21Z" fill="#A97C50"/>
<path d="M414.18 25.7106C414.129 26.0685 413.951 26.396 413.678 26.633C413.405 26.87 413.056 27.0006 412.695 27.0006H412.305C411.943 27.0006 411.594 26.87 411.321 26.633C411.048 26.396 410.87 26.0685 410.82 25.7106L409.98 19.9056V19.8906C411.498 18.7041 413.363 18.0458 415.29 18.0156L414.18 25.7106Z" fill="#A97C50"/>
<path d="M430.71 18.0139L431.82 25.7089C431.871 26.0667 432.049 26.3943 432.322 26.6313C432.594 26.8683 432.944 26.9988 433.305 26.9989H433.695C434.056 26.9988 434.406 26.8683 434.678 26.6313C434.951 26.3943 435.129 26.0667 435.18 25.7089L436.02 19.9039C437.104 20.7419 437.981 21.8172 438.584 23.0471C439.187 24.2771 439.501 25.629 439.5 26.9989V29.9989C439.498 30.7938 439.181 31.5555 438.619 32.1176C438.057 32.6797 437.295 32.9965 436.5 32.9989H409.5C408.705 32.9965 407.943 32.6797 407.381 32.1176C406.819 31.5555 406.502 30.7938 406.5 29.9989V26.9989C406.499 25.629 406.813 24.2771 407.416 23.0471C408.019 21.8172 408.896 20.7419 409.98 19.9039L410.82 25.7089C410.871 26.0667 411.049 26.3943 411.322 26.6313C411.594 26.8683 411.944 26.9988 412.305 26.9989H412.695C413.056 26.9988 413.406 26.8683 413.678 26.6313C413.951 26.3943 414.129 26.0667 414.18 25.7089L415.29 18.0139C415.359 18.0009 415.43 17.9959 415.5 17.9989H420.435L421.32 24.2089C421.371 24.5667 421.549 24.8943 421.822 25.1313C422.094 25.3683 422.444 25.4988 422.805 25.4989H423.195C423.556 25.4988 423.906 25.3683 424.178 25.1313C424.451 24.8943 424.629 24.5667 424.68 24.2089L425.565 17.9989H430.5C430.57 17.9959 430.641 18.0009 430.71 18.0139V18.0139Z" fill="#C49A6C"/>
<path d="M423 51C418.253 51 413.613 49.5924 409.666 46.9553C405.719 44.3181 402.643 40.5698 400.827 36.1844C399.01 31.799 398.535 26.9734 399.461 22.3178C400.387 17.6623 402.673 13.3859 406.029 10.0294C409.386 6.67299 413.662 4.38721 418.318 3.46116C422.973 2.53512 427.799 3.0104 432.184 4.8269C436.57 6.64341 440.318 9.71955 442.955 13.6663C445.592 17.6131 447 22.2533 447 27C446.992 33.3629 444.461 39.463 439.962 43.9622C435.463 48.4615 429.363 50.9925 423 51V51ZM423 6.00001C418.847 6.00001 414.786 7.23164 411.333 9.53915C407.88 11.8467 405.188 15.1264 403.598 18.9637C402.009 22.8009 401.593 27.0233 402.403 31.0969C403.214 35.1705 405.214 38.9124 408.151 41.8493C411.088 44.7862 414.829 46.7862 418.903 47.5965C422.977 48.4068 427.199 47.9909 431.036 46.4015C434.874 44.812 438.153 42.1204 440.461 38.667C442.768 35.2136 444 31.1534 444 27C443.994 21.4323 441.78 16.0943 437.843 12.1573C433.906 8.22037 428.568 6.00597 423 6.00001V6.00001Z" fill="#FFA733"/>
<path d="M417 91.5H414V70.5C414 70.1022 413.842 69.7206 413.561 69.4393C413.279 69.158 412.898 69 412.5 69H403.5C403.102 69 402.721 69.158 402.439 69.4393C402.158 69.7206 402 70.1022 402 70.5V91.5H399V70.5C399 69.3065 399.474 68.1619 400.318 67.318C401.162 66.4741 402.307 66 403.5 66H412.5C413.693 66 414.838 66.4741 415.682 67.318C416.526 68.1619 417 69.3065 417 70.5V91.5Z" fill="#009986"/>
<path d="M444 81H426C425.204 81 424.441 80.6839 423.879 80.1213C423.316 79.5587 423 78.7956 423 78V69C423 68.2044 423.316 67.4413 423.879 66.8787C424.441 66.3161 425.204 66 426 66H444C444.796 66 445.559 66.3161 446.121 66.8787C446.684 67.4413 447 68.2044 447 69V78C447 78.7956 446.684 79.5587 446.121 80.1213C445.559 80.6839 444.796 81 444 81ZM426 69V78H444V69H426Z" fill="#009986"/>
<path d="M381 90H465V93H381V90Z" fill="#009986"/>
<path d="M409.5 76.5H412.5V82.5H409.5V76.5Z" fill="#009986"/>
<rect x="740" y="17" width="58" height="76" rx="5" fill="#D9E4EF"/>
<rect x="803.824" y="43.2793" width="7.02802" height="21.8295" transform="rotate(29.7246 803.824 43.2793)" fill="#00CCB3"/>
<rect x="810.824" y="33" width="4.17851" height="4.02705" transform="rotate(29.7246 810.824 33)" fill="#00CCB3"/>
<rect x="807.997" y="37" width="7.18921" height="6.96143" transform="rotate(29.7246 807.997 37)" fill="#D9E4EF"/>
<rect x="807.997" y="37" width="7.18921" height="6.96143" transform="rotate(29.7246 807.997 37)" fill="#009986"/>
<rect x="793.229" y="64.3457" width="5.7375" height="6.51127" transform="rotate(29.7246 793.229 64.3457)" fill="#D9E4EF"/>
<rect x="793.229" y="64.3457" width="5.7375" height="6.51127" transform="rotate(29.7246 793.229 64.3457)" fill="#009986"/>
<rect x="789.635" y="71" width="4.48832" height="3.29644" transform="rotate(29.7246 789.635 71)" fill="#D9E4EF"/>
<rect x="789.635" y="71" width="4.48832" height="3.29644" transform="rotate(29.7246 789.635 71)" fill="#00CCB3"/>
<circle cx="755.5" cy="76.5" r="10.5" fill="#EFF6FE"/>
<path d="M815.86 35.0103C815.598 34.0375 814.96 33.2083 814.087 32.7055C813.213 32.2003 812.174 32.0637 811.2 32.3252C810.226 32.5874 809.397 33.225 808.894 34.0982L808.261 35.2001C807.659 34.8544 806.891 35.0579 806.539 35.6565L803.322 41.1397L802.22 40.5065C801.928 40.3376 801.581 40.2919 801.255 40.3797C800.929 40.4681 800.652 40.6821 800.485 40.9752C800.142 41.5806 800.351 42.3499 800.954 42.6974L802.055 43.3306L791.291 61.9854L788.631 69.0907L787.365 71.4584C786.623 72.7484 786.702 74.3519 787.567 75.562L784.718 79.0572L783.92 77.0567C783.56 76.165 782.727 75.554 781.769 75.4792C780.811 75.4037 779.893 75.8774 779.399 76.7017L778.943 77.4741L778.512 72.4083C778.413 71.2099 777.485 70.2464 776.292 70.1017C775.098 69.9576 773.967 70.6731 773.586 71.8134L770.47 81.1597C770.253 81.8207 770.609 82.5331 771.268 82.7557C771.392 82.8132 771.525 82.8478 771.661 82.8565C772.205 82.8584 772.69 82.5114 772.864 81.9957L775.966 72.6495L776.41 77.7907C776.501 78.8877 777.29 79.7998 778.362 80.0484C779.434 80.297 780.544 79.8246 781.108 78.8803L781.577 78.1073L782.362 80.096C782.696 80.9339 783.45 81.5319 784.342 81.6649C785.234 81.7978 786.13 81.446 786.694 80.7416L789.645 77.006C789.971 77.0913 790.307 77.134 790.645 77.1327C792.002 77.1433 793.263 76.4284 793.95 75.2578L795.217 73.1429L800.042 67.2794L810.921 48.3964L812.023 49.0297C812.316 49.1979 812.53 49.4755 812.617 49.8026C812.705 50.1273 812.66 50.4736 812.491 50.7648L807.426 59.5416C807.234 59.8297 807.17 60.1834 807.246 60.5211C807.323 60.8581 807.534 61.1494 807.831 61.3268C808.122 61.4963 808.47 61.542 808.795 61.4542C809.121 61.3658 809.398 61.1518 809.566 60.8587L814.632 52.082C815.137 51.2082 815.273 50.1693 815.011 49.1948C814.749 48.2214 814.112 47.3922 813.238 46.8894L812.136 46.2562L815.303 40.7724C815.648 40.1707 815.445 39.4027 814.847 39.0502L815.48 37.9482C815.999 37.0608 816.136 36.0009 815.86 35.0103ZM811.085 35.3646C811.253 35.0715 811.531 34.8569 811.858 34.7697C812.183 34.6893 812.527 34.7345 812.82 34.8965C813.114 35.0641 813.328 35.3423 813.416 35.6688C813.496 35.9941 813.451 36.3379 813.289 36.6311L812.656 37.733L810.452 36.4666L811.085 35.3646ZM793.824 70.7244L791.316 69.2675L793.114 64.4552L797.103 66.76L793.824 70.7244ZM790.024 74.384C789.489 74.0111 789.325 73.2938 789.645 72.7249L790.278 71.6236L792.481 72.89L791.848 73.979C791.67 74.2869 791.372 74.5058 791.025 74.5831C790.678 74.6598 790.315 74.5881 790.024 74.384ZM798.547 64.6834L794.166 62.1505L804.297 44.5971L808.679 47.13L798.547 64.6834ZM809.945 44.939L805.564 42.4061L808.096 38.0243L812.478 40.5572L809.945 44.939Z" fill="#009986"/>
<path d="M785.592 27.1306C786.291 27.1306 786.858 26.5641 786.858 25.8641C786.858 25.1647 786.291 24.5977 785.592 24.5977H752.664C751.965 24.5977 751.398 25.1647 751.398 25.8641V30.9299C751.398 31.6299 751.965 32.1964 752.664 32.1964H785.592C786.291 32.1964 786.858 31.6299 786.858 30.9299C786.858 30.2305 786.291 29.6635 785.592 29.6635H753.931V27.1306H785.592Z" fill="#C4CFDA"/>
<path d="M756.463 34.7298C755.764 34.7298 755.197 35.2968 755.197 35.9962C755.197 36.6962 755.764 37.2627 756.463 37.2627H781.792C782.492 37.2627 783.059 36.6962 783.059 35.9962C783.059 35.2968 782.492 34.7298 781.792 34.7298H756.463Z" fill="#C4CFDA"/>
<path d="M789.391 43.5951H775.46H761.53C760.83 43.5951 760.263 44.1621 760.263 44.8615C760.263 45.5615 760.83 46.128 761.53 46.128H789.391C790.091 46.128 790.658 45.5615 790.658 44.8615C790.658 44.1621 790.091 43.5951 789.391 43.5951Z" fill="#C4CFDA"/>
<path d="M776.727 52.46C776.727 51.7606 776.16 51.1936 775.461 51.1936H750.132C749.432 51.1936 748.865 51.7606 748.865 52.46C748.865 53.16 749.432 53.7265 750.132 53.7265H775.461C776.16 53.7265 776.727 53.16 776.727 52.46Z" fill="#C4CFDA"/>
<path d="M789.392 51.1936H780.527C779.828 51.1936 779.261 51.7606 779.261 52.46C779.261 53.16 779.828 53.7265 780.527 53.7265H789.392C790.091 53.7265 790.659 53.16 790.659 52.46C790.659 51.7606 790.091 51.1936 789.392 51.1936Z" fill="#C4CFDA"/>
<path d="M762.796 60.0581C763.496 60.0581 764.063 59.4917 764.063 58.7916C764.063 58.0923 763.496 57.5252 762.796 57.5252H750.132C749.432 57.5252 748.865 58.0923 748.865 58.7916C748.865 59.4917 749.432 60.0581 750.132 60.0581H762.796Z" fill="#C4CFDA"/>
<path d="M767.862 60.0581H776.728C777.427 60.0581 777.994 59.4917 777.994 58.7916C777.994 58.0923 777.427 57.5252 776.728 57.5252H767.862C767.163 57.5252 766.596 58.0923 766.596 58.7916C766.596 59.4917 767.163 60.0581 767.862 60.0581Z" fill="#C4CFDA"/>
<path d="M759.918 73.3572L755.436 77.8281L752.751 75.1431C752.257 74.6521 751.459 74.6521 750.965 75.1431C750.725 75.3812 750.59 75.7046 750.59 76.0423C750.59 76.3799 750.725 76.7039 750.965 76.9414L753.65 79.6264C754.125 80.0976 754.767 80.3617 755.436 80.3611C756.109 80.3648 756.756 80.1007 757.234 79.6264L761.704 75.1431C762.135 74.6404 762.106 73.8915 761.638 73.424C761.17 72.9559 760.421 72.9268 759.918 73.3572Z" fill="#009986"/>
<rect x="861" y="54" width="179" height="4" rx="2" fill="#E6E1E5"/>
<rect x="589" y="54" width="135" height="4" rx="2" fill="#E6E1E5"/>
<rect x="124" y="54" width="252" height="4" rx="2" fill="#FFA626"/>
<rect x="458" y="54" width="266" height="4" rx="2" fill="#FFA626"/>
<rect x="861" y="54" width="179" height="4" rx="2" fill="#FFA626"/>
<circle cx="1036" cy="56" r="4" fill="#FFA626"/>
<rect x="1088" y="82" width="15" height="20" rx="5" fill="#00CCB3"/>
<rect x="1060" y="7" width="96" height="42" rx="10" fill="#D9E4EF"/>
<rect x="1062" y="82" width="15" height="20" rx="5" fill="#00CCB3"/>
<rect x="1113" y="82" width="15" height="20" rx="5" fill="#00CCB3"/>
<rect x="1139" y="82" width="15" height="20" rx="5" fill="#00CCB3"/>
<path d="M1111.07 20.3948C1109.98 17.7618 1106.95 16.5154 1104.32 17.6108C1104.28 17.6296 1104.23 17.6488 1104.19 17.6688L1091.21 24.3988C1091.73 23.3384 1091.99 22.1772 1092 21C1092 16.5818 1088.42 13 1084 13C1079.58 13 1076 16.5818 1076 21C1076.01 22.7366 1076.58 24.4232 1077.64 25.8H1077.57C1073.03 25.8304 1068.98 28.6538 1067.38 32.9032L1063.1 47.625C1062.09 50.2662 1063.4 53.2318 1066.05 54.2486C1067.25 54.7122 1068.58 54.7044 1069.78 54.2266C1071.16 53.6716 1072.23 52.5508 1072.73 51.15L1074.4 45.825V68.9816C1073.02 67.9234 1071.34 67.3468 1069.6 67.3406C1065.19 67.334 1061.61 70.905 1061.6 75.3168C1061.6 77.4774 1062.47 79.547 1064.02 81.0538C1061.56 82.3094 1060.01 84.8326 1060 87.5922V101C1060 101.883 1060.72 102.6 1061.6 102.6H1077.6C1078.48 102.6 1079.2 101.884 1079.2 101.001V87.5922C1079.19 85.3244 1078.14 83.1872 1076.34 81.8H1088.46C1086.66 83.1872 1085.61 85.3244 1085.6 87.5922V101C1085.6 101.883 1086.32 102.6 1087.2 102.6H1103.2C1104.08 102.6 1104.8 101.884 1104.8 101.001V87.5922C1104.79 84.8326 1103.24 82.3094 1100.78 81.0538C1103.94 77.9704 1104 72.9098 1100.92 69.7508C1099.02 67.8054 1096.26 66.9584 1093.6 67.5024V34.7718L1108.29 27.1452C1110.92 26.05 1112.17 23.0276 1111.07 20.3948ZM1084 16.2C1086.65 16.2 1088.8 18.349 1088.8 21C1088.8 23.651 1086.65 25.8 1084 25.8C1081.35 25.7972 1079.2 23.6498 1079.2 21C1079.2 18.349 1081.35 16.2 1084 16.2ZM1069.6 70.5406C1072.25 70.5406 1074.4 72.6896 1074.4 75.3406C1074.4 77.9916 1072.25 80.1406 1069.6 80.1406C1066.95 80.1406 1064.8 77.9916 1064.8 75.3406C1064.8 72.6908 1066.95 70.5436 1069.6 70.5406ZM1076 99.4H1063.2V87.5922C1063.2 85.278 1065.08 83.4028 1067.39 83.4H1071.81C1074.12 83.4028 1076 85.278 1076 87.5922V99.4ZM1101.6 87.5922V99.4H1088.8V87.5922C1088.8 85.278 1090.68 83.4028 1092.99 83.4H1097.41C1099.72 83.4028 1101.6 85.278 1101.6 87.5922ZM1095.2 70.5406C1097.85 70.5434 1100 72.6908 1100 75.3406C1100 77.9916 1097.85 80.1406 1095.2 80.1406C1092.55 80.1406 1090.4 77.9916 1090.4 75.3406C1090.4 72.6896 1092.55 70.5406 1095.2 70.5406ZM1108.14 23.064C1107.93 23.6136 1107.49 24.045 1106.94 24.2484L1091.26 32.3796C1090.73 32.6548 1090.4 33.2026 1090.4 33.8V68.9816C1087.4 71.1976 1086.36 75.2082 1087.91 78.6H1085.6V51.4H1082.4V78.6H1076.89C1077.34 77.594 1077.58 76.504 1077.59 75.4H1077.6V35.4C1077.6 34.5162 1076.88 33.8 1076 33.8002C1075.3 33.8004 1074.68 34.2538 1074.47 34.9204L1069.7 50.1234C1069.33 51.1218 1068.23 51.6378 1067.23 51.2756C1067.16 51.2502 1067.09 51.2208 1067.03 51.1874C1066.1 50.7104 1065.71 49.5968 1066.13 48.6468L1070.4 33.925C1071.56 30.967 1074.4 29.0138 1077.57 29H1088.9C1089.16 29.0004 1089.41 28.9386 1089.64 28.8204L1105.54 20.5658C1106.5 20.1678 1107.6 20.575 1108.06 21.4986C1108.31 21.9854 1108.34 22.5534 1108.14 23.064Z" fill="#00CCB3"/>
<path d="M1126.38 81.0532C1129.55 77.97 1129.61 72.905 1126.53 69.7404C1123.45 66.5758 1118.38 66.5098 1115.22 69.593C1112.05 72.6762 1111.99 77.7412 1115.07 80.9058C1115.12 80.9556 1115.17 81.0048 1115.22 81.0532C1112.76 82.3088 1111.21 84.832 1111.2 87.5917V100.999C1111.2 101.883 1111.92 102.599 1112.8 102.599H1128.8C1129.68 102.6 1130.4 101.884 1130.4 101V87.5917C1130.39 84.832 1128.84 82.3088 1126.38 81.0532ZM1120.8 70.54C1123.45 70.54 1125.6 72.689 1125.6 75.34C1125.6 77.991 1123.45 80.14 1120.8 80.14C1118.15 80.14 1116 77.991 1116 75.34C1116 72.6902 1118.15 70.543 1120.8 70.54ZM1127.2 99.3995H1114.4V87.5917C1114.4 85.2775 1116.28 83.4022 1118.59 83.3994H1123.01C1125.32 83.4022 1127.2 85.2775 1127.2 87.5917V99.3995Z" fill="#00CCB3"/>
<path d="M1151.98 81.0532C1155.15 77.97 1155.21 72.905 1152.13 69.7404C1149.05 66.5758 1143.98 66.5098 1140.82 69.593C1137.65 72.6762 1137.59 77.7412 1140.67 80.9058C1140.72 80.9556 1140.77 81.0048 1140.82 81.0532C1138.36 82.3088 1136.81 84.832 1136.8 87.5917V100.999C1136.8 101.883 1137.52 102.599 1138.4 102.599H1154.4C1155.28 102.6 1156 101.884 1156 101V87.5917C1155.99 84.832 1154.44 82.3088 1151.98 81.0532ZM1146.4 70.54C1149.05 70.54 1151.2 72.689 1151.2 75.34C1151.2 77.991 1149.05 80.14 1146.4 80.14C1143.75 80.14 1141.6 77.991 1141.6 75.34C1141.6 72.6902 1143.75 70.543 1146.4 70.54ZM1152.8 99.3995H1140V87.5917C1140 85.2775 1141.88 83.4022 1144.19 83.3994H1148.61C1150.92 83.4022 1152.8 85.2775 1152.8 87.5917V99.3995Z" fill="#00CCB3"/>
<rect x="1075" y="53" width="18" height="28" fill="#009986"/>
<path d="M1078 75.5002C1078 80.1945 1074.19 84 1069.5 84C1064.81 84 1061 80.1945 1061 75.5002C1061 70.8055 1064.81 67 1069.5 67C1074.19 67 1078 70.8055 1078 75.5002Z" fill="#FFCFBE"/>
<path d="M1078 75.5005C1078 80.1949 1074.42 84 1070 84V67C1074.42 67 1078 70.8061 1078 75.5005Z" fill="#F9BCAA"/>
<path d="M1129 75.5002C1129 80.1945 1125.19 84 1120.5 84C1115.81 84 1112 80.1945 1112 75.5002C1112 70.8055 1115.81 67 1120.5 67C1125.19 67 1129 70.8055 1129 75.5002Z" fill="#FFCFBE"/>
<path d="M1129 75.5005C1129 80.1949 1125.42 84 1121 84V67C1125.42 67 1129 70.8061 1129 75.5005Z" fill="#F9BCAA"/>
<path d="M1155 75.5002C1155 80.1945 1151.19 84 1146.5 84C1141.81 84 1138 80.1945 1138 75.5002C1138 70.8055 1141.81 67 1146.5 67C1151.19 67 1155 70.8055 1155 75.5002Z" fill="#FFCFBE"/>
<rect x="1061.35" y="53.6914" width="23.4919" height="10.9092" rx="5.45459" transform="rotate(-75 1061.35 53.6914)" fill="#FFCFBE"/>
<rect x="1061.35" y="53.6914" width="23.4919" height="10.9092" rx="5.45459" transform="rotate(-75 1061.35 53.6914)" fill="#FFCFBE"/>
<path d="M1155 75.5005C1155 80.1949 1151.42 84 1147 84V67C1151.42 67 1155 70.8061 1155 75.5005Z" fill="#F9BCAA"/>
<path d="M1075.5 52.5V80.5H1084M1092.5 52.5V80.5H1084M1084 55V80.5" stroke="#008F7B" stroke-width="3"/>
<path d="M1073.55 28.4767C1073.52 26.8288 1074.83 25.4669 1076.48 25.4268L1090.93 25.0748C1092.61 25.0338 1094 26.3885 1094 28.074V51.9996C1094 53.6564 1092.66 54.9996 1091 54.9996H1076.95C1075.31 54.9996 1073.98 53.6872 1073.95 52.0504L1073.55 28.4767Z" fill="#00CCB3"/>
<path d="M1091.42 29.4883C1090.08 26.6309 1091.32 23.2317 1094.17 21.8961L1103.75 17.419C1106.61 16.0833 1110.01 17.317 1111.34 20.1745V20.1745C1112.68 23.0319 1111.45 26.431 1108.59 27.7667L1099.01 32.2438C1096.15 33.5794 1092.75 32.3457 1091.42 29.4883V29.4883Z" fill="#FFCFBE"/>
<path d="M1091.42 29.4883C1090.08 26.6309 1091.32 23.2317 1094.17 21.8961L1103.75 17.419C1106.61 16.0833 1110.01 17.317 1111.34 20.1745V20.1745C1112.68 23.0319 1111.45 26.431 1108.59 27.7667L1099.01 32.2438C1096.15 33.5794 1092.75 32.3457 1091.42 29.4883V29.4883Z" fill="#FFCFBE"/>
<path d="M1144.8 15H1112.8V18.2H1144.8V15Z" fill="#C4CFDA"/>
<path d="M1149.6 24.6H1117.6V27.8H1149.6V24.6Z" fill="#C4CFDA"/>
<path d="M1143.2 34.2H1111.2V37.4H1143.2V34.2Z" fill="#C4CFDA"/>
<path d="M1099.5 19.5L1089.38 24.5L1092.25 33.5665C1092.5 34.3385 1093.28 34.778 1094.01 34.5484L1095.66 34.0256C1100.28 32.5668 1101.05 24.4061 1099.5 19.5Z" fill="#009986"/>
<path d="M1093 20.0002C1093 24.9706 1088.97 29 1084 29C1079.03 29 1075 24.9706 1075 20.0002C1075 15.0294 1079.03 11 1084 11C1088.97 11 1093 15.0294 1093 20.0002Z" fill="#FFCFBE"/>
<path d="M1093 20.0005C1093 24.971 1088.97 29 1084 29V11C1088.97 11 1093 15.03 1093 20.0005Z" fill="#F9BCAA"/>
<path d="M1066.5 34.5C1066.5 34.5 1068 27.5008 1075 26C1079.32 25.0747 1074.89 37.8006 1074.89 37.8006C1074.89 38.6103 1074.27 39.2656 1073.51 39.2646L1071.78 39.2622C1068 37.4991 1066.5 36.0007 1066.5 34.5Z" fill="#009986"/>
<path d="M1078 75.5002C1078 80.1945 1074.19 84 1069.5 84C1064.81 84 1061 80.1945 1061 75.5002C1061 70.8055 1064.81 67 1069.5 67C1074.19 67 1078 70.8055 1078 75.5002Z" fill="#FFCFBE"/>
<path d="M1078 75.5005C1078 80.1949 1074.42 84 1070 84V67C1074.42 67 1078 70.8061 1078 75.5005Z" fill="#F9BCAA"/>
<path d="M1104 75.5002C1104 80.1945 1100.19 84 1095.5 84C1090.81 84 1087 80.1945 1087 75.5002C1087 70.8055 1090.81 67 1095.5 67C1100.19 67 1104 70.8055 1104 75.5002Z" fill="#FFCFBE"/>
<path d="M1104 75.5005C1104 80.1949 1100.42 84 1096 84V67C1100.42 67 1104 70.8061 1104 75.5005Z" fill="#F9BCAA"/>
</svg>
