<svg width="96" height="96" viewBox="0 0 96 96" fill="none" xmlns="http://www.w3.org/2000/svg">
<path d="M84.1484 0H47.9983C41.4534 0 36.1484 5.29541 36.1484 11.8499V66.0747C36.1484 68.3752 38.7866 69.7207 40.6484 68.3247L51.9482 59.8499H84.1484C90.6934 59.8499 95.9983 54.5544 95.9983 48V11.8499C95.9983 5.30493 90.7029 0 84.1484 0V0Z" fill="#EFF6FE"/>
<path d="M84.1501 0H66.0747V59.8499H84.1501C90.6958 59.8499 96 54.5552 96 48V11.8499C96 5.3042 90.7053 0 84.1501 0Z" fill="#D9E4EF"/>
<path d="M68.8872 43.481C68.8872 45.0344 67.6282 46.2935 66.0747 46.2935C64.522 46.2935 63.2622 45.0344 63.2622 43.481C63.2622 41.9282 64.522 40.6685 66.0747 40.6685C67.6282 40.6685 68.8872 41.9282 68.8872 43.481Z" fill="#00D66A"/>
<path d="M66.0718 13.5564C60.3625 13.5564 55.7314 18.1765 55.7314 23.8967V23.9004C55.7314 25.4531 56.9905 26.7114 58.5439 26.7114C60.0974 26.7114 61.3564 25.4502 61.3564 23.8967C61.3564 21.2966 63.4592 19.1814 66.0754 19.1814C68.677 19.1814 70.7937 21.2981 70.7937 23.9004C70.7937 26.502 68.677 28.6187 66.0754 28.6187C64.522 28.6187 63.2629 29.8784 63.2629 31.4312V34.4436C63.2629 35.9971 64.522 37.2561 66.0754 37.2561C67.6282 37.2561 68.8879 35.9971 68.8879 34.4436V33.8555C73.229 32.6272 76.4187 28.6289 76.4187 23.9004C76.4187 18.1963 71.7788 13.5564 66.0718 13.5564Z" fill="#00D66A"/>
<path d="M68.8872 43.481C68.8872 45.0337 67.6274 46.2935 66.0747 46.2935V40.6685C67.6274 40.6685 68.8872 41.929 68.8872 43.481Z" fill="#00B85E"/>
<path d="M76.4194 23.9004C76.4194 28.6296 73.2283 32.6272 68.8872 33.8547V34.4436C68.8872 35.9963 67.6274 37.2561 66.0747 37.2561V28.6179C68.6777 28.6179 70.7944 26.5012 70.7944 23.9004C70.7944 21.2981 68.6777 19.1814 66.0747 19.1814V13.5564C71.7803 13.5579 76.4194 18.1985 76.4194 23.9004Z" fill="#00B85E"/>
<path d="M31.168 58.4812C31.168 65.8237 25.2156 71.7761 17.873 71.7761C10.5305 71.7761 4.57812 65.8237 4.57812 58.4812C4.57812 51.1379 10.5305 45.1855 17.873 45.1855C25.2156 45.1855 31.168 51.1379 31.168 58.4812Z" fill="#FFCFBE"/>
<path d="M31.1697 58.481C31.1697 65.8235 25.2166 71.7751 17.874 71.7751V45.1853C25.2166 45.1853 31.1697 51.1384 31.1697 58.481Z" fill="#F9BCAA"/>
<path d="M17.8748 71.7759C8.00317 71.7759 0 79.7791 0 89.6506V93.1875C0 94.741 1.25903 96 2.8125 96H32.9377C34.4905 96 35.7502 94.741 35.7502 93.1875V89.6506C35.7502 79.7791 27.7471 71.7759 17.8748 71.7759Z" fill="#FFCC4B"/>
<path d="M17.8748 71.7759C17.8748 71.7759 17.8748 71.7759 17.874 71.7759V96H32.937C34.4905 96 35.7495 94.741 35.7495 93.1875V89.6506C35.7502 79.7791 27.7471 71.7759 17.8748 71.7759Z" fill="#FFB826"/>
</svg>
