<svg width="1205" height="99" viewBox="0 0 1205 99" fill="none" xmlns="http://www.w3.org/2000/svg">
<path d="M84.1484 3H47.9983C41.4534 3 36.1484 8.29541 36.1484 14.8499V69.0747C36.1484 71.3752 38.7866 72.7207 40.6484 71.3247L51.9482 62.8499H84.1484C90.6934 62.8499 95.9983 57.5544 95.9983 51V14.8499C95.9983 8.30493 90.7029 3 84.1484 3V3Z" fill="#EFF6FE"/>
<path d="M84.1501 3H66.0747V62.8499H84.1501C90.6958 62.8499 96 57.5552 96 51V14.8499C96 8.3042 90.7053 3 84.1501 3V3Z" fill="#D9E4EF"/>
<path d="M68.8872 46.4805C68.8872 48.0339 67.6282 49.293 66.0747 49.293C64.522 49.293 63.2622 48.0339 63.2622 46.4805C63.2622 44.9277 64.522 43.668 66.0747 43.668C67.6282 43.668 68.8872 44.9277 68.8872 46.4805Z" fill="#00D66A"/>
<path d="M66.0718 16.5566C60.3625 16.5566 55.7314 21.1768 55.7314 26.897V26.9006C55.7314 28.4534 56.9905 29.7117 58.5439 29.7117C60.0974 29.7117 61.3564 28.4504 61.3564 26.897C61.3564 24.2969 63.4592 22.1816 66.0754 22.1816C68.677 22.1816 70.7937 24.2983 70.7937 26.9006C70.7937 29.5022 68.677 31.6189 66.0754 31.6189C64.522 31.6189 63.2629 32.8787 63.2629 34.4314V37.4438C63.2629 38.9973 64.522 40.2563 66.0754 40.2563C67.6282 40.2563 68.8879 38.9973 68.8879 37.4438V36.8557C73.229 35.6274 76.4187 31.6292 76.4187 26.9006C76.4187 21.1965 71.7788 16.5566 66.0718 16.5566V16.5566Z" fill="#00D66A"/>
<path d="M68.8872 46.4805C68.8872 48.0332 67.6274 49.293 66.0747 49.293V43.668C67.6274 43.668 68.8872 44.9285 68.8872 46.4805Z" fill="#00B85E"/>
<path d="M76.4194 26.9006C76.4194 31.6299 73.2283 35.6274 68.8872 36.855V37.4438C68.8872 38.9966 67.6274 40.2563 66.0747 40.2563V31.6182C68.6777 31.6182 70.7944 29.5015 70.7944 26.9006C70.7944 24.2983 68.6777 22.1816 66.0747 22.1816V16.5566C71.7803 16.5581 76.4194 21.1987 76.4194 26.9006Z" fill="#00B85E"/>
<path d="M31.168 61.4812C31.168 68.8237 25.2156 74.7761 17.873 74.7761C10.5305 74.7761 4.57812 68.8237 4.57812 61.4812C4.57812 54.1379 10.5305 48.1855 17.873 48.1855C25.2156 48.1855 31.168 54.1379 31.168 61.4812Z" fill="#FFCFBE"/>
<path d="M31.1697 61.4812C31.1697 68.8237 25.2166 74.7754 17.874 74.7754V48.1855C25.2166 48.1855 31.1697 54.1387 31.1697 61.4812V61.4812Z" fill="#F9BCAA"/>
<path d="M17.8748 74.7754C8.00317 74.7754 0 82.7786 0 92.6501V96.187C0 97.7405 1.25903 98.9995 2.8125 98.9995H32.9377C34.4905 98.9995 35.7502 97.7405 35.7502 96.187V92.6501C35.7502 82.7786 27.7471 74.7754 17.8748 74.7754V74.7754Z" fill="#FFCC4B"/>
<path d="M17.8748 74.7754C17.8748 74.7754 17.8748 74.7754 17.874 74.7754V98.9995H32.937C34.4905 98.9995 35.7495 97.7405 35.7495 96.187V92.6501C35.7502 82.7786 27.7471 74.7754 17.8748 74.7754V74.7754Z" fill="#FFB826"/>
<path d="M462.002 55.5H459.002C459.003 56.8299 458.561 58.1224 457.747 59.1735C456.932 60.2246 455.79 60.9745 454.502 61.305C454.013 61.4389 453.509 61.5046 453.002 61.5C451.411 61.5 449.885 60.8678 448.759 59.7426C447.634 58.6174 447.002 57.0913 447.002 55.5V49.5C447.009 46.0442 446.153 42.6412 444.512 39.6C444.302 39.21 444.077 38.82 443.852 38.445C441.991 35.4602 439.414 32.9881 436.354 31.2538C433.294 29.5194 429.849 28.5779 426.332 28.515C426.336 28.515 426.34 28.5134 426.343 28.5106C426.345 28.5078 426.347 28.504 426.347 28.5H435.002C438.548 28.4986 442.06 29.1961 445.336 30.5524C448.613 31.9088 451.59 33.8976 454.097 36.405C456.604 38.9125 458.593 41.8895 459.95 45.1659C461.306 48.4423 462.003 51.9539 462.002 55.5V55.5Z" fill="#3D9AE2"/>
<path d="M419.67 28.515C416.153 28.5779 412.708 29.5194 409.648 31.2538C406.588 32.9881 404.011 35.4602 402.15 38.445C401.925 38.82 401.7 39.21 401.49 39.6C399.849 42.6412 398.993 46.0442 399 49.5V55.5C399 57.0913 398.368 58.6174 397.243 59.7426C396.117 60.8679 394.591 61.5 393 61.5C392.493 61.5046 391.989 61.439 391.5 61.305C390.212 60.9745 389.07 60.2246 388.255 59.1735C387.441 58.1224 386.999 56.8299 387 55.5H384C384.006 48.341 386.853 41.4769 391.915 36.4147C396.977 31.3525 403.841 28.506 411 28.5H419.655C419.655 28.504 419.657 28.5078 419.659 28.5106C419.662 28.5134 419.666 28.515 419.67 28.515V28.515Z" fill="#FF6243"/>
<path d="M454.5 61.305V91.5C454.498 92.2949 454.181 93.0566 453.619 93.6187C453.057 94.1808 452.295 94.4976 451.5 94.5H394.5C393.705 94.4976 392.943 94.1808 392.381 93.6187C391.819 93.0566 391.502 92.2949 391.5 91.5V61.305C391.989 61.439 392.493 61.5046 393 61.5C394.591 61.5 396.117 60.8679 397.243 59.7426C398.368 58.6174 399 57.0913 399 55.5C399 57.0913 399.632 58.6174 400.757 59.7426C401.883 60.8679 403.409 61.5 405 61.5C406.591 61.5 408.117 60.8679 409.243 59.7426C410.368 58.6174 411 57.0913 411 55.5C411 57.0913 411.632 58.6174 412.757 59.7426C413.883 60.8679 415.409 61.5 417 61.5C418.591 61.5 420.117 60.8679 421.243 59.7426C422.368 58.6174 423 57.0913 423 55.5C423 57.0913 423.632 58.6174 424.757 59.7426C425.883 60.8679 427.409 61.5 429 61.5C430.591 61.5 432.117 60.8679 433.243 59.7426C434.368 58.6174 435 57.0913 435 55.5C435 57.0913 435.632 58.6174 436.757 59.7426C437.883 60.8679 439.409 61.5 441 61.5C442.591 61.5 444.117 60.8679 445.243 59.7426C446.368 58.6174 447 57.0913 447 55.5C447 57.0913 447.632 58.6174 448.757 59.7426C449.883 60.8679 451.409 61.5 453 61.5C453.507 61.5046 454.011 61.439 454.5 61.305V61.305Z" fill="#00CCB3"/>
<path d="M415.5 73.5V94.5H400.5V73.5C400.502 72.7051 400.819 71.9434 401.381 71.3813C401.943 70.8192 402.705 70.5024 403.5 70.5H412.5C413.295 70.5024 414.057 70.8192 414.619 71.3813C415.181 71.9434 415.498 72.7051 415.5 73.5V73.5Z" fill="#96C8EF"/>
<path d="M444 70.5H426C425.172 70.5 424.5 71.1716 424.5 72V81C424.5 81.8284 425.172 82.5 426 82.5H444C444.828 82.5 445.5 81.8284 445.5 81V72C445.5 71.1716 444.828 70.5 444 70.5Z" fill="#96C8EF"/>
<path d="M435 40.5V55.5C435 57.0913 434.368 58.6174 433.243 59.7426C432.117 60.8679 430.591 61.5 429 61.5C427.409 61.5 425.883 60.8679 424.757 59.7426C423.632 58.6174 423 57.0913 423 55.5V28.5C424.002 28.5017 424.999 28.6277 425.97 28.875C428.304 29.4703 430.405 30.7544 432 32.5603C433.594 34.3661 434.608 36.61 434.91 39C434.97 39.4977 435 39.9986 435 40.5Z" fill="#3D9AE2"/>
<path d="M423 28.5006C420.076 28.497 417.251 29.5624 415.057 31.4963C412.864 33.4301 411.453 36.099 411.09 39.0006C411.029 39.4983 410.999 39.9993 411 40.5006V55.5006C411 57.0919 410.368 58.6181 409.242 59.7433C408.117 60.8685 406.591 61.5006 405 61.5006C403.409 61.5006 401.882 60.8685 400.757 59.7433C399.632 58.6181 399 57.0919 399 55.5006V49.5006C398.993 46.0448 399.848 42.6418 401.49 39.6006C401.7 39.2106 401.925 38.8206 402.15 38.4456C404.01 35.4608 406.588 32.9887 409.648 31.2544C412.708 29.52 416.153 28.5786 419.67 28.5156C419.779 28.5031 419.89 28.4981 420 28.5006H423Z" fill="#3D9AE2"/>
<path d="M447 49.5006V55.5006C447 57.0919 446.368 58.6181 445.243 59.7433C444.117 60.8685 442.591 61.5006 441 61.5006C439.409 61.5006 437.883 60.8685 436.757 59.7433C435.632 58.6181 435 57.0919 435 55.5006V40.5006C435 39.9993 434.97 39.4983 434.91 39.0006C434.608 36.6106 433.594 34.3667 432 32.5609C430.405 30.7551 428.304 29.471 425.97 28.8756C424.999 28.6283 424.002 28.5023 423 28.5006H426C426.11 28.4981 426.22 28.5031 426.33 28.5156C429.847 28.5786 433.292 29.52 436.352 31.2544C439.412 32.9887 441.989 35.4608 443.85 38.4456C444.075 38.8206 444.3 39.2106 444.51 39.6006C446.151 42.6418 447.007 46.0448 447 49.5006V49.5006Z" fill="#FF6243"/>
<path d="M423 28.5V55.5C423 57.0913 422.368 58.6174 421.243 59.7426C420.117 60.8679 418.591 61.5 417 61.5C415.409 61.5 413.883 60.8679 412.757 59.7426C411.632 58.6174 411 57.0913 411 55.5V40.5C411 39.9986 411.03 39.4977 411.09 39C411.458 36.1006 412.871 33.4348 415.063 31.502C417.256 29.5692 420.077 28.5019 423 28.5V28.5Z" fill="#FF6243"/>
<path d="M454.5 61.305V64.305C454.011 64.439 453.507 64.5046 453 64.5C451.409 64.5 449.883 63.8679 448.757 62.7426C447.632 61.6174 447 60.0913 447 58.5C447 60.0913 446.368 61.6174 445.243 62.7426C444.117 63.8679 442.591 64.5 441 64.5C439.409 64.5 437.883 63.8679 436.757 62.7426C435.632 61.6174 435 60.0913 435 58.5C435 60.0913 434.368 61.6174 433.243 62.7426C432.117 63.8679 430.591 64.5 429 64.5C427.409 64.5 425.883 63.8679 424.757 62.7426C423.632 61.6174 423 60.0913 423 58.5C423 60.0913 422.368 61.6174 421.243 62.7426C420.117 63.8679 418.591 64.5 417 64.5C415.409 64.5 413.883 63.8679 412.757 62.7426C411.632 61.6174 411 60.0913 411 58.5C411 60.0913 410.368 61.6174 409.243 62.7426C408.117 63.8679 406.591 64.5 405 64.5C403.409 64.5 401.883 63.8679 400.757 62.7426C399.632 61.6174 399 60.0913 399 58.5C399 60.0913 398.368 61.6174 397.243 62.7426C396.117 63.8679 394.591 64.5 393 64.5C392.493 64.5046 391.989 64.439 391.5 64.305V61.305C391.989 61.439 392.493 61.5046 393 61.5C394.591 61.5 396.117 60.8679 397.243 59.7426C398.368 58.6174 399 57.0913 399 55.5C399 57.0913 399.632 58.6174 400.757 59.7426C401.883 60.8679 403.409 61.5 405 61.5C406.591 61.5 408.117 60.8679 409.243 59.7426C410.368 58.6174 411 57.0913 411 55.5C411 57.0913 411.632 58.6174 412.757 59.7426C413.883 60.8679 415.409 61.5 417 61.5C418.591 61.5 420.117 60.8679 421.243 59.7426C422.368 58.6174 423 57.0913 423 55.5C423 57.0913 423.632 58.6174 424.757 59.7426C425.883 60.8679 427.409 61.5 429 61.5C430.591 61.5 432.117 60.8679 433.243 59.7426C434.368 58.6174 435 57.0913 435 55.5C435 57.0913 435.632 58.6174 436.757 59.7426C437.883 60.8679 439.409 61.5 441 61.5C442.591 61.5 444.117 60.8679 445.243 59.7426C446.368 58.6174 447 57.0913 447 55.5C447 57.0913 447.632 58.6174 448.757 59.7426C449.883 60.8679 451.409 61.5 453 61.5C453.507 61.5046 454.011 61.439 454.5 61.305Z" fill="#00B39D"/>
<path d="M415.5 75V81L402 94.5H400.5V90L415.5 75Z" fill="#78B9EB"/>
<path d="M415.5 84V89.25L410.25 94.5H405L415.5 84Z" fill="#78B9EB"/>
<path d="M445.5 72L435 82.5H429L441 70.5H444C444.398 70.5 444.779 70.658 445.061 70.9393C445.342 71.2206 445.5 71.6022 445.5 72Z" fill="#78B9EB"/>
<path d="M445.5 75V80.25L443.25 82.5H438L445.5 75Z" fill="#78B9EB"/>
<path d="M411.002 49.0353V52.0203C406.449 49.151 403.075 44.7445 401.492 39.6003C401.702 39.2103 401.927 38.8203 402.152 38.4453C403.92 42.8152 407.016 46.5195 411.002 49.0353V49.0353Z" fill="#1E81CE"/>
<path d="M402.15 38.445C401.925 38.82 401.7 39.21 401.49 39.6C400.831 37.4621 400.497 35.2372 400.5 33C400.5 32.49 400.515 31.995 400.56 31.5C400.715 33.8851 401.252 36.2299 402.15 38.445V38.445Z" fill="#ED1C24"/>
<path d="M423 52.5002V55.5002C418.75 55.5076 414.587 54.3001 411 52.0202V49.0352C414.589 51.3086 418.752 52.5106 423 52.5002Z" fill="#ED1C24"/>
<path d="M435 49.0352V52.0202C431.413 54.3001 427.25 55.5076 423 55.5002V52.5002C427.248 52.5106 431.411 51.3086 435 49.0352Z" fill="#1E81CE"/>
<path d="M444.51 39.6003C442.927 44.7445 439.553 49.151 435 52.0203V49.0353C438.987 46.5195 442.082 42.8152 443.85 38.4453C444.075 38.8203 444.3 39.2103 444.51 39.6003V39.6003Z" fill="#ED1C24"/>
<path d="M445.501 33C445.503 35.2372 445.17 37.4621 444.511 39.6C444.301 39.21 444.076 38.82 443.851 38.445C444.749 36.2299 445.285 33.8851 445.441 31.5C445.486 31.995 445.501 32.49 445.501 33V33Z" fill="#1E81CE"/>
<path d="M423 52.5C435.426 52.5 445.5 42.4264 445.5 30C445.5 17.5736 435.426 7.5 423 7.5C410.574 7.5 400.5 17.5736 400.5 30C400.5 42.4264 410.574 52.5 423 52.5Z" fill="#FFD422"/>
<path d="M435.181 28.7106C435.13 29.0685 434.952 29.396 434.679 29.633C434.406 29.87 434.057 30.0006 433.696 30.0006H433.306C432.944 30.0006 432.595 29.87 432.322 29.633C432.049 29.396 431.871 29.0685 431.821 28.7106L430.711 21.0156C432.638 21.0458 434.502 21.7041 436.021 22.8906V22.9056L435.181 28.7106Z" fill="#A97C50"/>
<path d="M424.679 27.21C424.628 27.5678 424.45 27.8954 424.177 28.1324C423.904 28.3694 423.555 28.4999 423.194 28.5H422.804C422.442 28.4999 422.093 28.3694 421.82 28.1324C421.547 27.8954 421.369 27.5678 421.319 27.21L420.434 21H425.564L424.679 27.21Z" fill="#A97C50"/>
<path d="M414.18 28.7106C414.129 29.0685 413.951 29.396 413.678 29.633C413.405 29.87 413.056 30.0006 412.695 30.0006H412.305C411.943 30.0006 411.594 29.87 411.321 29.633C411.048 29.396 410.87 29.0685 410.82 28.7106L409.98 22.9056V22.8906C411.498 21.7041 413.363 21.0458 415.29 21.0156L414.18 28.7106Z" fill="#A97C50"/>
<path d="M430.71 21.0139L431.82 28.7089C431.871 29.0667 432.049 29.3943 432.322 29.6313C432.594 29.8683 432.944 29.9988 433.305 29.9989H433.695C434.056 29.9988 434.406 29.8683 434.678 29.6313C434.951 29.3943 435.129 29.0667 435.18 28.7089L436.02 22.9039C437.104 23.7419 437.981 24.8172 438.584 26.0471C439.187 27.2771 439.501 28.629 439.5 29.9989V32.9989C439.498 33.7938 439.181 34.5555 438.619 35.1176C438.057 35.6797 437.295 35.9965 436.5 35.9989H409.5C408.705 35.9965 407.943 35.6797 407.381 35.1176C406.819 34.5555 406.502 33.7938 406.5 32.9989V29.9989C406.499 28.629 406.813 27.2771 407.416 26.0471C408.019 24.8172 408.896 23.7419 409.98 22.9039L410.82 28.7089C410.871 29.0667 411.049 29.3943 411.322 29.6313C411.594 29.8683 411.944 29.9988 412.305 29.9989H412.695C413.056 29.9988 413.406 29.8683 413.678 29.6313C413.951 29.3943 414.129 29.0667 414.18 28.7089L415.29 21.0139C415.359 21.0009 415.43 20.9959 415.5 20.9989H420.435L421.32 27.2089C421.371 27.5667 421.549 27.8943 421.822 28.1313C422.094 28.3683 422.444 28.4988 422.805 28.4989H423.195C423.556 28.4988 423.906 28.3683 424.178 28.1313C424.451 27.8943 424.629 27.5667 424.68 27.2089L425.565 20.9989H430.5C430.57 20.9959 430.641 21.0009 430.71 21.0139V21.0139Z" fill="#C49A6C"/>
<path d="M423 54C418.253 54 413.613 52.5924 409.666 49.9553C405.719 47.3181 402.643 43.5698 400.827 39.1844C399.01 34.799 398.535 29.9734 399.461 25.3178C400.387 20.6623 402.673 16.3859 406.029 13.0294C409.386 9.67299 413.662 7.38721 418.318 6.46116C422.973 5.53512 427.799 6.0104 432.184 7.8269C436.57 9.64341 440.318 12.7195 442.955 16.6663C445.592 20.6131 447 25.2533 447 30C446.992 36.3629 444.461 42.463 439.962 46.9622C435.463 51.4615 429.363 53.9925 423 54V54ZM423 9.00001C418.847 9.00001 414.786 10.2316 411.333 12.5391C407.88 14.8467 405.188 18.1264 403.598 21.9637C402.009 25.8009 401.593 30.0233 402.403 34.0969C403.214 38.1705 405.214 41.9124 408.151 44.8493C411.088 47.7862 414.829 49.7862 418.903 50.5965C422.977 51.4068 427.199 50.9909 431.036 49.4015C434.874 47.812 438.153 45.1204 440.461 41.667C442.768 38.2136 444 34.1534 444 30C443.994 24.4323 441.78 19.0943 437.843 15.1573C433.906 11.2204 428.568 9.00597 423 9.00001V9.00001Z" fill="#FFA733"/>
<path d="M417 94.5H414V73.5C414 73.1022 413.842 72.7206 413.561 72.4393C413.279 72.158 412.898 72 412.5 72H403.5C403.102 72 402.721 72.158 402.439 72.4393C402.158 72.7206 402 73.1022 402 73.5V94.5H399V73.5C399 72.3065 399.474 71.1619 400.318 70.318C401.162 69.4741 402.307 69 403.5 69H412.5C413.693 69 414.838 69.4741 415.682 70.318C416.526 71.1619 417 72.3065 417 73.5V94.5Z" fill="#009986"/>
<path d="M444 84H426C425.204 84 424.441 83.6839 423.879 83.1213C423.316 82.5587 423 81.7956 423 81V72C423 71.2044 423.316 70.4413 423.879 69.8787C424.441 69.3161 425.204 69 426 69H444C444.796 69 445.559 69.3161 446.121 69.8787C446.684 70.4413 447 71.2044 447 72V81C447 81.7956 446.684 82.5587 446.121 83.1213C445.559 83.6839 444.796 84 444 84ZM426 72V81H444V72H426Z" fill="#009986"/>
<path d="M381 93H465V96H381V93Z" fill="#009986"/>
<path d="M409.5 79.5H412.5V85.5H409.5V79.5Z" fill="#009986"/>
<g clip-path="url(#clip0)">
<path d="M1203.4 4.18841e-08C1203.4 4.18841e-08 1203.4 4.18841e-08 1203.4 4.18841e-08H1110.6C1109.72 -0.000199958 1109 0.7158 1109 1.5992C1109 1.599 1109 1.5994 1109 1.5992V33.6H1112.2V3.2H1201.8V38.4H1145.8V41.6H1203.4C1204.28 41.6002 1205 40.8842 1205 40.0008C1205 40.001 1205 40.0006 1205 40.0008V1.6C1205 0.7166 1204.28 0.000200042 1203.4 4.18841e-08Z" fill="#B2ABB1"/>
<path d="M1193.8 8H1161.8V11.2H1193.8V8Z" fill="#B2ABB1"/>
<path d="M1198.6 17.6H1166.6V20.8H1198.6V17.6Z" fill="#B2ABB1"/>
<path d="M1192.2 27.2H1160.2V30.4H1192.2V27.2Z" fill="#B2ABB1"/>
<path d="M1160.07 13.7948C1158.98 11.1618 1155.95 9.9154 1153.32 11.0108C1153.28 11.0296 1153.23 11.0488 1153.19 11.0688L1140.21 17.7988C1140.73 16.7384 1140.99 15.5772 1141 14.4C1141 9.9818 1137.42 6.4 1133 6.4C1128.58 6.4 1125 9.9818 1125 14.4C1125.01 16.1366 1125.58 17.8232 1126.64 19.2H1126.57C1122.03 19.2304 1117.98 22.0538 1116.38 26.3032L1112.1 41.025C1111.09 43.6662 1112.4 46.6318 1115.05 47.6486C1116.25 48.1122 1117.58 48.1044 1118.78 47.6266C1120.16 47.0716 1121.23 45.9508 1121.73 44.55L1123.4 39.225V62.3816C1122.02 61.3234 1120.34 60.7468 1118.6 60.7406C1114.19 60.734 1110.61 64.305 1110.6 68.7168C1110.6 70.8774 1111.47 72.947 1113.02 74.4538C1110.56 75.7094 1109.01 78.2326 1109 80.9922V94.4C1109 95.2834 1109.72 95.9998 1110.6 96C1110.6 96 1110.6 96 1110.6 96H1126.6C1127.48 96.0002 1128.2 95.2842 1128.2 94.4008C1128.2 94.401 1128.2 94.4006 1128.2 94.4008V80.9922C1128.19 78.7244 1127.14 76.5872 1125.34 75.2H1137.46C1135.66 76.5872 1134.61 78.7244 1134.6 80.9922V94.4C1134.6 95.2834 1135.32 95.9998 1136.2 96C1136.2 96 1136.2 96 1136.2 96H1152.2C1153.08 96.0002 1153.8 95.2842 1153.8 94.4008C1153.8 94.401 1153.8 94.4006 1153.8 94.4008V80.9922C1153.79 78.2326 1152.24 75.7094 1149.78 74.4538C1152.94 71.3704 1153 66.3098 1149.92 63.1508C1148.02 61.2054 1145.26 60.3584 1142.6 60.9024V28.1718L1157.29 20.5452C1159.92 19.45 1161.17 16.4276 1160.07 13.7948ZM1133 9.6C1135.65 9.6 1137.8 11.749 1137.8 14.4C1137.8 17.051 1135.65 19.2 1133 19.2C1130.35 19.1972 1128.2 17.0498 1128.2 14.4C1128.2 11.749 1130.35 9.6 1133 9.6ZM1118.6 63.9406C1121.25 63.9406 1123.4 66.0896 1123.4 68.7406C1123.4 71.3916 1121.25 73.5406 1118.6 73.5406C1115.95 73.5406 1113.8 71.3916 1113.8 68.7406C1113.8 66.0908 1115.95 63.9436 1118.6 63.9406ZM1125 92.8H1112.2V80.9922C1112.2 78.678 1114.08 76.8028 1116.39 76.8H1120.81C1123.12 76.8028 1125 78.678 1125 80.9922V92.8ZM1150.6 80.9922V92.8H1137.8V80.9922C1137.8 78.678 1139.68 76.8028 1141.99 76.8H1146.41C1148.72 76.8028 1150.6 78.678 1150.6 80.9922ZM1144.2 63.9406C1146.85 63.9434 1149 66.0908 1149 68.7406C1149 71.3916 1146.85 73.5406 1144.2 73.5406C1141.55 73.5406 1139.4 71.3916 1139.4 68.7406C1139.4 66.0896 1141.55 63.9406 1144.2 63.9406ZM1157.14 16.464C1156.93 17.0136 1156.49 17.445 1155.94 17.6484L1140.26 25.7796C1139.73 26.0548 1139.4 26.6026 1139.4 27.2V62.3816C1136.4 64.5976 1135.36 68.6082 1136.91 72H1134.6V44.8H1131.4V72H1125.89C1126.34 70.994 1126.58 69.904 1126.59 68.8H1126.6V28.8C1126.6 27.9162 1125.88 27.2 1125 27.2002C1124.3 27.2004 1123.68 27.6538 1123.47 28.3204L1118.7 43.5234C1118.33 44.5218 1117.23 45.0378 1116.23 44.6756C1116.16 44.6502 1116.09 44.6208 1116.03 44.5874C1115.1 44.1104 1114.71 42.9968 1115.13 42.0468L1119.4 27.325C1120.56 24.367 1123.4 22.4138 1126.57 22.4H1137.9C1138.16 22.4004 1138.41 22.3386 1138.64 22.2204L1154.54 13.9658C1155.5 13.5678 1156.6 13.975 1157.06 14.8986C1157.31 15.3854 1157.34 15.9534 1157.14 16.464Z" fill="#B2ABB1"/>
<path d="M1175.38 74.4532C1178.55 71.37 1178.61 66.305 1175.53 63.1404C1172.45 59.9758 1167.38 59.9098 1164.22 62.993C1161.05 66.0762 1160.99 71.1412 1164.07 74.3058C1164.12 74.3556 1164.17 74.4048 1164.22 74.4532C1161.76 75.7088 1160.21 78.2321 1160.2 80.9917V94.3995C1160.2 95.2829 1160.92 95.9993 1161.8 95.9995C1161.8 95.9995 1161.8 95.9995 1161.8 95.9995H1177.8C1178.68 95.9997 1179.4 95.2837 1179.4 94.4003C1179.4 94.4005 1179.4 94.4001 1179.4 94.4003V80.9917C1179.39 78.2321 1177.84 75.7088 1175.38 74.4532ZM1169.8 63.94C1172.45 63.94 1174.6 66.089 1174.6 68.74C1174.6 71.391 1172.45 73.54 1169.8 73.54C1167.15 73.54 1165 71.391 1165 68.74C1165 66.0902 1167.15 63.943 1169.8 63.94ZM1176.2 92.7995H1163.4V80.9917C1163.4 78.6775 1165.28 76.8022 1167.59 76.7994H1172.01C1174.32 76.8022 1176.2 78.6775 1176.2 80.9917V92.7995Z" fill="#B2ABB1"/>
<path d="M1200.98 74.4532C1204.15 71.37 1204.21 66.305 1201.13 63.1404C1198.05 59.9758 1192.98 59.9098 1189.82 62.993C1186.65 66.0762 1186.59 71.1412 1189.67 74.3058C1189.72 74.3556 1189.77 74.4048 1189.82 74.4532C1187.36 75.7088 1185.81 78.2321 1185.8 80.9917V94.3995C1185.8 95.2829 1186.52 95.9993 1187.4 95.9995C1187.4 95.9995 1187.4 95.9995 1187.4 95.9995H1203.4C1204.28 95.9997 1205 95.2837 1205 94.4003C1205 94.4005 1205 94.4001 1205 94.4003V80.9917C1204.99 78.2321 1203.44 75.7088 1200.98 74.4532ZM1195.4 63.94C1198.05 63.94 1200.2 66.089 1200.2 68.74C1200.2 71.391 1198.05 73.54 1195.4 73.54C1192.75 73.54 1190.6 71.391 1190.6 68.74C1190.6 66.0902 1192.75 63.943 1195.4 63.94ZM1201.8 92.7995H1189V80.9917C1189 78.6775 1190.88 76.8022 1193.19 76.7994H1197.61C1199.92 76.8022 1201.8 78.6775 1201.8 80.9917V92.7995Z" fill="#B2ABB1"/>
</g>
<rect x="739" y="20" width="58" height="76" rx="5" fill="#D9E4EF"/>
<rect x="802.824" y="46.2793" width="7.02802" height="21.8295" transform="rotate(29.7246 802.824 46.2793)" fill="#00CCB3"/>
<rect x="809.824" y="36" width="4.17851" height="4.02705" transform="rotate(29.7246 809.824 36)" fill="#00CCB3"/>
<rect x="806.997" y="40" width="7.18921" height="6.96143" transform="rotate(29.7246 806.997 40)" fill="#D9E4EF"/>
<rect x="806.997" y="40" width="7.18921" height="6.96143" transform="rotate(29.7246 806.997 40)" fill="#009986"/>
<rect x="792.229" y="67.3457" width="5.7375" height="6.51127" transform="rotate(29.7246 792.229 67.3457)" fill="#D9E4EF"/>
<rect x="792.229" y="67.3457" width="5.7375" height="6.51127" transform="rotate(29.7246 792.229 67.3457)" fill="#009986"/>
<rect x="788.635" y="74" width="4.48832" height="3.29644" transform="rotate(29.7246 788.635 74)" fill="#D9E4EF"/>
<rect x="788.635" y="74" width="4.48832" height="3.29644" transform="rotate(29.7246 788.635 74)" fill="#00CCB3"/>
<circle cx="754.5" cy="79.5" r="10.5" fill="#EFF6FE"/>
<path d="M814.86 38.0103C814.598 37.0375 813.96 36.2083 813.087 35.7055C812.213 35.2003 811.174 35.0637 810.2 35.3252C809.226 35.5874 808.397 36.225 807.894 37.0982L807.261 38.2001C806.659 37.8544 805.891 38.0579 805.539 38.6565L802.322 44.1397L801.22 43.5065C800.928 43.3376 800.581 43.2919 800.255 43.3797C799.929 43.4681 799.652 43.6821 799.485 43.9752C799.142 44.5806 799.351 45.3499 799.954 45.6974L801.055 46.3306L790.291 64.9854L787.631 72.0907L786.365 74.4584C785.623 75.7484 785.702 77.3519 786.567 78.562L783.718 82.0572L782.92 80.0567C782.56 79.165 781.727 78.554 780.769 78.4792C779.811 78.4037 778.893 78.8774 778.399 79.7017L777.943 80.4741L777.512 75.4083C777.413 74.2099 776.485 73.2464 775.292 73.1017C774.098 72.9576 772.967 73.6731 772.586 74.8134L769.47 84.1597C769.253 84.8207 769.609 85.5331 770.268 85.7557C770.392 85.8132 770.525 85.8478 770.661 85.8565C771.205 85.8584 771.69 85.5114 771.864 84.9957L774.966 75.6495L775.41 80.7907C775.501 81.8877 776.29 82.7998 777.362 83.0484C778.434 83.297 779.544 82.8246 780.108 81.8803L780.577 81.1073L781.362 83.096C781.696 83.9339 782.45 84.5319 783.342 84.6649C784.234 84.7978 785.13 84.446 785.694 83.7416L788.645 80.006C788.971 80.0913 789.307 80.134 789.645 80.1327C791.002 80.1433 792.263 79.4284 792.95 78.2578L794.217 76.1429L799.042 70.2794L809.921 51.3964L811.023 52.0297C811.316 52.1979 811.53 52.4755 811.617 52.8026C811.705 53.1273 811.66 53.4736 811.491 53.7648L806.426 62.5416C806.234 62.8297 806.17 63.1834 806.246 63.5211C806.323 63.8581 806.534 64.1494 806.831 64.3268C807.122 64.4963 807.47 64.542 807.795 64.4542C808.121 64.3658 808.398 64.1518 808.566 63.8587L813.632 55.082C814.137 54.2082 814.273 53.1693 814.011 52.1948C813.749 51.2214 813.112 50.3922 812.238 49.8894L811.136 49.2562L814.303 43.7724C814.648 43.1707 814.445 42.4027 813.847 42.0502L814.48 40.9482C814.999 40.0608 815.136 39.0009 814.86 38.0103ZM810.085 38.3646C810.253 38.0715 810.531 37.8569 810.858 37.7697C811.183 37.6893 811.527 37.7345 811.82 37.8965C812.114 38.0641 812.328 38.3423 812.416 38.6688C812.496 38.9941 812.451 39.3379 812.289 39.6311L811.656 40.733L809.452 39.4666L810.085 38.3646ZM792.824 73.7244L790.316 72.2675L792.114 67.4552L796.103 69.76L792.824 73.7244ZM789.024 77.384C788.489 77.0111 788.325 76.2938 788.645 75.7249L789.278 74.6236L791.481 75.89L790.848 76.979C790.67 77.2869 790.372 77.5058 790.025 77.5831C789.678 77.6598 789.315 77.5881 789.024 77.384ZM797.547 67.6834L793.166 65.1505L803.297 47.5971L807.679 50.13L797.547 67.6834ZM808.945 47.939L804.564 45.4061L807.096 41.0243L811.478 43.5572L808.945 47.939Z" fill="#009986"/>
<path d="M784.592 30.1306C785.291 30.1306 785.858 29.5641 785.858 28.8641C785.858 28.1647 785.291 27.5977 784.592 27.5977H751.664C750.965 27.5977 750.398 28.1647 750.398 28.8641V33.9299C750.398 34.6299 750.965 35.1964 751.664 35.1964H784.592C785.291 35.1964 785.858 34.6299 785.858 33.9299C785.858 33.2305 785.291 32.6635 784.592 32.6635H752.931V30.1306H784.592Z" fill="#C4CFDA"/>
<path d="M755.463 37.7298C754.764 37.7298 754.197 38.2968 754.197 38.9962C754.197 39.6962 754.764 40.2627 755.463 40.2627H780.792C781.492 40.2627 782.059 39.6962 782.059 38.9962C782.059 38.2968 781.492 37.7298 780.792 37.7298H755.463Z" fill="#C4CFDA"/>
<path d="M788.391 46.5951H774.46H760.53C759.83 46.5951 759.263 47.1621 759.263 47.8615C759.263 48.5615 759.83 49.128 760.53 49.128H788.391C789.091 49.128 789.658 48.5615 789.658 47.8615C789.658 47.1621 789.091 46.5951 788.391 46.5951Z" fill="#C4CFDA"/>
<path d="M775.727 55.46C775.727 54.7606 775.16 54.1936 774.461 54.1936H749.132C748.432 54.1936 747.865 54.7606 747.865 55.46C747.865 56.16 748.432 56.7265 749.132 56.7265H774.461C775.16 56.7265 775.727 56.16 775.727 55.46Z" fill="#C4CFDA"/>
<path d="M788.392 54.1936H779.527C778.828 54.1936 778.261 54.7606 778.261 55.46C778.261 56.16 778.828 56.7265 779.527 56.7265H788.392C789.091 56.7265 789.659 56.16 789.659 55.46C789.659 54.7606 789.091 54.1936 788.392 54.1936Z" fill="#C4CFDA"/>
<path d="M761.796 63.0581C762.496 63.0581 763.063 62.4917 763.063 61.7916C763.063 61.0923 762.496 60.5252 761.796 60.5252H749.132C748.432 60.5252 747.865 61.0923 747.865 61.7916C747.865 62.4917 748.432 63.0581 749.132 63.0581H761.796Z" fill="#C4CFDA"/>
<path d="M766.862 63.0581H775.728C776.427 63.0581 776.994 62.4917 776.994 61.7916C776.994 61.0923 776.427 60.5252 775.728 60.5252H766.862C766.163 60.5252 765.596 61.0923 765.596 61.7916C765.596 62.4917 766.163 63.0581 766.862 63.0581Z" fill="#C4CFDA"/>
<path d="M758.918 76.3572L754.436 80.8281L751.751 78.1431C751.257 77.6521 750.459 77.6521 749.965 78.1431C749.725 78.3812 749.59 78.7046 749.59 79.0423C749.59 79.3799 749.725 79.7039 749.965 79.9414L752.65 82.6264C753.125 83.0976 753.767 83.3617 754.436 83.3611C755.109 83.3648 755.756 83.1007 756.234 82.6264L760.704 78.1431C761.135 77.6404 761.106 76.8915 760.638 76.424C760.17 75.9559 759.421 75.9268 758.918 76.3572Z" fill="#009986"/>
<rect x="860" y="57" width="179" height="4" rx="2" fill="#E6E1E5"/>
<rect x="588" y="57" width="135" height="4" rx="2" fill="#E6E1E5"/>
<rect x="123" y="57" width="252" height="4" rx="2" fill="#FFA626"/>
<rect x="473" y="57" width="250" height="4" rx="2" fill="#FFA626"/>
<rect x="860" y="57" width="94" height="4" rx="2" fill="#FFA626"/>
<circle cx="954" cy="59" r="4" fill="#FFA626"/>
<defs>
<clipPath id="clip0">
<rect x="1109" width="96" height="96" fill="white"/>
</clipPath>
</defs>
</svg>
