<svg width="1204" height="99" viewBox="0 0 1204 99" fill="none" xmlns="http://www.w3.org/2000/svg">
<g clip-path="url(#clip0)">
<path d="M1202.4 3C1202.4 3 1202.4 3 1202.4 3H1109.6C1108.72 2.9998 1108 3.7158 1108 4.5992C1108 4.599 1108 4.5994 1108 4.5992V36.6H1111.2V6.2H1200.8V41.4H1144.8V44.6H1202.4C1203.28 44.6002 1204 43.8842 1204 43.0008C1204 43.001 1204 43.0006 1204 43.0008V4.6C1204 3.7166 1203.28 3.0002 1202.4 3Z" fill="#B2ABB1"/>
<path d="M1192.8 11H1160.8V14.2H1192.8V11Z" fill="#B2ABB1"/>
<path d="M1197.6 20.6H1165.6V23.8H1197.6V20.6Z" fill="#B2ABB1"/>
<path d="M1191.2 30.2H1159.2V33.4H1191.2V30.2Z" fill="#B2ABB1"/>
<path d="M1159.07 16.7948C1157.98 14.1618 1154.95 12.9154 1152.32 14.0108C1152.28 14.0296 1152.23 14.0488 1152.19 14.0688L1139.21 20.7988C1139.73 19.7384 1139.99 18.5772 1140 17.4C1140 12.9818 1136.42 9.4 1132 9.4C1127.58 9.4 1124 12.9818 1124 17.4C1124.01 19.1366 1124.58 20.8232 1125.64 22.2H1125.57C1121.03 22.2304 1116.98 25.0538 1115.38 29.3032L1111.1 44.025C1110.09 46.6662 1111.4 49.6318 1114.05 50.6486C1115.25 51.1122 1116.58 51.1044 1117.78 50.6266C1119.16 50.0716 1120.23 48.9508 1120.73 47.55L1122.4 42.225V65.3816C1121.02 64.3234 1119.34 63.7468 1117.6 63.7406C1113.19 63.734 1109.61 67.305 1109.6 71.7168C1109.6 73.8774 1110.47 75.947 1112.02 77.4538C1109.56 78.7094 1108.01 81.2326 1108 83.9922V97.4C1108 98.2834 1108.72 98.9998 1109.6 99C1109.6 99 1109.6 99 1109.6 99H1125.6C1126.48 99.0002 1127.2 98.2842 1127.2 97.4008C1127.2 97.401 1127.2 97.4006 1127.2 97.4008V83.9922C1127.19 81.7244 1126.14 79.5872 1124.34 78.2H1136.46C1134.66 79.5872 1133.61 81.7244 1133.6 83.9922V97.4C1133.6 98.2834 1134.32 98.9998 1135.2 99C1135.2 99 1135.2 99 1135.2 99H1151.2C1152.08 99.0002 1152.8 98.2842 1152.8 97.4008C1152.8 97.401 1152.8 97.4006 1152.8 97.4008V83.9922C1152.79 81.2326 1151.24 78.7094 1148.78 77.4538C1151.94 74.3704 1152 69.3098 1148.92 66.1508C1147.02 64.2054 1144.26 63.3584 1141.6 63.9024V31.1718L1156.29 23.5452C1158.92 22.45 1160.17 19.4276 1159.07 16.7948ZM1132 12.6C1134.65 12.6 1136.8 14.749 1136.8 17.4C1136.8 20.051 1134.65 22.2 1132 22.2C1129.35 22.1972 1127.2 20.0498 1127.2 17.4C1127.2 14.749 1129.35 12.6 1132 12.6ZM1117.6 66.9406C1120.25 66.9406 1122.4 69.0896 1122.4 71.7406C1122.4 74.3916 1120.25 76.5406 1117.6 76.5406C1114.95 76.5406 1112.8 74.3916 1112.8 71.7406C1112.8 69.0908 1114.95 66.9436 1117.6 66.9406ZM1124 95.8H1111.2V83.9922C1111.2 81.678 1113.08 79.8028 1115.39 79.8H1119.81C1122.12 79.8028 1124 81.678 1124 83.9922V95.8ZM1149.6 83.9922V95.8H1136.8V83.9922C1136.8 81.678 1138.68 79.8028 1140.99 79.8H1145.41C1147.72 79.8028 1149.6 81.678 1149.6 83.9922ZM1143.2 66.9406C1145.85 66.9434 1148 69.0908 1148 71.7406C1148 74.3916 1145.85 76.5406 1143.2 76.5406C1140.55 76.5406 1138.4 74.3916 1138.4 71.7406C1138.4 69.0896 1140.55 66.9406 1143.2 66.9406ZM1156.14 19.464C1155.93 20.0136 1155.49 20.445 1154.94 20.6484L1139.26 28.7796C1138.73 29.0548 1138.4 29.6026 1138.4 30.2V65.3816C1135.4 67.5976 1134.36 71.6082 1135.91 75H1133.6V47.8H1130.4V75H1124.89C1125.34 73.994 1125.58 72.904 1125.59 71.8H1125.6V31.8C1125.6 30.9162 1124.88 30.2 1124 30.2002C1123.3 30.2004 1122.68 30.6538 1122.47 31.3204L1117.7 46.5234C1117.33 47.5218 1116.23 48.0378 1115.23 47.6756C1115.16 47.6502 1115.09 47.6208 1115.03 47.5874C1114.1 47.1104 1113.71 45.9968 1114.13 45.0468L1118.4 30.325C1119.56 27.367 1122.4 25.4138 1125.57 25.4H1136.9C1137.16 25.4004 1137.41 25.3386 1137.64 25.2204L1153.54 16.9658C1154.5 16.5678 1155.6 16.975 1156.06 17.8986C1156.31 18.3854 1156.34 18.9534 1156.14 19.464Z" fill="#B2ABB1"/>
<path d="M1174.38 77.4532C1177.55 74.37 1177.61 69.305 1174.53 66.1404C1171.45 62.9758 1166.38 62.9098 1163.22 65.993C1160.05 69.0762 1159.99 74.1412 1163.07 77.3058C1163.12 77.3556 1163.17 77.4048 1163.22 77.4532C1160.76 78.7088 1159.21 81.2321 1159.2 83.9917V97.3995C1159.2 98.2829 1159.92 98.9993 1160.8 98.9995C1160.8 98.9995 1160.8 98.9995 1160.8 98.9995H1176.8C1177.68 98.9997 1178.4 98.2837 1178.4 97.4003C1178.4 97.4005 1178.4 97.4001 1178.4 97.4003V83.9917C1178.39 81.2321 1176.84 78.7088 1174.38 77.4532ZM1168.8 66.94C1171.45 66.94 1173.6 69.089 1173.6 71.74C1173.6 74.391 1171.45 76.54 1168.8 76.54C1166.15 76.54 1164 74.391 1164 71.74C1164 69.0902 1166.15 66.943 1168.8 66.94ZM1175.2 95.7995H1162.4V83.9917C1162.4 81.6775 1164.28 79.8022 1166.59 79.7994H1171.01C1173.32 79.8022 1175.2 81.6775 1175.2 83.9917V95.7995Z" fill="#B2ABB1"/>
<path d="M1199.98 77.4532C1203.15 74.37 1203.21 69.305 1200.13 66.1404C1197.05 62.9758 1191.98 62.9098 1188.82 65.993C1185.65 69.0762 1185.59 74.1412 1188.67 77.3058C1188.72 77.3556 1188.77 77.4048 1188.82 77.4532C1186.36 78.7088 1184.81 81.2321 1184.8 83.9917V97.3995C1184.8 98.2829 1185.52 98.9993 1186.4 98.9995C1186.4 98.9995 1186.4 98.9995 1186.4 98.9995H1202.4C1203.28 98.9997 1204 98.2837 1204 97.4003C1204 97.4005 1204 97.4001 1204 97.4003V83.9917C1203.99 81.2321 1202.44 78.7088 1199.98 77.4532ZM1194.4 66.94C1197.05 66.94 1199.2 69.089 1199.2 71.74C1199.2 74.391 1197.05 76.54 1194.4 76.54C1191.75 76.54 1189.6 74.391 1189.6 71.74C1189.6 69.0902 1191.75 66.943 1194.4 66.94ZM1200.8 95.7995H1188V83.9917C1188 81.6775 1189.88 79.8022 1192.19 79.7994H1196.61C1198.92 79.8022 1200.8 81.6775 1200.8 83.9917V95.7995Z" fill="#B2ABB1"/>
</g>
<path d="M84.1484 0H47.9983C41.4534 0 36.1484 5.29541 36.1484 11.8499V66.0747C36.1484 68.3752 38.7866 69.7207 40.6484 68.3247L51.9482 59.8499H84.1484C90.6934 59.8499 95.9983 54.5544 95.9983 48V11.8499C95.9983 5.30493 90.7029 0 84.1484 0V0Z" fill="#EFF6FE"/>
<path d="M84.1501 0H66.0747V59.8499H84.1501C90.6958 59.8499 96 54.5552 96 48V11.8499C96 5.3042 90.7053 0 84.1501 0V0Z" fill="#D9E4EF"/>
<path d="M68.8872 43.4805C68.8872 45.0339 67.6282 46.293 66.0747 46.293C64.522 46.293 63.2622 45.0339 63.2622 43.4805C63.2622 41.9277 64.522 40.668 66.0747 40.668C67.6282 40.668 68.8872 41.9277 68.8872 43.4805Z" fill="#00D66A"/>
<path d="M66.0718 13.5566C60.3625 13.5566 55.7314 18.1768 55.7314 23.897V23.9006C55.7314 25.4534 56.9905 26.7117 58.5439 26.7117C60.0974 26.7117 61.3564 25.4504 61.3564 23.897C61.3564 21.2969 63.4592 19.1816 66.0754 19.1816C68.677 19.1816 70.7937 21.2983 70.7937 23.9006C70.7937 26.5022 68.677 28.6189 66.0754 28.6189C64.522 28.6189 63.2629 29.8787 63.2629 31.4314V34.4438C63.2629 35.9973 64.522 37.2563 66.0754 37.2563C67.6282 37.2563 68.8879 35.9973 68.8879 34.4438V33.8557C73.229 32.6274 76.4187 28.6292 76.4187 23.9006C76.4187 18.1965 71.7788 13.5566 66.0718 13.5566V13.5566Z" fill="#00D66A"/>
<path d="M68.8872 43.4805C68.8872 45.0332 67.6274 46.293 66.0747 46.293V40.668C67.6274 40.668 68.8872 41.9285 68.8872 43.4805Z" fill="#00B85E"/>
<path d="M76.4194 23.9006C76.4194 28.6299 73.2283 32.6274 68.8872 33.855V34.4438C68.8872 35.9966 67.6274 37.2563 66.0747 37.2563V28.6182C68.6777 28.6182 70.7944 26.5015 70.7944 23.9006C70.7944 21.2983 68.6777 19.1816 66.0747 19.1816V13.5566C71.7803 13.5581 76.4194 18.1987 76.4194 23.9006Z" fill="#00B85E"/>
<path d="M31.168 58.4812C31.168 65.8237 25.2156 71.7761 17.873 71.7761C10.5305 71.7761 4.57812 65.8237 4.57812 58.4812C4.57812 51.1379 10.5305 45.1855 17.873 45.1855C25.2156 45.1855 31.168 51.1379 31.168 58.4812Z" fill="#FFCFBE"/>
<path d="M31.1697 58.4812C31.1697 65.8237 25.2166 71.7754 17.874 71.7754V45.1855C25.2166 45.1855 31.1697 51.1387 31.1697 58.4812V58.4812Z" fill="#F9BCAA"/>
<path d="M17.8748 71.7754C8.00317 71.7754 0 79.7786 0 89.6501V93.187C0 94.7405 1.25903 95.9995 2.8125 95.9995H32.9377C34.4905 95.9995 35.7502 94.7405 35.7502 93.187V89.6501C35.7502 79.7786 27.7471 71.7754 17.8748 71.7754V71.7754Z" fill="#FFCC4B"/>
<path d="M17.8748 71.7754C17.8748 71.7754 17.8748 71.7754 17.874 71.7754V95.9995H32.937C34.4905 95.9995 35.7495 94.7405 35.7495 93.187V89.6501C35.7502 79.7786 27.7471 71.7754 17.8748 71.7754V71.7754Z" fill="#FFB826"/>
<path d="M392.5 59.2693V91.6132C392.502 92.1672 392.699 92.6672 393.004 93.0107C393.303 93.3483 393.667 93.4983 394.003 93.5H450.997C451.333 93.4983 451.697 93.3483 451.996 93.0107C452.301 92.6671 452.498 92.167 452.5 91.6127C452.5 91.6123 452.5 91.6119 452.5 91.6114L452.5 59.2693C452.497 59.2693 452.495 59.2692 452.492 59.2692C452.49 59.2692 452.487 59.2692 452.485 59.2692L452.5 57.7692C450.909 57.7692 449.383 57.056 448.257 55.7866C447.894 55.3767 447.582 54.9197 447.326 54.4283C447.104 54.9686 446.827 55.4842 446.5 55.9652M392.5 59.2693L397.674 54.4283C397.896 54.9686 398.173 55.4842 398.5 55.9652M392.5 59.2693C392.503 59.2693 392.505 59.2692 392.508 59.2692M392.5 59.2693L392.508 59.2692M446.5 55.9652C446.173 55.4842 445.896 54.9686 445.674 54.4283C445.418 54.9197 445.106 55.3767 444.743 55.7866C443.617 57.056 442.091 57.7692 440.5 57.7692C438.909 57.7692 437.383 57.056 436.257 55.7866C435.894 55.3767 435.582 54.9197 435.326 54.4283C435.104 54.9686 434.827 55.4842 434.5 55.9652M446.5 55.9652C446.306 56.2502 446.094 56.523 445.865 56.7815C444.477 58.3482 442.552 59.2692 440.5 59.2692C438.448 59.2692 436.523 58.3482 435.135 56.7815C434.906 56.523 434.694 56.2502 434.5 55.9652M446.5 55.9652L392.508 59.2692M434.5 55.9652C434.173 55.4842 433.896 54.9686 433.674 54.4283C433.418 54.9197 433.106 55.3767 432.743 55.7866C431.617 57.056 430.091 57.7692 428.5 57.7692C426.909 57.7692 425.383 57.056 424.257 55.7866C423.894 55.3767 423.582 54.9197 423.326 54.4283C423.104 54.9686 422.827 55.4842 422.5 55.9652M434.5 55.9652C434.306 56.2502 434.094 56.523 433.865 56.7815C432.477 58.3482 430.552 59.2692 428.5 59.2692C426.448 59.2692 424.523 58.3482 423.135 56.7815C422.906 56.523 422.694 56.2502 422.5 55.9652M422.5 55.9652C422.173 55.4842 421.896 54.9686 421.674 54.4283C421.418 54.9197 421.106 55.3767 420.743 55.7866C419.617 57.056 418.091 57.7692 416.5 57.7692C414.909 57.7692 413.383 57.056 412.257 55.7866C411.894 55.3767 411.582 54.9197 411.326 54.4283C411.104 54.9686 410.827 55.4842 410.5 55.9652M422.5 55.9652C422.306 56.2502 422.094 56.523 421.865 56.7815C420.477 58.3482 418.552 59.2692 416.5 59.2692C414.448 59.2692 412.523 58.3482 411.135 56.7815C410.906 56.523 410.694 56.2502 410.5 55.9652M410.5 55.9652C410.173 55.4842 409.896 54.9686 409.674 54.4283C409.418 54.9197 409.106 55.3767 408.743 55.7866C407.617 57.056 406.091 57.7692 404.5 57.7692C402.909 57.7692 401.383 57.056 400.257 55.7866C399.894 55.3767 399.582 54.9197 399.326 54.4283C399.104 54.9686 398.827 55.4842 398.5 55.9652M410.5 55.9652C410.306 56.2502 410.094 56.523 409.865 56.7815C408.477 58.3482 406.552 59.2692 404.5 59.2692C402.448 59.2692 400.523 58.3482 399.135 56.7815C398.906 56.523 398.694 56.2502 398.5 55.9652M398.5 55.9652C398.306 56.2502 398.094 56.523 397.865 56.7815C396.478 58.3463 394.556 59.267 392.508 59.2692M454 59.1023V91.6154C453.998 92.5122 453.681 93.3716 453.119 94.0057C452.557 94.6399 451.795 94.9973 451 95L454 59.1023Z" stroke="#B2ABB1" stroke-width="3"/>
<path d="M457.564 45.7397C458.653 48.3713 459.292 51.1636 459.458 54H458.002H456.501L456.502 55.5012C456.503 56.498 456.172 57.4667 455.561 58.2545C454.95 59.0423 454.095 59.6043 453.129 59.852L453.117 59.8551L453.105 59.8584C452.75 59.9557 452.384 60.0034 452.016 60L452.016 60H452.002C450.809 60 449.664 59.5259 448.82 58.682C447.976 57.8381 447.502 56.6935 447.502 55.5V55.1309L447.331 54.804L444.648 49.6813C444.595 46.1059 443.681 42.594 441.981 39.4439C441.757 39.0284 441.52 38.6177 441.286 38.2283L441.28 38.2173L441.273 38.2065C439.28 35.0094 436.519 32.3615 433.241 30.5038C432.941 30.3337 432.666 30.1657 432.409 30L434.002 30L434.003 30C437.352 29.9987 440.668 30.6574 443.762 31.9384C446.857 33.2194 449.668 35.0976 452.036 37.4657C454.404 39.8338 456.283 42.6453 457.564 45.7397Z" fill="#F3F3F5" stroke="#B2ABB1" stroke-width="3"/>
<path d="M410.001 30.5H415.172C413.485 31.2417 411.928 32.0334 410.76 32.695C409.797 33.241 409.036 33.4781 408.202 33.7377C407.837 33.8516 407.457 33.9698 407.04 34.1203C405.663 34.6182 404.373 35.3687 403.227 37.2065L403.22 37.2173L403.214 37.2283C402.98 37.6175 402.743 38.028 402.52 38.4432C401.737 39.8933 401.476 41.471 401.246 42.8534C401.193 43.1773 401.141 43.4905 401.084 43.7888C400.773 45.4357 400.288 47.1409 398.806 49.0927L398.655 49.2903L398.577 49.5257L396.577 55.5257L396.5 55.7566V56C396.5 57.1935 396.026 58.3381 395.182 59.182C394.338 60.0259 393.193 60.5 392 60.5V60.4999L391.986 60.5001C391.618 60.5034 391.252 60.4557 390.897 60.3584L390.885 60.3551L390.873 60.352C389.907 60.1043 389.052 59.5423 388.441 58.7545C387.83 57.9667 387.499 56.998 387.5 56.0012L387.501 54.5H386H384.545C384.916 48.2861 387.549 42.4015 391.975 37.9754C396.756 33.1943 403.239 30.5058 410.001 30.5Z" fill="#F3F3F5" stroke="#B2ABB1" stroke-width="3"/>
<path d="M433.5 41V40.9988C433.5 40.5646 433.472 40.1306 433.416 39.6992C433.133 37.6358 432.182 35.6821 430.666 34.0971C429.147 32.5097 427.132 31.3668 424.874 30.8352L433.5 41ZM433.5 41V56C433.5 57.153 433.005 58.2855 432.079 59.1404C431.149 59.9991 429.863 60.5 428.5 60.5C427.137 60.5 425.851 59.9991 424.921 59.1404C423.995 58.2855 423.5 57.153 423.5 56V30.5915M433.5 41L423.5 30.5915M423.5 30.5915C423.963 30.6474 424.421 30.7287 424.874 30.8351L423.5 30.5915Z" fill="#F3F3F5" stroke="#B2ABB1" stroke-width="3"/>
<path d="M410.145 39.7462L410.145 39.7462L411.5 41.5004H410V41.5009C410 41.5013 410 41.5016 410 41.5019L410 56.5001C410 57.5114 409.449 58.6221 408.201 59.5296C406.946 60.4422 405.168 61 403.25 61C401.332 61 399.554 60.4422 398.299 59.5296C397.051 58.6221 396.5 57.5114 396.5 56.5001L396.5 50.5002L396.5 50.4959C396.491 47.3948 397.545 44.302 399.628 41.4943L399.629 41.493C399.896 41.1331 400.185 40.7682 400.479 40.411C402.86 37.637 406.195 35.2973 410.213 33.6411C411.769 32.9998 413.404 32.4708 415.093 32.0596C412.448 34.0931 410.658 36.7643 410.145 39.7462Z" fill="#F3F3F5" stroke="#B2ABB1" stroke-width="3"/>
<path d="M434 41.002C434.001 40.4119 433.949 39.8231 433.846 39.2394L433.846 39.2394L433.844 39.2289C433.324 36.4036 431.596 33.8577 429.045 31.8761C428.894 31.7589 428.74 31.6439 428.584 31.5311C430.436 31.9486 432.226 32.491 433.928 33.1524C438.209 34.8161 441.757 37.1648 444.287 39.944C444.599 40.3014 444.906 40.6667 445.189 41.0268L445.19 41.0281C447.401 43.8373 448.509 46.9185 448.5 49.9957L450 50.0002H448.5V56.0001C448.5 56.9719 447.937 58.0811 446.589 59.0056C445.237 59.9324 443.32 60.5 441.25 60.5C439.18 60.5 437.263 59.9324 435.911 59.0056C434.563 58.0811 434 56.9719 434 56.0001V41.002ZM434 41.002L432.5 41.0004H434V41.002Z" fill="#F3F3F5" stroke="#B2ABB1" stroke-width="3"/>
<path d="M410.5 41L410.5 40.9988C410.5 40.5648 410.528 40.131 410.584 39.6998C410.93 37.1973 412.254 34.8696 414.349 33.1654C416.073 31.7622 418.217 30.8662 420.5 30.5906V56C420.5 57.153 420.005 58.2855 419.079 59.1404C418.149 59.9991 416.863 60.5 415.5 60.5C414.137 60.5 412.851 59.9991 411.921 59.1404C410.995 58.2855 410.5 57.153 410.5 56L410.5 41Z" fill="#F3F3F5" stroke="#B2ABB1" stroke-width="3"/>
<path d="M401.15 38.445C400.925 38.82 400.7 39.21 400.49 39.6C399.831 37.4621 399.497 35.2372 399.5 33C399.5 32.49 399.515 31.995 399.56 31.5C399.715 33.8851 400.252 36.2299 401.15 38.445V38.445Z" fill="#ED1C24"/>
<path d="M444.501 33C444.503 35.2372 444.17 37.4621 443.511 39.6C443.301 39.21 443.076 38.82 442.851 38.445C443.749 36.2299 444.285 33.8851 444.441 31.5C444.486 31.995 444.501 32.49 444.501 33V33Z" fill="#1E81CE"/>
<path d="M422 54C417.253 54 412.613 52.5924 408.666 49.9553C404.719 47.3181 401.643 43.5698 399.827 39.1844C398.01 34.799 397.535 29.9734 398.461 25.3178C399.387 20.6623 401.673 16.3859 405.029 13.0294C408.386 9.67299 412.662 7.38721 417.318 6.46116C421.973 5.53512 426.799 6.0104 431.184 7.8269C435.57 9.64341 439.318 12.7195 441.955 16.6663C444.592 20.6131 446 25.2533 446 30C445.992 36.3629 443.461 42.463 438.962 46.9622C434.463 51.4615 428.363 53.9925 422 54ZM422 9.00001C417.847 9.00001 413.786 10.2316 410.333 12.5391C406.88 14.8467 404.188 18.1264 402.598 21.9637C401.009 25.8009 400.593 30.0233 401.403 34.0969C402.214 38.1705 404.214 41.9124 407.151 44.8493C410.088 47.7862 413.829 49.7862 417.903 50.5965C421.977 51.4068 426.199 50.9909 430.036 49.4015C433.874 47.812 437.153 45.1204 439.461 41.667C441.768 38.2136 443 34.1534 443 30C442.994 24.4323 440.78 19.0943 436.843 15.1573C432.906 11.2204 427.568 9.00597 422 9.00001Z" fill="#B2ABB1"/>
<path d="M422 52C434.15 52 444 42.1503 444 30C444 17.8497 434.15 8 422 8C409.85 8 400 17.8497 400 30C400 42.1503 409.85 52 422 52Z" fill="#F3F3F5"/>
<path d="M433.686 28.6406L433.686 28.639L434.485 23.1131C433.255 22.2176 431.805 21.6766 430.292 21.5457L431.316 28.6392L431.316 28.6406C431.35 28.8792 431.468 29.0976 431.65 29.2556C431.832 29.4136 432.065 29.5006 432.306 29.5006L433.686 28.6406ZM433.686 28.6406C433.652 28.8792 433.533 29.0976 433.351 29.2556M433.686 28.6406L433.351 29.2556M433.351 29.2556C433.169 29.4136 432.937 29.5006 432.696 29.5006M433.351 29.2556L432.696 29.5006M432.696 29.5006C432.696 29.5006 432.696 29.5006 432.696 29.5006M432.696 29.5006H432.696M432.696 29.5006H432.306H432.696Z" stroke="#B2ABB1"/>
<path d="M423.184 27.14L423.184 27.1395L423.987 21.5H420.01L420.814 27.1395L420.814 27.14C420.847 27.3786 420.966 27.5969 421.148 27.7549C421.33 27.9129 421.563 27.9999 421.804 28L423.184 27.14ZM423.184 27.14C423.15 27.3786 423.031 27.5969 422.849 27.7549C422.667 27.9129 422.435 27.9999 422.194 28C422.194 28 422.194 28 422.194 28H421.804L423.184 27.14Z" stroke="#B2ABB1"/>
<path d="M412.684 28.6406L412.685 28.6392L413.708 21.5457C412.196 21.6766 410.745 22.2176 409.515 23.1131L410.314 28.639L410.315 28.6406C410.348 28.8792 410.467 29.0976 410.649 29.2556C410.831 29.4135 411.064 29.5006 411.305 29.5006L412.684 28.6406ZM412.684 28.6406C412.651 28.8792 412.532 29.0976 412.35 29.2556M412.684 28.6406L412.35 29.2556M412.35 29.2556C412.168 29.4135 411.935 29.5006 411.695 29.5006M412.35 29.2556L411.695 29.5006M411.695 29.5006C411.695 29.5006 411.695 29.5006 411.694 29.5006M411.695 29.5006H411.694M411.694 29.5006H411.305H411.694Z" stroke="#B2ABB1"/>
<path d="M432.305 31.0009H432.305C431.703 31.0008 431.12 30.7832 430.666 30.3882C430.211 29.9934 429.915 29.448 429.83 28.8521C429.83 28.8517 429.83 28.8513 429.83 28.8509L428.842 22.0009H425.433L424.67 27.3509C424.67 27.351 424.67 27.3511 424.67 27.3512L424.67 27.3519L423.68 27.2109L432.305 31.0009ZM432.305 31.0009H432.695H432.695C433.298 31.0008 433.88 30.7832 434.334 30.3882C434.789 29.9936 435.085 29.4483 435.17 28.8526C435.17 28.852 435.17 28.8514 435.17 28.8509L435.729 24.9892M432.305 31.0009L435.729 24.9892M435.729 24.9892C436.102 25.4504 436.423 25.9534 436.686 26.4895C437.222 27.5822 437.501 28.7832 437.5 30.0003V30.0009L437.5 32.9979C437.5 32.9983 437.5 32.9986 437.5 32.999C437.498 33.5294 437.287 34.0374 436.912 34.4124C436.537 34.7874 436.029 34.9989 435.498 35.0009H408.502C407.971 34.9989 407.463 34.7874 407.088 34.4124C406.713 34.0375 406.502 33.5295 406.5 32.9992L406.5 30.0009L406.5 30.0003C406.499 28.7832 406.778 27.5822 407.314 26.4895C407.577 25.9534 407.898 25.4504 408.271 24.9892L408.83 28.8509C408.83 28.8515 408.83 28.8521 408.83 28.8527C408.915 29.4484 409.211 29.9936 409.666 30.3882C410.12 30.7832 410.703 31.0008 411.305 31.0009H411.305H411.695H411.695C412.297 31.0008 412.88 30.7832 413.334 30.3882C413.789 29.9934 414.085 29.448 414.17 28.852C414.17 28.8516 414.17 28.8513 414.17 28.8509L415.158 22.0009H418.567L419.33 27.3509C419.33 27.351 419.33 27.3511 419.33 27.3512L435.729 24.9892Z" stroke="#B2ABB1" stroke-width="2"/>
<path d="M416 94.5H413V73.5C413 73.1022 412.842 72.7206 412.561 72.4393C412.279 72.158 411.898 72 411.5 72H402.5C402.102 72 401.721 72.158 401.439 72.4393C401.158 72.7206 401 73.1022 401 73.5V94.5H398V73.5C398 72.3065 398.474 71.1619 399.318 70.318C400.162 69.4741 401.307 69 402.5 69H411.5C412.693 69 413.838 69.4741 414.682 70.318C415.526 71.1619 416 72.3065 416 73.5V94.5Z" fill="#B2ABB1"/>
<path d="M443 84H425C424.204 84 423.441 83.6839 422.879 83.1213C422.316 82.5587 422 81.7956 422 81V72C422 71.2044 422.316 70.4413 422.879 69.8787C423.441 69.3161 424.204 69 425 69H443C443.796 69 444.559 69.3161 445.121 69.8787C445.684 70.4413 446 71.2044 446 72V81C446 81.7956 445.684 82.5587 445.121 83.1213C444.559 83.6839 443.796 84 443 84ZM425 72V81H443V72H425Z" fill="#B2ABB1"/>
<path d="M380 93H464V96H380V93Z" fill="#B2ABB1"/>
<path d="M408.5 79.5H411.5V85.5H408.5V79.5Z" fill="#B2ABB1"/>
<path d="M835.86 41.0214C835.598 40.0487 834.96 39.2194 834.087 38.7167C833.213 38.2115 832.174 38.0748 831.2 38.3364C830.226 38.5986 829.397 39.2361 828.894 40.1093L828.261 41.2113C827.659 40.8656 826.891 41.069 826.539 41.6676L823.322 47.1508L822.22 46.5176C821.928 46.3488 821.581 46.303 821.255 46.3909C820.929 46.4793 820.652 46.6932 820.485 46.9864C820.142 47.5918 820.351 48.361 820.954 48.7086L822.056 49.3418L811.291 67.9966L808.631 75.1018L807.365 77.4696C806.623 78.7596 806.702 80.363 807.567 81.5732L804.718 85.0683L803.92 83.0678C803.56 82.1761 802.727 81.5652 801.769 81.4903C800.811 81.4149 799.893 81.8886 799.399 82.7129L798.943 83.4852L798.512 78.4194C798.413 77.221 797.485 76.2576 796.292 76.1129C795.098 75.9688 793.967 76.6843 793.586 77.8246L790.47 87.1708C790.253 87.8319 790.609 88.5442 791.268 88.7669C791.392 88.8244 791.525 88.859 791.661 88.8677C792.205 88.8695 792.69 88.5226 792.864 88.0069L795.967 78.6606L796.41 83.8019C796.501 84.8989 797.29 85.811 798.362 86.0596C799.434 86.3082 800.544 85.8357 801.108 84.8914L801.577 84.1185L802.362 86.1072C802.696 86.9451 803.45 87.5431 804.342 87.676C805.234 87.809 806.13 87.4571 806.694 86.7528L809.645 83.0171C809.971 83.1025 810.307 83.1451 810.645 83.1439C812.002 83.1544 813.263 82.4396 813.95 81.269L815.217 79.1541L820.042 73.2906L830.921 54.4076L832.023 55.0408C832.316 55.209 832.53 55.4867 832.618 55.8138C832.705 56.1384 832.66 56.4847 832.491 56.776L827.426 65.5527C827.235 65.8409 827.17 66.1946 827.246 66.5322C827.323 66.8693 827.534 67.1605 827.831 67.338C828.123 67.5074 828.47 67.5532 828.795 67.4654C829.121 67.377 829.398 67.163 829.566 66.8699L834.632 58.0932C835.137 57.2194 835.273 56.1805 835.011 55.2059C834.749 54.2326 834.112 53.4033 833.238 52.9006L832.136 52.2674L835.303 46.7835C835.648 46.1818 835.445 45.4138 834.847 45.0613L835.48 43.9594C835.999 43.072 836.136 42.0121 835.86 41.0214ZM831.085 41.3758C831.253 41.0826 831.531 40.8681 831.858 40.7809C832.183 40.7005 832.527 40.7456 832.82 40.9076C833.114 41.0752 833.328 41.3535 833.416 41.68C833.496 42.0053 833.451 42.3491 833.289 42.6422L832.656 43.7442L830.452 42.4777L831.085 41.3758ZM813.824 76.7356L811.316 75.2787L813.114 70.4664L817.104 72.7711L813.824 76.7356ZM810.024 80.3952C809.489 80.0223 809.325 79.305 809.645 78.736L810.278 77.6347L812.481 78.9012L811.848 79.9901C811.67 80.2981 811.372 80.517 811.025 80.5943C810.679 80.671 810.316 80.5992 810.024 80.3952ZM818.547 70.6946L814.166 68.1617L824.297 50.6082L828.679 53.1411L818.547 70.6946ZM829.945 50.9502L825.564 48.4173L828.097 44.0354L832.478 46.5683L829.945 50.9502Z" fill="#B2ABB1"/>
<path d="M779.984 79.7615L775.502 84.2324L772.817 81.5474C772.323 81.0564 771.525 81.0564 771.031 81.5474C770.791 81.7855 770.656 82.1089 770.656 82.4466C770.656 82.7842 770.791 83.1082 771.031 83.3457L773.716 86.0307C774.191 86.5019 774.833 86.766 775.502 86.7653C776.175 86.7691 776.822 86.505 777.3 86.0307L781.77 81.5474C782.201 81.0447 782.172 80.2958 781.704 79.8283C781.236 79.3602 780.487 79.3311 779.984 79.7615Z" fill="#B2ABB1"/>
<path d="M765.066 83.168C765.066 89.1138 769.886 93.9329 775.831 93.9329C781.776 93.9329 786.596 89.1138 786.596 83.168C786.596 82.4686 786.029 81.9016 785.329 81.9016C784.63 81.9016 784.063 82.4686 784.063 83.168C784.063 87.7144 780.377 91.4 775.831 91.4C771.285 91.4 767.599 87.7144 767.599 83.168C767.599 78.6217 771.285 74.9361 775.831 74.9361C777.613 74.9311 779.348 75.5093 780.77 76.5828C781.33 77.0027 782.124 76.8889 782.543 76.3293C782.963 75.7697 782.85 74.9763 782.29 74.5564C779.028 72.1101 774.663 71.7168 771.017 73.5398C767.37 75.3634 765.066 79.091 765.066 83.168Z" fill="#B2ABB1"/>
<path d="M805.592 33.1431C806.291 33.1431 806.858 32.5767 806.858 31.8766C806.858 31.1773 806.291 30.6102 805.592 30.6102H772.664C771.965 30.6102 771.398 31.1773 771.398 31.8766V36.9424C771.398 37.6425 771.965 38.2089 772.664 38.2089H805.592C806.291 38.2089 806.858 37.6425 806.858 36.9424C806.858 36.2431 806.291 35.676 805.592 35.676H773.931V33.1431H805.592Z" fill="#B2ABB1"/>
<path d="M776.463 40.7423C775.764 40.7423 775.197 41.3094 775.197 42.0088C775.197 42.7088 775.764 43.2752 776.463 43.2752H801.792C802.492 43.2752 803.059 42.7088 803.059 42.0088C803.059 41.3094 802.492 40.7423 801.792 40.7423H776.463Z" fill="#B2ABB1"/>
<path d="M809.391 49.6076H781.529C780.83 49.6076 780.263 50.1747 780.263 50.8741C780.263 51.5741 780.83 52.1405 781.529 52.1405H809.391C810.091 52.1405 810.658 51.5741 810.658 50.8741C810.658 50.1747 810.091 49.6076 809.391 49.6076Z" fill="#B2ABB1"/>
<path d="M796.727 58.4725C796.727 57.7732 796.16 57.2061 795.461 57.2061H770.132C769.432 57.2061 768.865 57.7732 768.865 58.4725C768.865 59.1726 769.432 59.739 770.132 59.739H795.461C796.16 59.739 796.727 59.1726 796.727 58.4725Z" fill="#B2ABB1"/>
<path d="M809.392 57.2061H800.527C799.828 57.2061 799.26 57.7732 799.26 58.4725C799.26 59.1726 799.828 59.739 800.527 59.739H809.392C810.091 59.739 810.658 59.1726 810.658 58.4725C810.658 57.7732 810.091 57.2061 809.392 57.2061Z" fill="#B2ABB1"/>
<path d="M782.796 66.0706C783.496 66.0706 784.063 65.5042 784.063 64.8042C784.063 64.1048 783.496 63.5377 782.796 63.5377H770.132C769.432 63.5377 768.865 64.1048 768.865 64.8042C768.865 65.5042 769.432 66.0706 770.132 66.0706H782.796Z" fill="#B2ABB1"/>
<path d="M787.862 66.0706H796.728C797.427 66.0706 797.994 65.5042 797.994 64.8042C797.994 64.1048 797.427 63.5377 796.728 63.5377H787.862C787.163 63.5377 786.596 64.1048 786.596 64.8042C786.596 65.5042 787.163 66.0706 787.862 66.0706Z" fill="#B2ABB1"/>
<path d="M816.99 81.2685C816.291 81.2685 815.724 81.8355 815.724 82.5349V95.1994C815.724 95.8994 815.157 96.4659 814.457 96.4659H763.799C763.1 96.4659 762.533 95.8994 762.533 95.1994V26.8111C762.533 26.1117 763.1 25.5446 763.799 25.5446H814.457C815.157 25.5446 815.724 26.1117 815.724 26.8111V50.5954C815.724 51.2948 816.291 51.8618 816.99 51.8618C817.69 51.8618 818.257 51.2948 818.257 50.5954V26.8111C818.257 24.7129 816.556 23.0117 814.457 23.0117H763.799C761.701 23.0117 760 24.7129 760 26.8111V95.1994C760 97.2982 761.701 98.9988 763.799 98.9988H814.457C816.556 98.9988 818.257 97.2982 818.257 95.1994V82.5349C818.257 81.8355 817.69 81.2685 816.99 81.2685Z" fill="#B2ABB1"/>
<rect x="859" y="50" width="179" height="4" rx="2" fill="#E6E1E5"/>
<rect x="472" y="50" width="250" height="4" rx="2" fill="#E6E1E5"/>
<rect x="124" y="50" width="250" height="4" rx="2" fill="#E6E1E5"/>
<rect x="122" y="50" width="139" height="4" rx="2" fill="#FFA626"/>
<circle cx="257" cy="52" r="4" fill="#FFA626"/>
<defs>
<clipPath id="clip0">
<rect x="1108" y="3" width="96" height="96" fill="white"/>
</clipPath>
</defs>
</svg>
