<svg width="46" height="53" viewBox="0 0 46 53" fill="none" xmlns="http://www.w3.org/2000/svg">
<path d="M45.7511 29.625H44.0011C44.0017 30.4008 43.7441 31.1547 43.2688 31.7679C42.7935 32.381 42.1276 32.8185 41.3761 33.0112C41.0911 33.0894 40.7966 33.1277 40.5011 33.125C39.5728 33.125 38.6826 32.7562 38.0262 32.0999C37.3699 31.4435 37.0011 30.5533 37.0011 29.625V26.125C37.0053 24.1091 36.506 22.124 35.5486 20.35C35.4261 20.1225 35.2949 19.895 35.1636 19.6762C34.0782 17.9351 32.5746 16.493 30.7896 15.4814C29.0047 14.4697 26.995 13.9205 24.9436 13.8838C24.9459 13.8838 24.9481 13.8828 24.9498 13.8812C24.9514 13.8795 24.9524 13.8773 24.9524 13.875H30.0011C32.0696 13.8742 34.1181 14.281 36.0293 15.0723C37.9406 15.8635 39.6771 17.0236 41.1398 18.4863C42.6025 19.949 43.7626 21.6855 44.5539 23.5968C45.3451 25.508 45.7519 27.5564 45.7511 29.625Z" fill="#3D9AE2"/>
<path d="M21.0575 13.8838C19.0061 13.9205 16.9964 14.4697 15.2115 15.4814C13.4265 16.493 11.9229 17.9351 10.8375 19.6762C10.7063 19.895 10.575 20.1225 10.4525 20.35C9.49507 22.124 8.9958 24.1091 9 26.125V29.625C9 30.5533 8.63125 31.4435 7.97487 32.0999C7.3185 32.7563 6.42826 33.125 5.5 33.125C5.20448 33.1277 4.91001 33.0894 4.625 33.0112C3.87354 32.8185 3.20764 32.381 2.73234 31.7679C2.25703 31.1547 1.99937 30.4008 2 29.625H0.25C0.253476 25.4489 1.91396 21.4449 4.86691 18.4919C7.81985 15.539 11.8239 13.8785 16 13.875H21.0487C21.0487 13.8773 21.0497 13.8795 21.0513 13.8812C21.053 13.8828 21.0552 13.8838 21.0575 13.8838Z" fill="#FF6243"/>
<path d="M41.375 33.0112V50.625C41.3736 51.0887 41.1888 51.533 40.8609 51.8609C40.533 52.1888 40.0887 52.3736 39.625 52.375H6.375C5.9113 52.3736 5.46698 52.1888 5.13909 51.8609C4.8112 51.533 4.62638 51.0887 4.625 50.625V33.0112C4.91001 33.0894 5.20448 33.1277 5.5 33.125C6.42826 33.125 7.3185 32.7563 7.97487 32.0999C8.63125 31.4435 9 30.5533 9 29.625C9 30.5533 9.36875 31.4435 10.0251 32.0999C10.6815 32.7563 11.5717 33.125 12.5 33.125C13.4283 33.125 14.3185 32.7563 14.9749 32.0999C15.6313 31.4435 16 30.5533 16 29.625C16 30.5533 16.3687 31.4435 17.0251 32.0999C17.6815 32.7563 18.5717 33.125 19.5 33.125C20.4283 33.125 21.3185 32.7563 21.9749 32.0999C22.6313 31.4435 23 30.5533 23 29.625C23 30.5533 23.3687 31.4435 24.0251 32.0999C24.6815 32.7563 25.5717 33.125 26.5 33.125C27.4283 33.125 28.3185 32.7563 28.9749 32.0999C29.6313 31.4435 30 30.5533 30 29.625C30 30.5533 30.3687 31.4435 31.0251 32.0999C31.6815 32.7563 32.5717 33.125 33.5 33.125C34.4283 33.125 35.3185 32.7563 35.9749 32.0999C36.6312 31.4435 37 30.5533 37 29.625C37 30.5533 37.3688 31.4435 38.0251 32.0999C38.6815 32.7563 39.5717 33.125 40.5 33.125C40.7955 33.1277 41.09 33.0894 41.375 33.0112Z" fill="#00CCB3"/>
<path d="M18.625 40.125V52.375H9.875V40.125C9.87638 39.6613 10.0612 39.217 10.3891 38.8891C10.717 38.5612 11.1613 38.3764 11.625 38.375H16.875C17.3387 38.3764 17.783 38.5612 18.1109 38.8891C18.4388 39.217 18.6236 39.6613 18.625 40.125Z" fill="#96C8EF"/>
<path d="M35.25 38.375H24.75C24.2668 38.375 23.875 38.7668 23.875 39.25V44.5C23.875 44.9832 24.2668 45.375 24.75 45.375H35.25C35.7332 45.375 36.125 44.9832 36.125 44.5V39.25C36.125 38.7668 35.7332 38.375 35.25 38.375Z" fill="#96C8EF"/>
<path d="M30 20.875V29.625C30 30.5533 29.6313 31.4435 28.9749 32.0999C28.3185 32.7563 27.4283 33.125 26.5 33.125C25.5717 33.125 24.6815 32.7563 24.0251 32.0999C23.3688 31.4435 23 30.5533 23 29.625V13.875C23.5843 13.876 24.1663 13.9495 24.7325 14.0938C26.0942 14.441 27.3198 15.1901 28.2499 16.2435C29.18 17.2969 29.7715 18.6058 29.9475 20C29.9827 20.2903 30.0002 20.5825 30 20.875Z" fill="#3D9AE2"/>
<path d="M22.9998 13.8754C21.294 13.8733 19.6462 14.4947 18.3667 15.6228C17.0871 16.7509 16.264 18.3077 16.0523 20.0004C16.0171 20.2907 15.9996 20.5829 15.9998 20.8754V29.6254C15.9998 30.5536 15.631 31.4439 14.9747 32.1002C14.3183 32.7566 13.428 33.1254 12.4998 33.1254C11.5715 33.1254 10.6813 32.7566 10.0249 32.1002C9.36853 31.4439 8.99978 30.5536 8.99978 29.6254V26.1254C8.99559 24.1095 9.49485 22.1244 10.4523 20.3504C10.5748 20.1229 10.706 19.8954 10.8373 19.6766C11.9227 17.9355 13.4263 16.4934 15.2112 15.4817C16.9962 14.47 19.0059 13.9208 21.0573 13.8841C21.1212 13.8768 21.1855 13.8739 21.2498 13.8754H22.9998Z" fill="#3D9AE2"/>
<path d="M37 26.1254V29.6254C37 30.5536 36.6313 31.4439 35.9749 32.1002C35.3185 32.7566 34.4283 33.1254 33.5 33.1254C32.5717 33.1254 31.6815 32.7566 31.0251 32.1002C30.3687 31.4439 30 30.5536 30 29.6254V20.8754C30.0002 20.5829 29.9827 20.2907 29.9475 20.0004C29.7715 18.6062 29.18 17.2972 28.2499 16.2438C27.3198 15.1905 26.0942 14.4414 24.7325 14.0941C24.1663 13.9498 23.5843 13.8764 23 13.8754H24.75C24.8143 13.8739 24.8786 13.8768 24.9425 13.8841C26.9939 13.9208 29.0036 14.47 30.7885 15.4817C32.5735 16.4934 34.0771 17.9355 35.1625 19.6766C35.2938 19.8954 35.425 20.1229 35.5475 20.3504C36.5049 22.1244 37.0042 24.1095 37 26.1254Z" fill="#FF6243"/>
<path d="M23 13.875V29.625C23 30.5533 22.6313 31.4435 21.9749 32.0999C21.3185 32.7563 20.4283 33.125 19.5 33.125C18.5717 33.125 17.6815 32.7563 17.0251 32.0999C16.3688 31.4435 16 30.5533 16 29.625V20.875C15.9998 20.5825 16.0173 20.2903 16.0525 20C16.2673 18.3087 17.0913 16.7536 18.3702 15.6262C19.6491 14.4987 21.2951 13.8761 23 13.875Z" fill="#FF6243"/>
<path d="M41.375 33.0113V34.7613C41.09 34.8394 40.7955 34.8777 40.5 34.875C39.5717 34.875 38.6815 34.5063 38.0251 33.8499C37.3688 33.1935 37 32.3033 37 31.375C37 32.3033 36.6312 33.1935 35.9749 33.8499C35.3185 34.5063 34.4283 34.875 33.5 34.875C32.5717 34.875 31.6815 34.5063 31.0251 33.8499C30.3687 33.1935 30 32.3033 30 31.375C30 32.3033 29.6313 33.1935 28.9749 33.8499C28.3185 34.5063 27.4283 34.875 26.5 34.875C25.5717 34.875 24.6815 34.5063 24.0251 33.8499C23.3687 33.1935 23 32.3033 23 31.375C23 32.3033 22.6313 33.1935 21.9749 33.8499C21.3185 34.5063 20.4283 34.875 19.5 34.875C18.5717 34.875 17.6815 34.5063 17.0251 33.8499C16.3687 33.1935 16 32.3033 16 31.375C16 32.3033 15.6313 33.1935 14.9749 33.8499C14.3185 34.5063 13.4283 34.875 12.5 34.875C11.5717 34.875 10.6815 34.5063 10.0251 33.8499C9.36875 33.1935 9 32.3033 9 31.375C9 32.3033 8.63125 33.1935 7.97487 33.8499C7.3185 34.5063 6.42826 34.875 5.5 34.875C5.20448 34.8777 4.91001 34.8394 4.625 34.7613V33.0113C4.91001 33.0894 5.20448 33.1277 5.5 33.125C6.42826 33.125 7.3185 32.7563 7.97487 32.0999C8.63125 31.4435 9 30.5533 9 29.625C9 30.5533 9.36875 31.4435 10.0251 32.0999C10.6815 32.7563 11.5717 33.125 12.5 33.125C13.4283 33.125 14.3185 32.7563 14.9749 32.0999C15.6313 31.4435 16 30.5533 16 29.625C16 30.5533 16.3687 31.4435 17.0251 32.0999C17.6815 32.7563 18.5717 33.125 19.5 33.125C20.4283 33.125 21.3185 32.7563 21.9749 32.0999C22.6313 31.4435 23 30.5533 23 29.625C23 30.5533 23.3687 31.4435 24.0251 32.0999C24.6815 32.7563 25.5717 33.125 26.5 33.125C27.4283 33.125 28.3185 32.7563 28.9749 32.0999C29.6313 31.4435 30 30.5533 30 29.625C30 30.5533 30.3687 31.4435 31.0251 32.0999C31.6815 32.7563 32.5717 33.125 33.5 33.125C34.4283 33.125 35.3185 32.7563 35.9749 32.0999C36.6312 31.4435 37 30.5533 37 29.625C37 30.5533 37.3688 31.4435 38.0251 32.0999C38.6815 32.7563 39.5717 33.125 40.5 33.125C40.7955 33.1277 41.09 33.0894 41.375 33.0113Z" fill="#00B39D"/>
<path d="M18.625 41V44.5L10.75 52.375H9.875V49.75L18.625 41Z" fill="#78B9EB"/>
<path d="M18.625 46.25V49.3125L15.5625 52.375H12.5L18.625 46.25Z" fill="#78B9EB"/>
<path d="M36.125 39.25L30 45.375H26.5L33.5 38.375H35.25C35.4821 38.375 35.7046 38.4672 35.8687 38.6313C36.0328 38.7954 36.125 39.0179 36.125 39.25Z" fill="#78B9EB"/>
<path d="M36.125 41V44.0625L34.8125 45.375H31.75L36.125 41Z" fill="#78B9EB"/>
<path d="M16.0014 25.8533V27.5945C13.3452 25.9207 11.377 23.3503 10.4539 20.3495C10.5764 20.122 10.7076 19.8945 10.8389 19.6758C11.8701 22.2249 13.6759 24.3857 16.0014 25.8533Z" fill="#1E81CE"/>
<path d="M10.8375 19.6762C10.7063 19.895 10.575 20.1225 10.4525 20.35C10.0681 19.1029 9.87342 17.805 9.87501 16.5C9.87501 16.2025 9.88376 15.9138 9.91001 15.625C10.0006 17.0163 10.3137 18.3841 10.8375 19.6762Z" fill="#ED1C24"/>
<path d="M23 27.8748V29.6248C20.5209 29.6291 18.0922 28.9248 16 27.5948V25.8535C18.0934 27.1797 20.5219 27.8809 23 27.8748Z" fill="#ED1C24"/>
<path d="M30 25.8535V27.5948C27.9078 28.9248 25.4791 29.6291 23 29.6248V27.8748C25.4781 27.8809 27.9066 27.1797 30 25.8535Z" fill="#1E81CE"/>
<path d="M35.5475 20.3515C34.6244 23.3522 32.6562 25.9227 30 27.5965V25.8552C32.3255 24.3877 34.1313 22.2269 35.1625 19.6777C35.2938 19.8965 35.425 20.124 35.5475 20.3515Z" fill="#ED1C24"/>
<path d="M36.1253 16.5C36.1269 17.805 35.9322 19.1029 35.5478 20.35C35.4253 20.1225 35.2941 19.895 35.1628 19.6762C35.6866 18.3841 35.9998 17.0163 36.0903 15.625C36.1166 15.9138 36.1253 16.2025 36.1253 16.5Z" fill="#1E81CE"/>
<path d="M23 27.875C30.2487 27.875 36.125 21.9987 36.125 14.75C36.125 7.50126 30.2487 1.625 23 1.625C15.7513 1.625 9.875 7.50126 9.875 14.75C9.875 21.9987 15.7513 27.875 23 27.875Z" fill="#FFD422"/>
<path d="M27.4975 9.5073L28.145 13.996C28.1745 14.2048 28.2784 14.3959 28.4376 14.5341C28.5967 14.6724 28.8004 14.7485 29.0113 14.7485H29.2388C29.4496 14.7485 29.6533 14.6724 29.8125 14.5341C29.9716 14.3959 30.0755 14.2048 30.105 13.996L30.595 10.6098C31.2272 11.0986 31.7389 11.7259 32.0908 12.4434C32.4427 13.1608 32.6255 13.9494 32.625 14.7485V16.4985C32.6236 16.9622 32.4388 17.4066 32.1109 17.7345C31.783 18.0623 31.3387 18.2472 30.875 18.2485H15.125C14.6613 18.2472 14.217 18.0623 13.8891 17.7345C13.5612 17.4066 13.3764 16.9622 13.375 16.4985V14.7485C13.3746 13.9494 13.5573 13.1608 13.9092 12.4434C14.2611 11.7259 14.7728 11.0986 15.405 10.6098L15.895 13.996C15.9245 14.2048 16.0284 14.3959 16.1876 14.5341C16.3467 14.6724 16.5504 14.7485 16.7613 14.7485H16.9888C17.1996 14.7485 17.4033 14.6724 17.5624 14.5341C17.7216 14.3959 17.8255 14.2048 17.855 13.996L18.5025 9.5073C18.5429 9.49971 18.584 9.49678 18.625 9.49855H21.5038L22.02 13.121C22.0495 13.3298 22.1534 13.5209 22.3126 13.6591C22.4717 13.7974 22.6754 13.8735 22.8863 13.8735H23.1138C23.3246 13.8735 23.5283 13.7974 23.6874 13.6591C23.8466 13.5209 23.9505 13.3298 23.98 13.121L24.4963 9.49855H27.375C27.416 9.49678 27.4571 9.49971 27.4975 9.5073Z" fill="#C49A6C"/>
<path d="M23 28.75C20.2311 28.75 17.5243 27.9289 15.222 26.3906C12.9197 24.8522 11.1253 22.6657 10.0657 20.1076C9.00607 17.5494 8.72882 14.7345 9.26901 12.0187C9.80921 9.30301 11.1426 6.80845 13.1005 4.85051C15.0584 2.89258 17.553 1.55921 20.2687 1.01901C22.9845 0.478819 25.7994 0.756066 28.3576 1.81569C30.9157 2.87532 33.1022 4.66973 34.6406 6.97202C36.1789 9.27431 37 11.9811 37 14.75C36.9956 18.4617 35.5192 22.0201 32.8946 24.6446C30.2701 27.2692 26.7117 28.7456 23 28.75ZM23 2.50001C20.5772 2.50001 18.2088 3.21846 16.1943 4.5645C14.1798 5.91055 12.6097 7.82374 11.6825 10.0621C10.7553 12.3005 10.5127 14.7636 10.9854 17.1399C11.4581 19.5161 12.6248 21.6989 14.3379 23.4121C16.0511 25.1253 18.2339 26.292 20.6102 26.7646C22.9864 27.2373 25.4495 26.9947 27.6879 26.0675C29.9263 25.1404 31.8395 23.5702 33.1855 21.5557C34.5316 19.5412 35.25 17.1728 35.25 14.75C35.2465 11.5022 33.9548 8.38835 31.6582 6.09179C29.3617 3.79522 26.2478 2.50348 23 2.50001Z" fill="#FFA733"/>
<path d="M19.5 52.375H17.75V40.125C17.75 39.8929 17.6578 39.6704 17.4937 39.5063C17.3296 39.3422 17.1071 39.25 16.875 39.25H11.625C11.3929 39.25 11.1704 39.3422 11.0063 39.5063C10.8422 39.6704 10.75 39.8929 10.75 40.125V52.375H9V40.125C9 39.4288 9.27656 38.7611 9.76884 38.2688C10.2611 37.7766 10.9288 37.5 11.625 37.5H16.875C17.5712 37.5 18.2389 37.7766 18.7312 38.2688C19.2234 38.7611 19.5 39.4288 19.5 40.125V52.375Z" fill="#009986"/>
<path d="M35.25 46.25H24.75C24.2859 46.25 23.8408 46.0656 23.5126 45.7374C23.1844 45.4092 23 44.9641 23 44.5V39.25C23 38.7859 23.1844 38.3408 23.5126 38.0126C23.8408 37.6844 24.2859 37.5 24.75 37.5H35.25C35.7141 37.5 36.1592 37.6844 36.4874 38.0126C36.8156 38.3408 37 38.7859 37 39.25V44.5C37 44.9641 36.8156 45.4092 36.4874 45.7374C36.1592 46.0656 35.7141 46.25 35.25 46.25ZM24.75 39.25V44.5H35.25V39.25H24.75Z" fill="#009986"/>
</svg>
