<svg width="175" height="175" viewBox="0 0 175 175" fill="none" xmlns="http://www.w3.org/2000/svg">
<path d="M140.394 82.0072C142.944 78.7697 150.5 76.1072 157.687 71.0697C165.725 65.4447 159.819 50.4947 159.819 50.4947C159.819 50.4947 157.512 62.8572 152.1 65.1197C147.087 67.2259 129.256 73.4072 127.794 84.2384C120.137 87.8572 113.194 94.3384 104.987 94.3384H96.7437C96.95 90.8634 98.15 86.0072 102.669 81.4572C109.737 74.3447 138.044 53.4134 141.681 49.7384C143.769 47.6384 143.587 40.6072 142.337 39.3634C140.131 37.1634 140.2 37.0634 137.756 39.5197C134.944 42.3572 134.681 42.6384 131.65 45.6947C128.612 48.7509 123.925 47.0884 121.006 44.1509C118.437 41.5572 121 38.4072 124.212 35.1572C127.431 31.9197 136.662 22.5634 141.844 17.3384C143.956 15.2009 144.131 9.93219 142.081 7.85719C140.287 6.05719 138.15 8.42594 135.831 10.7572L120.887 25.8072C118.687 28.0197 113.237 28.1197 110.444 25.2947C107.65 22.4759 108.256 20.3134 111.669 16.8572C115.087 13.4197 116.75 11.6447 116.75 11.6447C118.756 9.61969 120.325 3.40719 117.694 0.775938C116.719 -0.199062 115.762 -0.999062 111.562 3.23844C101.262 13.6134 100.769 14.1009 85.8562 29.0134C78.9187 35.9509 68.3937 47.9572 68.3937 56.5259C68.3937 71.0134 81.6562 63.7884 81.6562 78.6697C81.6562 84.5947 74.125 93.1259 66.7812 94.3447H63.4812C62.7903 94.2344 62.1162 94.037 61.475 93.7572C61.4875 93.9759 61.575 94.1384 61.6 94.3447H61.05C51.775 94.3447 49.0375 92.4572 49.0375 76.9572C49.0375 66.9884 57.15 43.2259 60.375 28.2447H61.875V22.6759C61.875 22.6759 74.3562 15.1009 74.3562 6.18219H66.225C66.225 6.18219 65.1187 8.90719 63.5 11.9447C61.4687 15.7759 58.625 20.1072 56.2125 20.1072C51.8875 20.1072 51.1187 9.28844 51.1187 9.28844L48.8375 0.582188L44.35 0.494688L41.3187 9.28219C41.3187 9.28219 41.075 18.2947 37.3812 19.6509C36.5665 19.5715 35.7519 19.4903 34.9375 19.4072C32.825 18.1634 30.7812 14.7009 29.3062 11.6197C28.4589 9.84787 27.6996 8.03524 27.0312 6.18844H18.7937C18.7937 18.8572 31.4 22.6822 31.4 22.6822V24.2447L31.1687 31.6384L17.1188 31.8384C17.1188 31.8384 12.5 31.5759 12.5 35.2572C12.5 38.9259 15.8625 43.1009 15.8625 43.1009H37.6125C37.6125 62.5822 18.4625 75.4572 18.4625 97.5697C18.4625 122.145 38.6687 130.47 51.2625 130.47L59.075 130.476C55.0375 139.745 47.4875 156.851 46.1562 158.201H44.8625L42.275 152.445L35.725 144.013H25.3687L25.3062 151.301L35.1125 154.295V163.013H25.6L24.9187 168.07L29.2812 174.32H37.5062L40.775 167.376L47.9625 167.538L53.5312 174.026L61.6375 174.32C61.6375 174.32 63.5187 162.838 52.1625 162.838L57.0562 156.676L73.0312 130.482L78.55 130.476C79.6 130.438 80.575 130.338 81.55 130.232L99.1437 156.257L102.637 163.332C91.2875 163.332 93.9687 174.201 93.9687 174.201H105.256L106.831 167.457L115.469 167.295L118.481 174.457H125.25L130.4 169.145L130.294 162.607H121.15V154.695L130.006 150.707L130.025 144.151H119.069L113.794 152.945L111.194 157.882H108.637C107.012 156.232 97.5062 131.957 95.3125 126.313C105.281 121.088 110.662 112.032 120.919 105.176C121.691 104.64 122.445 104.079 123.181 103.495C123.787 112.963 133.075 118.182 142.406 118.182C149.925 118.182 162.031 113.595 162.031 102.263C162.025 89.0947 156.25 82.7947 140.394 82.0072ZM142.687 108.307C134.606 107.745 132.644 97.5947 132.644 97.5947L127.75 100.532L126.012 101.276C130.494 97.8134 136.456 93.7197 143.956 92.9697C153.994 91.9759 154.681 109.126 142.687 108.307Z" fill="#E6E1E5"/>
</svg>
