<svg width="159" height="35" viewBox="0 0 159 35" fill="none" xmlns="http://www.w3.org/2000/svg">
<path d="M21.8438 34.6555H25.7007L32.0157 16.0524L28.1673 16.0469L21.8438 34.6555Z" fill="black"/>
<path d="M20.4478 16.0469L14.1328 34.6555H17.9812L24.3048 16.0524L20.4478 16.0469Z" fill="black"/>
<path d="M47.4495 15.9316H34.8365V34.6559H38.5479V27.2213H47.4495C51.7319 27.2213 53.8788 25.2938 53.8702 21.5764C53.8616 17.8591 51.7347 15.9316 47.4495 15.9316ZM46.81 23.3663H38.5479V19.7866H46.81C48.9455 19.7866 50.0218 20.3373 50.0218 21.582C50.0218 22.8266 48.9541 23.3663 46.81 23.3663Z" fill="black"/>
<path d="M76.8076 16.207H57.6797V19.7866H76.8076V16.207Z" fill="black"/>
<path d="M4.00464 15.9316H0.0078125V34.6558H4.00464V15.9316Z" fill="black"/>
<path d="M12.7476 15.9316L6.42969 34.6558H10.2781L16.6017 15.9316H12.7476Z" fill="black"/>
<path d="M146.433 16.0254L140.109 34.6559H143.969L150.284 16.0447L146.433 16.0254Z" fill="black"/>
<path d="M127.338 27.8738C127.338 29.8701 126.068 30.8008 124.007 30.8008H118.62C116.558 30.8008 115.633 29.8784 115.633 27.8876V15.9316H111.922V28.3915C111.922 32.5218 113.818 34.6531 118.103 34.6531H124.532C128.814 34.6531 131.05 32.5218 131.05 28.3915V15.9316H127.338V27.8738Z" fill="black"/>
<path d="M138.729 15.9316L132.405 34.6559H136.262L142.577 15.9316H138.729Z" fill="black"/>
<path d="M147.828 34.6559H151.679L158.003 16.0447L154.146 16.0254L147.828 34.6559Z" fill="black"/>
<path d="M93.6962 27.1387C97.9786 27.1387 100.117 25.258 100.117 21.5434C100.117 17.8288 97.9815 15.9316 93.6962 15.9316H81.0861V34.6559H84.7975V27.2213H86.6274L95.6204 34.6559H101.385L92.4087 27.1717L93.6962 27.1387ZM84.7975 23.3663V19.7866H93.0567C95.1922 19.7866 96.2657 20.3373 96.2657 21.582C96.2657 22.8266 95.1979 23.3663 93.0567 23.3663H84.7975Z" fill="black"/>
<path d="M57.6797 27.2222H76.7333L76.8503 23.5352L57.6797 23.5572V27.2222Z" fill="black"/>
<path d="M107.922 15.9316H104.211V34.6558H107.922V15.9316Z" fill="black"/>
<path d="M57.6797 31.0762V34.7191L76.8418 34.7632L76.7419 31.0762H57.6797Z" fill="black"/>
<path d="M0.00285334 0.726412C0.757762 0.606853 1.52177 0.548825 2.28678 0.552939C3.46585 0.552939 4.32803 0.828292 4.87618 1.29364C5.14402 1.52859 5.35537 1.81718 5.49543 2.13919C5.63548 2.4612 5.70086 2.80886 5.68697 3.1578C5.70448 3.50472 5.65041 3.85155 5.52789 4.17817C5.40537 4.50478 5.21685 4.80469 4.97324 5.0605C4.34231 5.71034 3.31454 6.04077 2.14974 6.04077C1.82785 6.05058 1.50588 6.02378 1.19049 5.96091V9.54053H0L0.00285334 0.726412ZM1.19335 5.02195C1.5173 5.09262 1.84913 5.12407 2.18115 5.11557C3.6086 5.11557 4.49647 4.44095 4.49647 3.21012C4.49647 2.03435 3.64 1.46712 2.31818 1.46712C1.9409 1.45691 1.56361 1.48739 1.19335 1.55799V5.02195Z" fill="black"/>
<path d="M10.5695 9.53105L10.4724 8.72427H10.4296C10.1944 9.02687 9.88789 9.27111 9.53541 9.43678C9.18293 9.60245 8.79461 9.68479 8.40259 9.67698C7.06079 9.67698 6.37561 8.76282 6.37561 7.83764C6.37561 6.29291 7.80306 5.44759 10.3725 5.4586V5.32643C10.3725 4.79776 10.224 3.84779 8.86509 3.84779C8.25995 3.85161 7.66748 4.01542 7.15215 4.3214L6.86665 3.55592C7.52363 3.17447 8.27819 2.97799 9.04495 2.9887C11.0719 2.9887 11.5658 4.3214 11.5658 5.60454V7.99734C11.5578 8.51059 11.5941 9.0236 11.6743 9.53105H10.5695ZM10.3896 6.26538C9.0735 6.2406 7.58038 6.46363 7.58038 7.70547C7.56933 7.85284 7.59129 8.00078 7.64478 8.13924C7.69826 8.27771 7.782 8.40345 7.89033 8.50793C7.99866 8.61241 8.12903 8.69318 8.27259 8.74477C8.41615 8.79635 8.56954 8.81753 8.72234 8.80687C9.07311 8.81607 9.41779 8.71717 9.70631 8.52456C9.99484 8.33194 10.2122 8.05563 10.3268 7.73576C10.3691 7.61593 10.3922 7.49058 10.3953 7.36403L10.3896 6.26538Z" fill="black"/>
<path d="M14.0497 5.81313H14.6207C15.6342 5.81313 16.3194 5.36429 16.3194 4.76952C16.3194 4.17474 15.7855 3.84431 15.0318 3.84431C14.4661 3.85423 13.9133 4.00915 13.4302 4.29315L13.1276 3.57996C13.7933 3.19276 14.5571 2.99073 15.3344 2.9962C16.3479 2.9962 17.5812 3.43403 17.5812 4.6759C17.5812 5.46893 16.8275 5.98385 16.0881 6.12979V6.15733C17.073 6.23718 17.8953 6.81819 17.8953 7.75716C17.8953 9.13396 16.4307 9.6599 15.0404 9.6599C14.2907 9.66177 13.5523 9.48488 12.8906 9.14498L13.2047 8.36296C13.7438 8.643 14.3452 8.79321 14.9576 8.80078C15.9596 8.80078 16.5906 8.33817 16.5906 7.69934C16.5906 6.84022 15.657 6.5979 14.6578 6.5979H14.0554L14.0497 5.81313Z" fill="black"/>
<path d="M19.4052 5.22074C19.4052 4.39466 19.3795 3.73931 19.351 3.13077H20.4329L20.49 4.2322H20.5243C20.7639 3.8386 21.1098 3.51517 21.5252 3.29644C21.9405 3.07771 22.4096 2.97191 22.8824 2.99034C24.484 2.99034 25.6917 4.29829 25.6917 6.24232C25.6917 8.54156 24.2385 9.67879 22.6769 9.67879C22.2756 9.69542 21.8768 9.6116 21.5191 9.43548C21.1614 9.25935 20.857 8.99693 20.6357 8.67373H20.6071V12.146H19.4138L19.4052 5.22074ZM20.5985 6.9252C20.6023 7.08521 20.6205 7.24459 20.6528 7.40157C20.7531 7.79098 20.986 8.13667 21.3141 8.38329C21.6423 8.62991 22.0468 8.76321 22.4628 8.76184C23.7361 8.76184 24.4612 7.75954 24.4612 6.28362C24.4612 5.00045 23.7646 3.90452 22.4885 3.90452C22.0622 3.9156 21.6519 4.06312 21.3222 4.32385C20.9924 4.58457 20.7619 4.9437 20.6671 5.34465C20.6176 5.49917 20.5897 5.65938 20.5843 5.82102L20.5985 6.9252Z" fill="black"/>
<path d="M30.8735 9.53105L30.7764 8.72426H30.7365C30.5007 9.02692 30.1937 9.27115 29.8407 9.43681C29.4878 9.60246 29.0991 9.68478 28.7067 9.67698C27.3649 9.67698 26.6797 8.76281 26.6797 7.83763C26.6797 6.2929 28.1071 5.44757 30.6765 5.45859V5.32642C30.6765 4.79774 30.5252 3.84777 29.1691 3.84777C28.5592 3.84964 27.9616 4.0135 27.4419 4.32138L27.1564 3.5559C27.8135 3.17472 28.568 2.97826 29.3347 2.98867C31.3645 2.98867 31.8584 4.32138 31.8584 5.60452V7.99733C31.849 8.51062 31.8853 9.02375 31.9669 9.53105H30.8735ZM30.6965 6.26537C29.3804 6.24059 27.8844 6.46362 27.8844 7.70546C27.8739 7.85273 27.8962 8.00047 27.9498 8.13872C28.0035 8.27697 28.0872 8.40252 28.1955 8.5069C28.3037 8.61128 28.4338 8.69207 28.5772 8.74382C28.7205 8.79556 28.8737 8.81706 29.0264 8.80687C29.3758 8.815 29.7189 8.7163 30.0066 8.52488C30.2943 8.33347 30.5118 8.05917 30.628 7.74126C30.6703 7.62143 30.6934 7.49608 30.6965 7.36953V6.26537Z" fill="black"/>
<path d="M38.8266 0.963748C38.3736 1.09569 37.9106 1.19328 37.4419 1.25562C36.3742 1.41258 35.5919 1.75677 35.0866 2.45893C34.666 3.09478 34.4159 3.82147 34.3586 4.57367H34.3986C34.5962 4.14362 34.9192 3.77826 35.3283 3.52208C35.7373 3.26591 36.2148 3.12996 36.7025 3.1308C38.3326 3.1308 39.526 4.25426 39.526 6.29189C39.526 8.3791 38.4012 9.67603 36.4541 9.67603C34.1245 9.67603 33.3594 7.51998 33.3594 5.39148C33.3594 3.9376 33.6734 2.74806 34.3871 1.8504C35.0295 0.963748 35.9488 0.553466 37.2421 0.344196C37.7994 0.274798 38.3495 0.159648 38.8865 0L38.8266 0.963748ZM36.4541 3.99267C36.1446 3.98462 35.8393 4.06264 35.5745 4.21741C35.3097 4.37219 35.0968 4.59719 34.961 4.86555C34.7317 5.29 34.6187 5.76392 34.6327 6.24233C34.6327 7.2997 35.1665 8.81967 36.4827 8.81967C37.7988 8.81967 38.307 7.57781 38.307 6.39928C38.307 5.33916 37.8816 3.98991 36.4541 3.98991V3.99267Z" fill="black"/>
<path d="M47.0466 6.27805C47.0466 8.64333 45.348 9.6759 43.7435 9.6759C41.9477 9.6759 40.5631 8.40653 40.5631 6.37167C40.5631 4.23217 42.0163 2.97656 43.852 2.97656C45.7591 2.98758 47.0466 4.32029 47.0466 6.27805ZM41.785 6.34413C41.785 7.74568 42.6187 8.80303 43.7835 8.80303C44.9483 8.80303 45.799 7.75945 45.799 6.32486C45.799 5.24272 45.228 3.86595 43.8006 3.86595C42.3731 3.86595 41.785 5.12707 41.785 6.34413Z" fill="black"/>
<path d="M52.9391 3.13086V4.05879H50.8692V9.53003H49.6759V4.05879H47.6089V3.13086H52.9391Z" fill="black"/>
<path d="M57.5695 9.53105L57.4753 8.72427H57.4325C57.1973 9.02687 56.8908 9.27111 56.5383 9.43678C56.1858 9.60245 55.7975 9.68479 55.4055 9.67698C54.0608 9.67698 53.3756 8.76282 53.3756 7.83764C53.3756 6.29292 54.8031 5.44759 57.3725 5.4586V5.32644C57.3725 4.79776 57.2241 3.8478 55.8651 3.8478C55.2552 3.84995 54.6577 4.01379 54.1379 4.3214L53.8524 3.55593C54.5104 3.17439 55.2659 2.97792 56.0336 2.9887C58.0606 2.9887 58.5545 4.3214 58.5545 5.60454V7.99734C58.5465 8.51059 58.5828 9.0236 58.663 9.53105H57.5695ZM57.3925 6.26538C56.0764 6.2406 54.5832 6.46364 54.5832 7.70547C54.5722 7.85284 54.5942 8.00078 54.6476 8.13925C54.7011 8.27771 54.7849 8.40345 54.8932 8.50793C55.0015 8.61241 55.1319 8.69319 55.2755 8.74477C55.419 8.79635 55.5724 8.81753 55.7252 8.80687C56.0743 8.81527 56.4172 8.71663 56.7045 8.52514C56.9918 8.33365 57.2087 8.05919 57.324 7.74126C57.3663 7.62144 57.3894 7.49609 57.3925 7.36954V6.26538Z" fill="black"/>
<path d="M61.6666 3.13086V5.7109H64.8212V3.13086H66.0117V9.53003H64.8212V6.63884H61.6666V9.53003H60.4761V3.13086H61.6666Z" fill="black"/>
<path d="M73.9913 6.27811C73.9913 8.64343 72.2784 9.67602 70.6882 9.67602C68.8925 9.67602 67.5078 8.40662 67.5078 6.37173C67.5078 4.2322 68.961 2.97656 70.7967 2.97656C72.7009 2.98758 73.9913 4.32031 73.9913 6.27811ZM68.7269 6.34419C68.7269 7.74577 69.5634 8.80314 70.7424 8.80314C71.9215 8.80314 72.758 7.75953 72.758 6.32492C72.758 5.24276 72.187 3.86597 70.7596 3.86597C69.3321 3.86597 68.7269 5.12711 68.7269 6.34419Z" fill="black"/>
<path d="M78.3828 3.2105C79.0822 3.11069 79.7884 3.0619 80.4954 3.06456C81.6031 3.06456 83.4417 3.23803 83.4417 4.66437C83.4417 5.45739 82.8108 5.94752 82.0571 6.10723V6.13201C83.0306 6.26418 83.7415 6.79286 83.7415 7.71805C83.7415 9.39772 81.5489 9.60974 80.2471 9.60974C79.5076 9.60974 78.7397 9.55467 78.3828 9.52989V3.2105ZM79.5248 8.76165C79.8476 8.80179 80.1728 8.82019 80.4983 8.81672C81.3062 8.81672 82.511 8.62948 82.511 7.7153C82.511 6.80112 81.5517 6.59185 80.4012 6.59185H79.5248V8.76165ZM79.5248 5.81535H80.4269C81.3176 5.81535 82.2369 5.56478 82.2369 4.81031C82.2369 4.17699 81.6659 3.87135 80.4555 3.87135C80.1445 3.87318 79.8339 3.89065 79.5248 3.92366V5.81535Z" fill="black"/>
</svg>
