<svg width="212" height="121" viewBox="0 0 212 121" fill="none" xmlns="http://www.w3.org/2000/svg">
<path d="M170.938 61.2203L157.384 47.5417C156.945 47.0981 156.212 47.0981 155.773 47.5417C155.333 47.9853 155.333 48.7247 155.773 49.1683L169.326 62.8469C169.546 63.0687 169.839 63.1796 170.132 63.1796C170.425 63.1796 170.718 63.0687 170.938 62.8469C171.396 62.4033 171.396 61.6639 170.938 61.2203Z" fill="#F3AE4B"/>
<path d="M153.026 45.0469C152.861 45.2872 152.788 45.583 152.824 45.8602C152.824 45.8602 152.824 45.8602 152.824 45.8787C152.824 45.8972 152.824 45.9157 152.843 45.9342C152.897 46.2484 153.081 46.5257 153.355 46.7105C153.539 46.8214 153.758 46.8769 153.96 46.8769C154.289 46.8769 154.619 46.729 154.839 46.4517C154.876 46.4148 154.894 46.3963 154.93 46.3408C154.949 46.3039 154.967 46.2854 154.985 46.2484C155.004 46.2114 155.022 46.1745 155.04 46.119V46.1005C155.297 45.4166 156.121 45.0284 157.073 44.5663C157.257 44.4739 157.44 44.4 157.623 44.3075C158.154 44.0488 158.392 43.4203 158.191 42.8842C158.191 42.8657 158.191 42.8288 158.191 42.8103C157.879 41.1652 156.029 40.13 154.802 39.4461L154.711 39.3906C154.198 38.6143 153.575 37.8379 152.769 36.9877C151.634 35.7862 150.223 34.5107 148.19 32.8841C147.696 32.4959 146.982 32.5698 146.597 33.0689C146.212 33.568 146.286 34.2889 146.78 34.6771C148.722 36.2483 150.059 37.4498 151.139 38.5773C151.908 39.4091 152.513 40.1485 152.971 40.8694C152.971 40.8879 152.989 40.8879 152.989 40.8879C153.026 40.9433 153.081 40.9988 153.136 41.0543C153.154 41.0727 153.154 41.0727 153.172 41.0912C153.227 41.1467 153.3 41.2021 153.374 41.2391L153.392 41.2576C153.484 41.313 153.593 41.3685 153.722 41.4424C154.161 41.6827 155.132 42.2373 155.645 42.7364C154.637 43.1985 153.575 43.8454 153.026 45.0469Z" fill="#F3AE4B"/>
<path d="M161.779 57.2838C161.34 56.8402 160.607 56.8402 160.168 57.2838L160.003 57.4501C159.856 57.598 159.691 57.7274 159.545 57.8753C159.325 58.0601 159.087 58.2265 158.849 58.3744L155.461 54.9547C155.021 54.5111 154.288 54.5111 153.849 54.9547C153.409 55.3984 153.409 56.1377 153.849 56.5814L156.486 59.2432C156.193 59.2801 155.9 59.3171 155.589 59.3171C153.922 59.3171 152.347 58.6516 151.156 57.4686C148.72 55.0102 148.72 50.999 151.156 48.5221C151.596 48.0785 151.596 47.3391 151.156 46.8955C150.717 46.4518 149.984 46.4518 149.545 46.8955C146.211 50.2596 146.211 55.7311 149.545 59.0768C150.149 59.6868 150.845 60.2044 151.578 60.5925C149.014 60.4077 146.614 59.2986 144.764 57.4501C140.57 53.2172 140.57 46.3039 144.764 42.071C145.644 41.1837 146.633 40.4813 147.731 39.9453C147.75 39.9268 147.768 39.9268 147.786 39.9083C147.823 39.8898 147.86 39.8713 147.896 39.8528C147.933 39.8343 147.951 39.7974 147.988 39.7789C148.006 39.7604 148.025 39.7419 148.043 39.7419L148.061 39.7234C148.098 39.6865 148.116 39.6495 148.134 39.631C148.153 39.6125 148.171 39.5756 148.189 39.5571C148.208 39.5201 148.226 39.4831 148.244 39.4647C148.263 39.4277 148.281 39.3907 148.299 39.3722C148.318 39.3353 148.318 39.2983 148.336 39.2798C148.354 39.2428 148.354 39.2059 148.354 39.1689C148.354 39.1319 148.354 39.095 148.372 39.058C148.372 39.021 148.372 38.9841 148.372 38.9471C148.372 38.9101 148.372 38.8731 148.354 38.8362C148.354 38.7992 148.354 38.7622 148.336 38.7253C148.336 38.6883 148.318 38.6698 148.299 38.6328C148.281 38.5959 148.281 38.5589 148.263 38.5035C148.263 38.485 148.263 38.485 148.244 38.4665C148.226 38.448 148.226 38.4295 148.208 38.411C148.189 38.3741 148.171 38.3371 148.153 38.3001C148.134 38.2632 148.098 38.2447 148.079 38.2077C148.061 38.1892 148.043 38.1707 148.043 38.1522L147.072 37.1726C146.633 36.7289 145.9 36.7289 145.46 37.1726C145.039 37.5977 145.021 38.2447 145.387 38.7068C144.581 39.2244 143.83 39.8159 143.153 40.4998C138.061 45.6385 138.061 53.9935 143.153 59.1322C145.002 60.9992 147.329 62.2377 149.838 62.7367L147.951 64.6407C147.512 65.0843 147.512 65.8237 147.951 66.2673C148.171 66.4891 148.464 66.6 148.757 66.6C149.05 66.6 149.343 66.4891 149.563 66.2673L152.841 62.9586C153.501 62.9401 154.16 62.8661 154.801 62.7552L152.475 65.1028C152.036 65.5464 152.036 66.2858 152.475 66.7294C152.695 66.9512 152.988 67.0621 153.281 67.0621C153.574 67.0621 153.867 66.9512 154.087 66.7294L160.973 59.7792L164.582 63.4207C164.801 63.6425 165.094 63.7534 165.387 63.7534C165.681 63.7534 165.974 63.6425 166.193 63.4207C166.633 62.977 166.633 62.2377 166.193 61.794L161.779 57.2838Z" fill="#F3AE4B"/>
<path d="M149.838 42.6068C149.838 43.2353 150.388 43.7898 151.01 43.7898C151.633 43.7898 152.183 43.2353 152.183 42.6068C152.183 41.9784 151.633 41.4238 151.01 41.4238C150.369 41.4238 149.838 41.9784 149.838 42.6068Z" fill="#F3AE4B"/>
<path d="M144.546 36.5435C145.168 36.5435 145.681 36.0259 145.681 35.3974C145.681 34.7689 145.168 34.2514 144.546 34.2514C143.209 34.2514 142.128 33.1608 142.128 31.8114C142.128 30.462 143.209 29.3714 144.546 29.3714C144.912 29.3714 145.26 29.4639 145.571 29.6117C145.553 29.7781 145.535 29.926 145.535 30.0923C145.535 30.499 145.59 30.8872 145.681 31.2569C145.828 31.7744 146.286 32.1072 146.78 32.1072C146.872 32.1072 146.982 32.0887 147.073 32.0702C147.678 31.9038 148.044 31.2753 147.879 30.6654C147.824 30.499 147.806 30.3141 147.806 30.1108C147.806 29.8705 147.842 29.6302 147.916 29.4084C148.227 28.3733 149.161 27.6709 150.242 27.6709C151.084 27.6709 151.835 28.096 152.275 28.7799C151.945 28.9833 151.725 29.3345 151.725 29.7596V29.9999C151.725 30.0184 151.725 30.0184 151.725 30.0369C151.725 30.0739 151.725 30.1293 151.744 30.1663C151.744 30.2032 151.744 30.2402 151.762 30.2587C151.762 30.2957 151.78 30.3326 151.799 30.3696C151.817 30.4066 151.817 30.4435 151.835 30.4805C151.853 30.5175 151.872 30.5544 151.89 30.5729C151.908 30.6099 151.927 30.6284 151.945 30.6654C151.963 30.7023 152 30.7208 152.018 30.7578C152.037 30.7763 152.073 30.8132 152.092 30.8317C152.11 30.8502 152.147 30.8872 152.183 30.9057C152.22 30.9241 152.238 30.9611 152.275 30.9796C152.293 30.9796 152.293 30.9981 152.293 30.9981C152.311 31.0166 152.33 31.0166 152.366 31.035C152.403 31.0535 152.44 31.072 152.476 31.0905C152.513 31.109 152.549 31.109 152.586 31.1275C152.623 31.146 152.659 31.146 152.696 31.146C152.733 31.146 152.788 31.1644 152.824 31.1644C152.842 31.1644 152.861 31.1644 152.897 31.1644C152.916 31.1644 152.916 31.1644 152.934 31.1644C152.971 31.1644 153.026 31.1644 153.062 31.146C153.099 31.146 153.136 31.146 153.172 31.1275C153.209 31.1275 153.245 31.109 153.282 31.0905C153.319 31.072 153.355 31.072 153.392 31.0535C153.429 31.035 153.447 31.0166 153.484 30.9981C153.52 30.9796 153.557 30.9611 153.575 30.9426C153.612 30.9241 153.63 30.9057 153.648 30.8687C153.685 30.8502 153.703 30.8132 153.74 30.7948C153.758 30.7763 153.777 30.7393 153.813 30.7208C153.832 30.6838 153.868 30.6469 153.886 30.6284C153.886 30.6099 153.905 30.6099 153.905 30.6099C154.051 30.3696 154.216 30.1663 154.436 29.9814C154.875 29.6117 155.425 29.4084 155.993 29.4084C157.33 29.4084 158.41 30.499 158.41 31.8484C158.41 33.1977 157.33 34.2883 155.993 34.2883C155.132 34.2883 154.344 33.8447 153.905 33.0868C153.575 32.5508 152.879 32.3659 152.348 32.6802C151.799 33.0129 151.634 33.7153 151.945 34.2514C152.623 35.3789 153.74 36.1738 154.985 36.451V37.9483C154.985 38.5768 155.498 39.0943 156.121 39.0943C156.744 39.0943 157.256 38.5768 157.256 37.9483V36.3771C159.235 35.8226 160.681 33.9926 160.681 31.8114C160.681 29.1866 158.575 27.0609 155.974 27.0609C155.352 27.0609 154.747 27.1903 154.18 27.4306C153.319 26.1551 151.872 25.3418 150.297 25.3418C148.722 25.3418 147.256 26.1551 146.414 27.4306C145.846 27.1903 145.223 27.0609 144.619 27.0609C142.018 27.0609 139.912 29.1866 139.912 31.8114C139.839 34.4177 141.963 36.5435 144.546 36.5435Z" fill="#F3AE4B"/>
<path d="M83.9937 88.7809C83.9022 88.7809 83.8472 88.744 83.7739 88.6885C83.719 88.6331 83.6824 88.5591 83.6824 88.4852V83.6792C83.6824 83.5868 83.719 83.5128 83.7739 83.4574C83.8289 83.4019 83.9022 83.3834 83.9937 83.3834C84.0853 83.3834 84.1586 83.4019 84.2135 83.4574C84.2685 83.5128 84.2868 83.5868 84.2868 83.6792V88.4852C84.2868 88.5776 84.2685 88.6331 84.2135 88.6885C84.1586 88.7625 84.0853 88.7809 83.9937 88.7809ZM88.3345 88.7809C88.2429 88.7809 88.1879 88.744 88.1147 88.6885C88.0597 88.6331 88.0231 88.5591 88.0231 88.4852V85.8234C88.0231 85.3798 87.9315 85.0286 87.7667 84.7513C87.6019 84.474 87.3821 84.2522 87.089 84.1043C86.796 83.9565 86.4846 83.901 86.1183 83.901C85.7703 83.901 85.4406 83.9749 85.1659 84.1043C84.8912 84.2337 84.6714 84.4186 84.5066 84.6589C84.3417 84.8992 84.2685 85.158 84.2685 85.4537H83.7739C83.7923 85.047 83.9205 84.6774 84.1403 84.3446C84.36 84.0119 84.6348 83.7531 84.9828 83.5683C85.3308 83.3834 85.7154 83.291 86.1366 83.291C86.6128 83.291 87.0341 83.3834 87.4004 83.5868C87.7667 83.7901 88.078 84.0674 88.2795 84.4371C88.4993 84.8067 88.6092 85.2689 88.6092 85.8234V88.4852C88.6092 88.5776 88.5726 88.6331 88.5176 88.6885C88.481 88.7625 88.4077 88.7809 88.3345 88.7809Z" fill="#506E83"/>
<path d="M92.6583 88.8365C92.1455 88.8365 91.6876 88.7256 91.2846 88.4853C90.8817 88.245 90.5703 87.9308 90.3322 87.5056C90.1125 87.099 89.9843 86.6184 89.9843 86.0823C89.9843 85.5463 90.0941 85.0657 90.3139 84.659C90.5337 84.2524 90.8268 83.9196 91.2114 83.6793C91.596 83.439 92.0173 83.3281 92.5118 83.3281C92.988 83.3281 93.4275 83.439 93.7938 83.6608C94.1602 83.8827 94.4532 84.1969 94.673 84.6036C94.8745 85.0102 94.9843 85.4538 94.9843 85.9899C94.9843 86.0823 94.966 86.1378 94.9111 86.1932C94.8561 86.2487 94.7829 86.2672 94.7096 86.2672H90.4055V85.7496H94.8745L94.4349 86.0823C94.4532 85.6572 94.3799 85.269 94.2151 84.9548C94.0503 84.622 93.8305 84.3633 93.5374 84.1784C93.2444 83.9936 92.9147 83.9011 92.5118 83.9011C92.1455 83.9011 91.8158 83.9936 91.5227 84.1784C91.2297 84.3633 91.0099 84.622 90.8451 84.9548C90.6802 85.2875 90.5887 85.6572 90.5887 86.1008C90.5887 86.5259 90.6802 86.9141 90.8451 87.2284C91.0282 87.5611 91.2663 87.8199 91.5777 88.0047C91.8891 88.1896 92.2554 88.282 92.6583 88.282C92.9147 88.282 93.1711 88.245 93.4275 88.1526C93.684 88.0602 93.8854 87.9493 94.032 87.8014C94.0869 87.7459 94.1418 87.7274 94.2151 87.709C94.2884 87.709 94.3616 87.7274 94.3983 87.7644C94.4715 87.8199 94.5081 87.8938 94.5081 87.9677C94.5081 88.0417 94.4715 88.0971 94.4166 88.1711C94.2151 88.3559 93.9404 88.5223 93.5924 88.6517C93.281 88.7811 92.9697 88.8365 92.6583 88.8365Z" fill="#506E83"/>
<path d="M96.5399 88.7812C96.4483 88.7812 96.3934 88.7442 96.3201 88.6888C96.2651 88.6333 96.2285 88.5594 96.2285 88.467V83.661C96.2285 83.5686 96.2651 83.4946 96.3201 83.4392C96.375 83.3837 96.4483 83.3652 96.5399 83.3652C96.6314 83.3652 96.7047 83.3837 96.7597 83.4392C96.8146 83.4946 96.8329 83.5686 96.8329 83.661V85.8422H97.9868V86.3782H96.8329V88.4855C96.8329 88.5779 96.8146 88.6333 96.7597 88.7073C96.7047 88.7627 96.6314 88.7812 96.5399 88.7812ZM100.295 88.7073C100.24 88.7627 100.185 88.7812 100.093 88.7997C100.02 88.7997 99.9465 88.7627 99.8916 88.7073L97.5838 86.1009L99.8183 83.4761C99.8733 83.4207 99.9282 83.4022 99.9832 83.3837C100.038 83.3837 100.111 83.4022 100.166 83.4577C100.24 83.5131 100.258 83.5686 100.258 83.6425C100.258 83.7164 100.24 83.7904 100.185 83.8458L98.2981 86.064L100.276 88.3006C100.331 88.3561 100.349 88.43 100.349 88.5039C100.386 88.5779 100.349 88.6518 100.295 88.7073Z" fill="#506E83"/>
<path d="M103.555 88.855C103.023 88.855 102.566 88.7256 102.144 88.4853C101.723 88.245 101.412 87.9123 101.174 87.5056C100.935 87.0805 100.807 86.6184 100.807 86.1008C100.807 85.5648 100.935 85.1027 101.174 84.6775C101.412 84.2524 101.741 83.9381 102.144 83.6978C102.566 83.4575 103.023 83.3281 103.555 83.3281C104.086 83.3281 104.544 83.439 104.947 83.6978C105.349 83.9381 105.679 84.2708 105.917 84.6775C106.155 85.1027 106.284 85.5648 106.284 86.1008L106.045 86.489C106.045 86.9326 105.936 87.3393 105.716 87.6905C105.496 88.0417 105.203 88.3375 104.837 88.5408C104.47 88.7441 104.031 88.855 103.555 88.855ZM103.555 88.3005C103.957 88.3005 104.342 88.2081 104.653 88.0047C104.983 87.8014 105.24 87.5426 105.423 87.2099C105.606 86.8772 105.697 86.5075 105.697 86.0823C105.697 85.6572 105.606 85.2875 105.423 84.9548C105.24 84.6221 104.983 84.3633 104.653 84.1599C104.324 83.9566 103.957 83.8642 103.555 83.8642C103.152 83.8642 102.785 83.9566 102.456 84.1599C102.126 84.3633 101.87 84.6221 101.686 84.9548C101.503 85.2875 101.393 85.6572 101.393 86.0823C101.393 86.489 101.485 86.8772 101.686 87.2099C101.87 87.5426 102.126 87.8014 102.456 88.0047C102.785 88.1896 103.152 88.3005 103.555 88.3005ZM106.009 88.7811C105.917 88.7811 105.844 88.7441 105.789 88.6887C105.734 88.6332 105.697 88.5593 105.697 88.4853V86.6923L105.881 86.1008H106.284V88.5038C106.284 88.5962 106.265 88.6517 106.21 88.7071C106.155 88.7626 106.1 88.7811 106.009 88.7811Z" fill="#506E83"/>
<path d="M108.062 91.1092C107.97 91.1092 107.915 91.0722 107.842 91.0168C107.787 90.9613 107.75 90.8874 107.75 90.8135V86.0444C107.769 85.5269 107.897 85.0648 108.135 84.6581C108.373 84.2514 108.703 83.9372 109.106 83.6969C109.509 83.4566 109.985 83.3457 110.479 83.3457C111.01 83.3457 111.468 83.4751 111.89 83.7154C112.311 83.9557 112.622 84.2884 112.86 84.6951C113.098 85.1202 113.227 85.5823 113.227 86.1184C113.227 86.636 113.098 87.1166 112.86 87.5232C112.622 87.9484 112.292 88.2626 111.89 88.5029C111.468 88.7432 111.01 88.8726 110.479 88.8726C110.003 88.8726 109.582 88.7617 109.215 88.5583C108.849 88.355 108.556 88.0778 108.336 87.745V90.8319C108.336 90.9244 108.318 90.9798 108.263 91.0353C108.226 91.0722 108.153 91.1092 108.062 91.1092ZM110.498 88.2996C110.9 88.2996 111.285 88.2071 111.596 88.0038C111.926 87.8005 112.183 87.5417 112.366 87.209C112.549 86.8763 112.659 86.5066 112.659 86.0814C112.659 85.6563 112.567 85.2866 112.366 84.9539C112.183 84.6211 111.926 84.3624 111.596 84.159C111.267 83.9557 110.9 83.8633 110.498 83.8633C110.095 83.8633 109.728 83.9557 109.399 84.159C109.069 84.3624 108.813 84.6211 108.629 84.9539C108.446 85.2866 108.355 85.6563 108.355 86.0814C108.355 86.4881 108.446 86.8763 108.629 87.209C108.813 87.5417 109.069 87.8005 109.399 88.0038C109.728 88.1887 110.095 88.2996 110.498 88.2996Z" fill="#506E83"/>
<path d="M115.003 88.7803C114.911 88.7803 114.856 88.7434 114.783 88.6879C114.728 88.6325 114.691 88.5585 114.691 88.4846V83.6786C114.691 83.5861 114.728 83.5122 114.783 83.4568C114.838 83.4013 114.911 83.3828 115.003 83.3828C115.094 83.3828 115.168 83.4013 115.223 83.4568C115.277 83.5122 115.296 83.5861 115.296 83.6786V88.4846C115.296 88.577 115.277 88.6325 115.223 88.6879C115.168 88.7618 115.094 88.7803 115.003 88.7803ZM115.168 85.8598H119.289V86.3958H115.168V85.8598ZM119.343 88.7803C119.252 88.7803 119.197 88.7434 119.124 88.6879C119.069 88.6325 119.032 88.5585 119.032 88.4846V83.6786C119.032 83.5861 119.069 83.5122 119.124 83.4568C119.179 83.4013 119.252 83.3828 119.343 83.3828C119.435 83.3828 119.508 83.4013 119.563 83.4568C119.618 83.5122 119.637 83.5861 119.637 83.6786V88.4846C119.637 88.577 119.618 88.6325 119.563 88.6879C119.508 88.7618 119.435 88.7803 119.343 88.7803Z" fill="#506E83"/>
<path d="M121.229 88.7064C121.174 88.6509 121.137 88.577 121.137 88.503C121.137 88.4291 121.174 88.3737 121.211 88.2997L122.712 86.4143L123.445 86.4513L121.632 88.6879C121.577 88.7618 121.522 88.7803 121.43 88.7803C121.357 88.7988 121.284 88.7618 121.229 88.7064ZM125.038 88.7803C124.947 88.7803 124.892 88.7433 124.837 88.6879C124.782 88.6324 124.745 88.5585 124.745 88.4661V86.8764H123.06V86.8025C122.731 86.8025 122.438 86.7285 122.181 86.5991C121.925 86.4513 121.723 86.2664 121.577 86.0076C121.43 85.7488 121.357 85.4531 121.357 85.1204C121.357 84.7692 121.43 84.4734 121.595 84.2146C121.76 83.9558 121.98 83.7525 122.255 83.6046C122.529 83.4567 122.859 83.3828 123.225 83.3828H125.002C125.093 83.3828 125.167 83.4013 125.222 83.4567C125.277 83.5122 125.295 83.5861 125.295 83.6786V88.503C125.295 88.5955 125.258 88.6509 125.203 88.7064C125.185 88.7618 125.13 88.7803 125.038 88.7803ZM123.262 86.3404H124.745V83.9189H123.262C122.877 83.9189 122.566 84.0298 122.328 84.2331C122.09 84.4364 121.962 84.7322 121.962 85.1204C121.962 85.5085 122.09 85.8043 122.328 86.0261C122.566 86.2479 122.877 86.3404 123.262 86.3404Z" fill="#506E83"/>
<path d="M133.135 88.7812C133.043 88.7812 132.988 88.7442 132.915 88.6888C132.86 88.6333 132.823 88.5594 132.823 88.467V83.661C132.823 83.5686 132.86 83.4946 132.915 83.4392C132.97 83.3837 133.043 83.3652 133.135 83.3652C133.226 83.3652 133.3 83.3837 133.355 83.4392C133.41 83.4946 133.428 83.5686 133.428 83.661V85.8422H134.582V86.3782H133.428V88.4855C133.428 88.5779 133.41 88.6333 133.355 88.7073C133.3 88.7627 133.226 88.7812 133.135 88.7812ZM136.871 88.7073C136.816 88.7627 136.761 88.7812 136.67 88.7997C136.596 88.7997 136.523 88.7627 136.468 88.7073L134.161 86.1009L136.395 83.4761C136.45 83.4207 136.505 83.4022 136.56 83.3837C136.615 83.3837 136.688 83.4022 136.743 83.4577C136.816 83.5131 136.835 83.5686 136.835 83.6425C136.835 83.7164 136.816 83.7904 136.761 83.8458L134.875 86.064L136.853 88.3006C136.908 88.3561 136.926 88.43 136.926 88.5039C136.963 88.5779 136.926 88.6518 136.871 88.7073Z" fill="#506E83"/>
<path d="M140.15 88.855C139.618 88.855 139.161 88.7256 138.739 88.4853C138.318 88.245 138.007 87.9123 137.769 87.5056C137.531 87.0805 137.402 86.6184 137.402 86.1008C137.402 85.5648 137.531 85.1027 137.769 84.6775C138.007 84.2524 138.336 83.9381 138.739 83.6978C139.161 83.4575 139.618 83.3281 140.15 83.3281C140.681 83.3281 141.139 83.439 141.542 83.6978C141.944 83.9381 142.274 84.2708 142.512 84.6775C142.75 85.1027 142.879 85.5648 142.879 86.1008L142.64 86.489C142.64 86.9326 142.531 87.3393 142.311 87.6905C142.091 88.0417 141.798 88.3375 141.432 88.5408C141.047 88.7441 140.626 88.855 140.15 88.855ZM140.15 88.3005C140.553 88.3005 140.937 88.2081 141.249 88.0047C141.578 87.8014 141.835 87.5426 142.018 87.2099C142.201 86.8772 142.292 86.5075 142.292 86.0823C142.292 85.6572 142.201 85.2875 142.018 84.9548C141.835 84.6221 141.578 84.3633 141.249 84.1599C140.919 83.9566 140.553 83.8642 140.15 83.8642C139.747 83.8642 139.38 83.9566 139.051 84.1599C138.721 84.3633 138.465 84.6221 138.281 84.9548C138.098 85.2875 137.988 85.6572 137.988 86.0823C137.988 86.489 138.08 86.8772 138.281 87.2099C138.465 87.5426 138.721 87.8014 139.051 88.0047C139.362 88.1896 139.728 88.3005 140.15 88.3005ZM142.586 88.7811C142.494 88.7811 142.421 88.7441 142.366 88.6887C142.311 88.6332 142.274 88.5593 142.274 88.4853V86.6923L142.457 86.1008H142.86V88.5038C142.86 88.5962 142.842 88.6517 142.787 88.7071C142.75 88.7626 142.677 88.7811 142.586 88.7811Z" fill="#506E83"/>
<path d="M146.779 88.8543C146.248 88.8543 145.771 88.7249 145.35 88.4846C144.947 88.2443 144.618 87.93 144.379 87.5049C144.141 87.0982 144.031 86.6176 144.031 86.0816C144.031 85.5455 144.141 85.0649 144.379 84.6398C144.618 84.2331 144.929 83.9004 145.35 83.6601C145.753 83.4198 146.229 83.3089 146.779 83.3089V83.8634C146.358 83.8634 145.991 83.9559 145.662 84.1407C145.332 84.3256 145.094 84.5843 144.911 84.9171C144.727 85.2498 144.636 85.6195 144.636 86.0631C144.636 86.4883 144.727 86.8764 144.911 87.2091C145.094 87.5419 145.35 87.8007 145.662 87.9855C145.991 88.1703 146.358 88.2628 146.779 88.2813V88.8543ZM147.072 91.1094C146.98 91.1094 146.925 91.0724 146.852 91.017C146.797 90.9615 146.76 90.8876 146.76 90.8136V81.368C146.76 81.2756 146.797 81.2017 146.852 81.1462C146.907 81.0907 146.98 81.0723 147.072 81.0723C147.163 81.0723 147.237 81.0907 147.292 81.1462C147.347 81.2017 147.365 81.2756 147.365 81.368V90.8136C147.365 90.9061 147.347 90.9615 147.292 91.017C147.237 91.0724 147.163 91.1094 147.072 91.1094ZM147.365 88.8543V88.2997C147.786 88.2997 148.171 88.2073 148.482 88.0225C148.812 87.8376 149.05 87.5788 149.233 87.2461C149.416 86.9134 149.508 86.5252 149.508 86.1001C149.508 85.6564 149.416 85.2868 149.233 84.954C149.05 84.6213 148.793 84.3625 148.482 84.1777C148.152 83.9928 147.786 83.9004 147.365 83.9004V83.3459C147.896 83.3459 148.372 83.4568 148.793 83.6971C149.196 83.9374 149.526 84.2516 149.764 84.6768C150.002 85.0834 150.112 85.564 150.112 86.1186C150.112 86.6546 150.002 87.1352 149.764 87.5419C149.526 87.9485 149.215 88.2813 148.793 88.5216C148.372 88.7249 147.896 88.8543 147.365 88.8543Z" fill="#506E83"/>
<path d="M153.94 88.8365C153.427 88.8365 152.969 88.7256 152.566 88.4853C152.163 88.245 151.852 87.9308 151.614 87.5056C151.394 87.099 151.266 86.6184 151.266 86.0823C151.266 85.5463 151.376 85.0657 151.596 84.659C151.815 84.2524 152.108 83.9196 152.493 83.6793C152.878 83.439 153.299 83.3281 153.793 83.3281C154.27 83.3281 154.709 83.439 155.076 83.6608C155.442 83.8827 155.735 84.1969 155.955 84.6036C156.156 85.0102 156.266 85.4538 156.266 85.9899C156.266 86.0823 156.248 86.1378 156.193 86.1932C156.138 86.2487 156.065 86.2672 155.991 86.2672H151.687V85.7496H156.156L155.717 86.0823C155.735 85.6572 155.662 85.269 155.497 84.9548C155.332 84.622 155.112 84.3633 154.819 84.1784C154.526 83.9936 154.196 83.9011 153.793 83.9011C153.427 83.9011 153.097 83.9936 152.804 84.1784C152.511 84.3633 152.292 84.622 152.127 84.9548C151.962 85.2875 151.87 85.6572 151.87 86.1008C151.87 86.5259 151.962 86.9141 152.127 87.2284C152.31 87.5611 152.548 87.8199 152.859 88.0047C153.171 88.1896 153.537 88.282 153.94 88.282C154.196 88.282 154.453 88.245 154.709 88.1526C154.966 88.0602 155.167 87.9493 155.314 87.8014C155.369 87.7459 155.424 87.7274 155.497 87.709C155.57 87.709 155.643 87.7274 155.68 87.7644C155.753 87.8199 155.79 87.8938 155.79 87.9677C155.79 88.0417 155.753 88.0971 155.698 88.1711C155.497 88.3559 155.222 88.5223 154.874 88.6517C154.581 88.7811 154.251 88.8365 153.94 88.8365Z" fill="#506E83"/>
<path d="M129.38 86.4711C129.38 86.6929 129.196 86.8777 128.977 86.8777C128.757 86.8777 128.574 86.6929 128.574 86.4711C128.574 86.2493 128.757 86.0645 128.977 86.0645C129.196 86.0645 129.38 86.2493 129.38 86.4711Z" fill="#506E83"/>
<path d="M85.7714 53.8262C82.2732 53.8262 79.4343 56.6913 79.4343 60.2218C79.4343 63.7524 82.2732 66.6175 85.7714 66.6175C87.3099 66.6175 88.7202 66.0629 89.8191 65.1202V65.453C89.8191 66.0814 90.3319 66.599 90.9547 66.599C91.5774 66.599 92.0902 66.0814 92.0902 65.453V60.3512C92.0902 60.3327 92.0902 60.3143 92.0902 60.2958C92.0902 60.2588 92.0902 60.2403 92.0902 60.2033C92.1085 56.6913 89.2697 53.8262 85.7714 53.8262ZM85.7714 64.3069C83.537 64.3069 81.7237 62.4769 81.7237 60.2218C81.7237 57.9667 83.537 56.1367 85.7714 56.1367C88.0059 56.1367 89.8191 57.9667 89.8191 60.2218C89.8374 62.4769 88.0059 64.3069 85.7714 64.3069Z" fill="#F3AE4B"/>
<path d="M122.2 53.8262C118.702 53.8262 115.863 56.6913 115.863 60.2218C115.863 63.7524 118.702 66.6175 122.2 66.6175C123.739 66.6175 125.149 66.0629 126.248 65.1202V65.453C126.248 66.0814 126.761 66.599 127.384 66.599C128.006 66.599 128.519 66.0814 128.519 65.453V60.2033C128.519 56.6913 125.68 53.8262 122.2 53.8262ZM122.2 64.3069C119.966 64.3069 118.153 62.4769 118.153 60.2218C118.153 57.9667 119.966 56.1367 122.2 56.1367C124.435 56.1367 126.248 57.9667 126.248 60.2218C126.248 62.4769 124.435 64.3069 122.2 64.3069Z" fill="#F3AE4B"/>
<path d="M108.318 66.7473C108.94 66.7473 109.453 66.2298 109.453 65.6013V59.982C109.764 59.908 110.076 59.8341 110.351 59.7417C110.955 65.2131 114.838 67.5237 116.596 68.2816C116.743 68.337 116.889 68.374 117.054 68.374C117.494 68.374 117.915 68.1152 118.098 67.6716C118.354 67.0801 118.08 66.4146 117.494 66.1558C116.047 65.5274 112.75 63.5495 112.567 58.7065C113.959 57.8008 114.819 56.6548 115.479 55.5642C115.809 55.0281 115.644 54.3072 115.094 53.993C114.563 53.6603 113.849 53.8266 113.537 54.3812C112.64 55.8784 111.541 57.0244 109.453 57.6344V55.139C109.453 54.5105 108.94 53.993 108.318 53.993C107.695 53.993 107.182 54.5105 107.182 55.139V65.6198C107.182 66.2482 107.695 66.7473 108.318 66.7473Z" fill="#F3AE4B"/>
<path d="M76.9985 43.4018C76.2842 42.6809 75.1487 42.2188 74.1047 42.2188C68.5735 42.2188 65.5515 46.6735 65.5331 50.925V60.3521C65.5331 61.9972 64.5624 63.4945 63.0423 64.1415C62.8774 64.2154 62.6759 64.2893 62.4195 64.3448C62.1265 64.4187 61.7968 64.4557 61.4855 64.4557C60.588 64.4557 59.7272 64.1599 59.0129 63.6054C58.5184 63.2172 57.8041 63.3096 57.4195 63.8087C57.0348 64.3078 57.1264 65.0287 57.6209 65.4169C58.7382 66.2857 60.0752 66.7663 61.4855 66.7663C61.9983 66.7663 62.4928 66.7108 62.9507 66.5814C63.317 66.489 63.665 66.3781 63.958 66.2487C66.3024 65.2505 67.8226 62.94 67.8226 60.3521V50.888C67.8409 47.7272 70.0021 44.5108 74.123 44.5108C74.6175 44.5108 75.167 44.7696 75.4051 45.0099C75.7348 45.3426 75.9179 45.7678 75.9546 46.2299V65.4539C75.9546 66.0823 76.4674 66.5999 77.0901 66.5999C77.7128 66.5999 78.2257 66.0823 78.2257 65.4539V46.2114C78.2257 46.1929 78.2257 46.1745 78.2257 46.1375C78.1524 45.1208 77.7311 44.1411 76.9985 43.4018Z" fill="#F3AE4B"/>
<path d="M101.358 54.1957C100.754 54.0294 100.131 54.3806 99.9662 54.9906C99.8014 55.6006 100.149 56.229 100.754 56.3954C102.512 56.876 103.739 58.5026 103.739 60.3511C103.739 62.6062 101.926 64.4547 99.6915 64.4547C97.457 64.4547 95.6438 62.6247 95.6438 60.3511C95.6438 58.5581 96.5779 57.3751 97.8599 55.7669C99.7464 53.4009 102.091 50.4434 102.091 44.288C102.091 41.8665 100.131 39.8887 97.7317 39.8887C95.3324 39.8887 93.3727 41.8665 93.3727 44.288V60.3511C93.3727 63.8817 96.2116 66.7468 99.7098 66.7468C103.208 66.7468 106.047 63.8817 106.047 60.3511C106.01 57.486 104.105 54.9536 101.358 54.1957ZM95.6255 44.288C95.6255 43.1235 96.5595 42.1808 97.7134 42.1808C98.8673 42.1808 99.8014 43.1235 99.8014 44.288C99.8014 49.63 97.8233 52.1255 96.065 54.3251C95.9185 54.51 95.772 54.6948 95.6255 54.8797V44.288Z" fill="#F3AE4B"/>
<path d="M156.339 74.2882C156.339 70.7577 153.501 67.8926 150.002 67.8926C146.504 67.8926 143.665 70.7577 143.665 74.2882C143.665 77.8188 146.504 80.6839 150.002 80.6839C151.541 80.6839 152.951 80.1293 154.05 79.1866V79.5194C154.05 80.1478 154.563 80.6654 155.186 80.6654C155.808 80.6654 156.321 80.1478 156.321 79.5194L156.339 74.2882ZM150.002 78.3918C147.768 78.3918 145.955 76.5618 145.955 74.3067C145.955 72.0516 147.768 70.2216 150.002 70.2216C152.237 70.2216 154.05 72.0516 154.05 74.3067C154.068 76.5433 152.237 78.3918 150.002 78.3918Z" fill="#506E83"/>
<path d="M62.9312 67.3945C62.3085 67.3945 61.7957 67.9121 61.7957 68.5406V79.5389C61.7957 80.1674 62.3085 80.6849 62.9312 80.6849C63.5539 80.6849 64.0667 80.1674 64.0667 79.5389V68.5406C64.0667 67.9121 63.5539 67.3945 62.9312 67.3945Z" fill="#506E83"/>
<path d="M99.6723 67.9121C96.1741 67.9121 93.3352 70.7772 93.3352 74.3078C93.3352 77.8383 96.1741 80.7034 99.6723 80.7034C103.171 80.7034 106.009 77.8383 106.009 74.3078C106.009 70.7772 103.171 67.9121 99.6723 67.9121ZM99.6723 78.3929C97.4378 78.3929 95.6246 76.5629 95.6246 74.3078C95.6246 72.0527 97.4378 70.2227 99.6723 70.2227C101.907 70.2227 103.72 72.0527 103.72 74.3078C103.738 76.5444 101.925 78.3929 99.6723 78.3929Z" fill="#506E83"/>
<path d="M85.7714 67.9121C82.2732 67.9121 79.4343 70.7772 79.4343 74.3078V82.2746C79.4343 82.9031 79.9472 83.4206 80.5699 83.4206C81.1926 83.4206 81.7054 82.9031 81.7054 82.2746V79.2062C82.8043 80.1304 84.2146 80.7034 85.7531 80.7034C89.2513 80.7034 92.0902 77.8383 92.0902 74.3078C92.1085 70.7772 89.2697 67.9121 85.7714 67.9121ZM85.7714 78.3928C83.537 78.3928 81.7237 76.5629 81.7237 74.3078C81.7237 72.0526 83.537 70.2227 85.7714 70.2227C88.0059 70.2227 89.8191 72.0526 89.8191 74.3078C89.8374 76.5444 88.0059 78.3928 85.7714 78.3928Z" fill="#506E83"/>
<path d="M122.182 67.9121C120.258 67.9121 118.464 68.7809 117.236 70.3151C116.339 71.4427 115.844 72.866 115.844 74.3078C115.844 75.7681 116.321 77.1544 117.236 78.3004C118.445 79.8162 120.258 80.685 122.182 80.685C125.68 80.685 128.519 77.8198 128.519 74.2893C128.519 70.7772 125.68 67.9121 122.182 67.9121ZM122.182 78.3929C120.954 78.3929 119.801 77.8383 119.013 76.8586C118.427 76.1193 118.116 75.232 118.116 74.2893C118.116 73.3466 118.427 72.4593 118.995 71.7384C119.782 70.7587 120.936 70.2042 122.163 70.2042C124.398 70.2042 126.229 72.0342 126.229 74.2893C126.248 76.5444 124.434 78.3929 122.182 78.3929Z" fill="#506E83"/>
<path d="M114.233 67.9121H113.519C110.021 67.9121 107.182 70.7772 107.182 74.3078V79.5574C107.182 80.1859 107.695 80.7034 108.318 80.7034C108.94 80.7034 109.453 80.1859 109.453 79.5574V74.3078C109.453 72.0527 111.266 70.2227 113.519 70.2227H114.233C114.856 70.2227 115.369 69.7051 115.369 69.0766C115.369 68.4112 114.856 67.9121 114.233 67.9121Z" fill="#506E83"/>
<path d="M77.0705 67.9121C76.4478 67.9121 75.935 68.4297 75.935 69.0582V74.2893C75.935 76.5444 74.1217 78.3929 71.8873 78.3929C69.6528 78.3929 67.8213 76.5629 67.8213 74.2893V69.0582C67.8213 68.4297 67.3084 67.9121 66.6857 67.9121C66.063 67.9121 65.5502 68.4297 65.5502 69.0582V74.2893C65.5502 77.8198 68.389 80.685 71.8873 80.685C73.4258 80.685 74.836 80.1304 75.935 79.1877V79.5204C75.935 80.1489 76.4478 80.6665 77.0705 80.6665C77.6932 80.6665 78.2061 80.1489 78.2061 79.5204V69.0397C78.2061 68.4112 77.6932 67.9121 77.0705 67.9121Z" fill="#506E83"/>
<path d="M138.062 68.0961C137.457 67.9298 136.835 68.281 136.67 68.891C136.505 69.501 136.853 70.1294 137.457 70.2958C139.216 70.7764 140.443 72.403 140.443 74.2515C140.443 76.5066 138.629 78.3366 136.395 78.3366C134.16 78.3366 132.347 76.5066 132.347 74.2515C132.347 72.4585 133.281 71.2755 134.563 69.6673C136.45 67.3013 138.794 64.3438 138.794 58.1884C138.794 55.7669 136.835 53.7891 134.435 53.7891C132.036 53.7891 130.076 55.7669 130.076 58.1884V74.2515C130.076 77.782 132.915 80.6471 136.413 80.6471C139.911 80.6471 142.75 77.782 142.75 74.2515C142.714 71.3864 140.791 68.854 138.062 68.0961ZM132.311 58.2069C132.311 57.0423 133.245 56.0996 134.399 56.0996C135.552 56.0996 136.487 57.0423 136.487 58.2069C136.487 63.5489 134.508 66.0443 132.75 68.244C132.604 68.4288 132.457 68.6137 132.311 68.7985V58.2069Z" fill="#506E83"/>
<path d="M61.7963 60.5725V62.0513C61.7963 62.6798 62.3091 63.1973 62.9319 63.1973C63.5546 63.1973 64.0674 62.6798 64.0674 62.0513V60.5725C64.0674 58.2065 62.1626 56.2656 59.7999 56.2656H55.6607C53.3163 56.2656 51.3932 58.188 51.3932 60.5725V79.5377C51.3932 80.1662 51.906 80.6837 52.5287 80.6837C53.1515 80.6837 53.6643 80.1662 53.6643 79.5377V60.5725C53.6643 59.4635 54.5617 58.5762 55.6607 58.5762H59.7999C60.8988 58.5577 61.7963 59.4635 61.7963 60.5725Z" fill="#506E83"/>
</svg>
