<svg width="32" height="32" viewBox="0 0 32 32" fill="none" xmlns="http://www.w3.org/2000/svg">
<rect width="32" height="32" rx="16" fill="#0DC143"/>
<path d="M23.1657 8.80831C21.4503 7.04254 19.0792 6.08398 16.6576 6.08398C11.5116 6.08398 7.37467 10.2714 7.42512 15.3669C7.42512 16.9813 7.87917 18.5452 8.63593 19.9579L7.32422 24.7507L12.2179 23.4894C13.5801 24.2461 15.0936 24.5993 16.6071 24.5993C21.7026 24.5993 25.8395 20.4119 25.8395 15.3164C25.8395 12.8443 24.881 10.5236 23.1657 8.80831ZM16.6576 23.0353C15.2954 23.0353 13.9332 22.6822 12.7729 21.9759L12.4702 21.8245L9.54404 22.5813L10.3008 19.7056L10.099 19.4029C7.87917 15.8209 8.93863 11.0786 12.5711 8.85876C16.2035 6.63894 20.8954 7.6984 23.1152 11.3308C25.335 14.9633 24.2756 19.6552 20.6431 21.875C19.4828 22.6317 18.0702 23.0353 16.6576 23.0353ZM21.0972 17.4353L20.5422 17.1831C20.5422 17.1831 19.735 16.8299 19.2305 16.5777C19.1801 16.5777 19.1296 16.5272 19.0792 16.5272C18.9278 16.5272 18.8269 16.5777 18.726 16.6281C18.726 16.6281 18.6756 16.6786 17.9693 17.4858C17.9188 17.5867 17.8179 17.6371 17.717 17.6371H17.6666C17.6161 17.6371 17.5152 17.5867 17.4648 17.5362L17.2125 17.4353C16.6576 17.1831 16.153 16.8804 15.7494 16.4768C15.6485 16.3759 15.4972 16.275 15.3963 16.1741C15.0431 15.8209 14.69 15.4173 14.4377 14.9633L14.3873 14.8624C14.3368 14.8119 14.3368 14.7615 14.2864 14.6606C14.2864 14.5597 14.2864 14.4588 14.3368 14.4083C14.3368 14.4083 14.5386 14.1561 14.69 14.0047C14.7909 13.9038 14.8413 13.7525 14.9422 13.6516C15.0431 13.5002 15.0936 13.2984 15.0431 13.147C14.9927 12.8948 14.3873 11.5326 14.2359 11.2299C14.135 11.0786 14.0341 11.0281 13.8828 10.9777H13.7314C13.6305 10.9777 13.4792 10.9777 13.3278 10.9777C13.2269 10.9777 13.126 11.0281 13.0251 11.0281L12.9747 11.0786C12.8738 11.129 12.7729 11.2299 12.672 11.2804C12.5711 11.3813 12.5206 11.4822 12.4197 11.5831C12.0666 12.0371 11.8648 12.5921 11.8648 13.147C11.8648 13.5507 11.9657 13.9543 12.117 14.3074L12.1675 14.4588C12.6215 15.4173 13.2269 16.275 14.0341 17.0317L14.2359 17.2335C14.3873 17.3849 14.5386 17.4858 14.6395 17.6371C15.699 18.5452 16.9098 19.2011 18.272 19.5543C18.4233 19.6047 18.6251 19.6047 18.7765 19.6552C18.9278 19.6552 19.1296 19.6552 19.281 19.6552C19.5332 19.6552 19.8359 19.5543 20.0377 19.4534C20.1891 19.3525 20.29 19.3525 20.3909 19.2516L20.4918 19.1507C20.5927 19.0498 20.6936 18.9993 20.7945 18.8984C20.8954 18.7975 20.9963 18.6966 21.0467 18.5957C21.1476 18.3939 21.1981 18.1416 21.2485 17.8894C21.2485 17.7885 21.2485 17.6371 21.2485 17.5362C21.2485 17.5362 21.1981 17.4858 21.0972 17.4353Z" fill="white"/>
</svg>
