<svg width="32" height="32" viewBox="0 0 32 32" fill="none" xmlns="http://www.w3.org/2000/svg">
<rect width="32" height="32" rx="16" fill="#5181B8"/>
<path fill-rule="evenodd" clip-rule="evenodd" d="M26.1759 11.0239C26.3243 10.5294 26.1759 10.166 25.4701 10.166H23.1362C22.5427 10.166 22.2693 10.4799 22.121 10.8262C22.121 10.8262 20.934 13.719 19.2526 15.5981C18.7087 16.1421 18.4614 16.315 18.1647 16.315C18.0163 16.315 17.8016 16.1421 17.8016 15.6476V11.0239C17.8016 10.4304 17.6294 10.166 17.1348 10.166H13.4673C13.0965 10.166 12.8735 10.4414 12.8735 10.7025C12.8735 11.2651 13.714 11.3948 13.8007 12.9772V16.4141C13.8007 17.1677 13.6646 17.3043 13.3679 17.3043C12.5767 17.3043 10.6523 14.3983 9.51067 11.0734C9.28695 10.4271 9.06257 10.166 8.4661 10.166H6.13222C5.4654 10.166 5.33203 10.4799 5.33203 10.8262C5.33203 11.4443 6.12338 14.5104 9.01622 18.5653C10.945 21.3343 13.662 22.8356 16.1346 22.8356C17.6182 22.8356 17.8016 22.5022 17.8016 21.9279V19.8349C17.8016 19.1681 17.9421 19.0351 18.4118 19.0351C18.7582 19.0351 19.3515 19.2081 20.7363 20.5433C22.3187 22.1255 22.5794 22.8356 23.4696 22.8356H25.8035C26.4703 22.8356 26.8037 22.5022 26.6113 21.8442C26.4009 21.1884 25.6454 20.2372 24.6429 19.1093C24.0989 18.4663 23.2829 17.774 23.0358 17.4279C22.6896 16.9828 22.7884 16.7851 23.0358 16.3896C23.0358 16.3896 25.8792 12.384 26.1759 11.024V11.0239Z" fill="white"/>
</svg>
