<svg width="76" height="76" viewBox="0 0 76 76" fill="none" xmlns="http://www.w3.org/2000/svg">
<path d="M75.8597 18.0217C75.5981 17.0489 74.96 16.2197 74.0868 15.7169C73.213 15.2117 72.1741 15.0751 71.1996 15.3366C70.2262 15.5988 69.397 16.2364 68.8942 17.1095L68.261 18.2115C67.6593 17.8658 66.8907 18.0693 66.5388 18.6679L63.322 24.1511L62.22 23.5179C61.9281 23.349 61.5806 23.3033 61.2553 23.3911C60.9295 23.4795 60.6524 23.6935 60.4848 23.9866C60.1416 24.592 60.3506 25.3613 60.9536 25.7088L62.0555 26.342L51.2907 44.9968L48.631 52.1021L47.3646 54.4698C46.6231 55.7598 46.7023 57.3633 47.5674 58.5734L44.7179 62.0686L43.9202 60.0681C43.5603 59.1764 42.7273 58.5654 41.7694 58.4906C40.8109 58.4151 39.8926 58.8888 39.3986 59.7131L38.9428 60.4855L38.5124 55.4197C38.4135 54.2213 37.4853 53.2578 36.2918 53.1131C35.0977 52.969 33.9673 53.6845 33.5857 54.8248L30.4703 64.1711C30.2527 64.8321 30.6088 65.5445 31.268 65.7671C31.3917 65.8246 31.5247 65.8592 31.6607 65.8679C32.2049 65.8698 32.6897 65.5228 32.8641 65.0071L35.9665 55.6609L36.4099 60.8021C36.5014 61.8991 37.2899 62.8112 38.3621 63.0598C39.4344 63.3084 40.5438 62.836 41.1084 61.8917L41.5771 61.1187L42.3625 63.1074C42.6958 63.9453 43.4496 64.5433 44.3419 64.6763C45.2342 64.8092 46.1297 64.4574 46.6936 63.753L49.6446 60.0174C49.9711 60.1027 50.3075 60.1454 50.6451 60.1441C52.0025 60.1546 53.2627 59.4398 53.9504 58.2692L55.2168 56.1543L60.0421 50.2908L70.9207 31.4078L72.0226 32.0411C72.3164 32.2093 72.5303 32.4869 72.6175 32.814C72.7053 33.1387 72.6596 33.485 72.4914 33.7762L67.4256 42.553C67.2345 42.8411 67.1696 43.1948 67.2462 43.5325C67.3229 43.8695 67.5338 44.1608 67.8306 44.3382C68.1225 44.5077 68.47 44.5534 68.7953 44.4656C69.1212 44.3772 69.3982 44.1632 69.5658 43.8701L74.6316 35.0934C75.1368 34.2196 75.2735 33.1807 75.0113 32.2062C74.7491 31.2328 74.1115 30.4036 73.2384 29.9008L72.1364 29.2676L75.3026 23.7838C75.6482 23.1821 75.4448 22.414 74.8468 22.0616L75.48 20.9596C75.9989 20.0722 76.1361 19.0123 75.8597 18.0217ZM71.0852 18.376C71.2528 18.0829 71.531 17.8683 71.8582 17.7811C72.1834 17.7007 72.5272 17.7459 72.8204 17.9079C73.1141 18.0755 73.3281 18.3537 73.4159 18.6802C73.4963 19.0055 73.4511 19.3493 73.2891 19.6425L72.6559 20.7444L70.452 19.478L71.0852 18.376ZM53.8236 53.7358L51.3161 52.2789L53.1143 47.4666L57.1035 49.7714L53.8236 53.7358ZM50.0243 57.3954C49.4893 57.0225 49.3249 56.3052 49.6446 55.7363L50.2778 54.635L52.4811 55.9014L51.8479 56.9904C51.6704 57.2983 51.3723 57.5172 51.0254 57.5945C50.6785 57.6712 50.3155 57.5995 50.0243 57.3954ZM58.5474 47.6948L54.1656 45.1619L64.2972 27.6085L68.679 30.1414L58.5474 47.6948ZM69.9455 27.9504L65.5636 25.4175L68.0965 21.0357L72.4784 23.5686L69.9455 27.9504Z" fill="#B2ABB1"/>
<path d="M19.9845 56.7618L15.5018 61.2327L12.8168 58.5477C12.3227 58.0567 11.525 58.0567 11.0309 58.5477C10.791 58.7857 10.6562 59.1092 10.6562 59.4468C10.6562 59.7844 10.791 60.1085 11.0309 60.3459L13.7159 63.0309C14.1908 63.5022 14.8327 63.7662 15.5018 63.7656C16.1746 63.7693 16.8221 63.5052 17.3001 63.0309L21.7704 58.5477C22.2008 58.0449 22.1717 57.2961 21.7042 56.8286C21.2361 56.3604 20.4872 56.3314 19.9845 56.7618Z" fill="#B2ABB1"/>
<path d="M5.06606 60.1683C5.06606 66.114 9.88575 70.9331 15.8309 70.9331C21.776 70.9331 26.5957 66.114 26.5957 60.1683C26.5957 59.4689 26.0287 58.9018 25.3293 58.9018C24.6299 58.9018 24.0628 59.4689 24.0628 60.1683C24.0628 64.7146 20.3773 68.4002 15.8309 68.4002C11.2845 68.4002 7.59896 64.7146 7.59896 60.1683C7.59896 55.6219 11.2845 51.9363 15.8309 51.9363C17.6131 51.9314 19.3476 52.5096 20.7699 53.5831C21.3296 54.003 22.1236 53.8892 22.5428 53.3295C22.9627 52.7699 22.8496 51.9765 22.2899 51.5566C19.0279 49.1103 14.6634 48.717 11.0168 50.54C7.36954 52.3636 5.06606 56.0913 5.06606 60.1683Z" fill="#B2ABB1"/>
<path d="M45.5919 10.1433C46.2913 10.1433 46.8583 9.5769 46.8583 8.87689C46.8583 8.1775 46.2913 7.61044 45.5919 7.61044H12.6642C11.9648 7.61044 11.3977 8.1775 11.3977 8.87689V13.9427C11.3977 14.6427 11.9648 15.2091 12.6642 15.2091H45.5919C46.2913 15.2091 46.8583 14.6427 46.8583 13.9427C46.8583 13.2433 46.2913 12.6762 45.5919 12.6762H13.9306V10.1433H45.5919Z" fill="#B2ABB1"/>
<path d="M16.4634 17.7426C15.764 17.7426 15.1969 18.3096 15.1969 19.009C15.1969 19.709 15.764 20.2755 16.4634 20.2755H41.7924C42.4918 20.2755 43.0588 19.709 43.0588 19.009C43.0588 18.3096 42.4918 17.7426 41.7924 17.7426H16.4634Z" fill="#B2ABB1"/>
<path d="M49.3914 26.6079H21.5295C20.8301 26.6079 20.263 27.1749 20.263 27.8743C20.263 28.5743 20.8301 29.1408 21.5295 29.1408H49.3914C50.0908 29.1408 50.6578 28.5743 50.6578 27.8743C50.6578 27.1749 50.0908 26.6079 49.3914 26.6079Z" fill="#B2ABB1"/>
<path d="M36.7272 35.4728C36.7272 34.7734 36.1602 34.2063 35.4608 34.2063H10.1318C9.43236 34.2063 8.8653 34.7734 8.8653 35.4728C8.8653 36.1728 9.43236 36.7392 10.1318 36.7392H35.4608C36.1602 36.7392 36.7272 36.1728 36.7272 35.4728Z" fill="#B2ABB1"/>
<path d="M49.392 34.2063H40.5269C39.8275 34.2063 39.2604 34.7734 39.2604 35.4728C39.2604 36.1728 39.8275 36.7392 40.5269 36.7392H49.392C50.0914 36.7392 50.6585 36.1728 50.6585 35.4728C50.6585 34.7734 50.0914 34.2063 49.392 34.2063Z" fill="#B2ABB1"/>
<path d="M22.7963 43.0709C23.4956 43.0709 24.0627 42.5044 24.0627 41.8044C24.0627 41.105 23.4956 40.538 22.7963 40.538H10.1318C9.43236 40.538 8.8653 41.105 8.8653 41.8044C8.8653 42.5044 9.43236 43.0709 10.1318 43.0709H22.7963Z" fill="#B2ABB1"/>
<path d="M27.8623 43.0709H36.7275C37.4269 43.0709 37.994 42.5044 37.994 41.8044C37.994 41.105 37.4269 40.538 36.7275 40.538H27.8623C27.163 40.538 26.5959 41.105 26.5959 41.8044C26.5959 42.5044 27.163 43.0709 27.8623 43.0709Z" fill="#B2ABB1"/>
<path d="M56.9903 58.2687C56.2909 58.2687 55.7238 58.8358 55.7238 59.5352V72.1997C55.7238 72.8997 55.1568 73.4661 54.4574 73.4661H3.79935C3.09996 73.4661 2.5329 72.8997 2.5329 72.1997V3.81132C2.5329 3.11192 3.09996 2.54486 3.79935 2.54486H54.4574C55.1568 2.54486 55.7238 3.11192 55.7238 3.81132V27.5956C55.7238 28.295 56.2909 28.8621 56.9903 28.8621C57.6897 28.8621 58.2567 28.295 58.2567 27.5956V3.81132C58.2567 1.71314 56.5556 0.0119629 54.4574 0.0119629H3.79935C1.70117 0.0119629 0 1.71314 0 3.81132V72.1997C0 74.2985 1.70117 75.999 3.79935 75.999H54.4574C56.5556 75.999 58.2567 74.2985 58.2567 72.1997V59.5352C58.2567 58.8358 57.6897 58.2687 56.9903 58.2687Z" fill="#B2ABB1"/>
</svg>
