<svg width="1205" height="100" viewBox="0 0 1205 100" fill="none" xmlns="http://www.w3.org/2000/svg">
<rect x="860" y="51" width="179" height="4" rx="2" fill="#E6E1E5"/>
<rect x="588" y="51" width="135" height="4" rx="2" fill="#E6E1E5"/>
<rect x="123" y="51" width="252" height="4" rx="2" fill="#FFA626"/>
<rect x="473" y="51" width="123" height="4" rx="2" fill="#FFA626"/>
<circle cx="596" cy="53" r="4" fill="#FFA626"/>
<path d="M84.1484 0H47.9983C41.4534 0 36.1484 5.29541 36.1484 11.8499V66.0747C36.1484 68.3752 38.7866 69.7207 40.6484 68.3247L51.9482 59.8499H84.1484C90.6934 59.8499 95.9983 54.5544 95.9983 48V11.8499C95.9983 5.30493 90.7029 0 84.1484 0V0Z" fill="#EFF6FE"/>
<path d="M84.1501 0H66.0747V59.8499H84.1501C90.6958 59.8499 96 54.5552 96 48V11.8499C96 5.3042 90.7053 0 84.1501 0V0Z" fill="#D9E4EF"/>
<path d="M68.8872 43.4805C68.8872 45.0339 67.6282 46.293 66.0747 46.293C64.522 46.293 63.2622 45.0339 63.2622 43.4805C63.2622 41.9277 64.522 40.668 66.0747 40.668C67.6282 40.668 68.8872 41.9277 68.8872 43.4805Z" fill="#00D66A"/>
<path d="M66.0718 13.5566C60.3625 13.5566 55.7314 18.1768 55.7314 23.897V23.9006C55.7314 25.4534 56.9905 26.7117 58.5439 26.7117C60.0974 26.7117 61.3564 25.4504 61.3564 23.897C61.3564 21.2969 63.4592 19.1816 66.0754 19.1816C68.677 19.1816 70.7937 21.2983 70.7937 23.9006C70.7937 26.5022 68.677 28.6189 66.0754 28.6189C64.522 28.6189 63.2629 29.8787 63.2629 31.4314V34.4438C63.2629 35.9973 64.522 37.2563 66.0754 37.2563C67.6282 37.2563 68.8879 35.9973 68.8879 34.4438V33.8557C73.229 32.6274 76.4187 28.6292 76.4187 23.9006C76.4187 18.1965 71.7788 13.5566 66.0718 13.5566V13.5566Z" fill="#00D66A"/>
<path d="M68.8872 43.4805C68.8872 45.0332 67.6274 46.293 66.0747 46.293V40.668C67.6274 40.668 68.8872 41.9285 68.8872 43.4805Z" fill="#00B85E"/>
<path d="M76.4194 23.9006C76.4194 28.6299 73.2283 32.6274 68.8872 33.855V34.4438C68.8872 35.9966 67.6274 37.2563 66.0747 37.2563V28.6182C68.6777 28.6182 70.7944 26.5015 70.7944 23.9006C70.7944 21.2983 68.6777 19.1816 66.0747 19.1816V13.5566C71.7803 13.5581 76.4194 18.1987 76.4194 23.9006Z" fill="#00B85E"/>
<path d="M31.168 58.4812C31.168 65.8237 25.2156 71.7761 17.873 71.7761C10.5305 71.7761 4.57812 65.8237 4.57812 58.4812C4.57812 51.1379 10.5305 45.1855 17.873 45.1855C25.2156 45.1855 31.168 51.1379 31.168 58.4812Z" fill="#FFCFBE"/>
<path d="M31.1697 58.4812C31.1697 65.8237 25.2166 71.7754 17.874 71.7754V45.1855C25.2166 45.1855 31.1697 51.1387 31.1697 58.4812V58.4812Z" fill="#F9BCAA"/>
<path d="M17.8748 71.7754C8.00317 71.7754 0 79.7786 0 89.6501V93.187C0 94.7405 1.25903 95.9995 2.8125 95.9995H32.9377C34.4905 95.9995 35.7502 94.7405 35.7502 93.187V89.6501C35.7502 79.7786 27.7471 71.7754 17.8748 71.7754V71.7754Z" fill="#FFCC4B"/>
<path d="M17.8748 71.7754C17.8748 71.7754 17.8748 71.7754 17.874 71.7754V95.9995H32.937C34.4905 95.9995 35.7495 94.7405 35.7495 93.187V89.6501C35.7502 79.7786 27.7471 71.7754 17.8748 71.7754V71.7754Z" fill="#FFB826"/>
<path d="M462.002 56.5H459.002C459.003 57.8299 458.561 59.1224 457.747 60.1735C456.932 61.2246 455.79 61.9745 454.502 62.305C454.013 62.4389 453.509 62.5046 453.002 62.5C451.411 62.5 449.885 61.8678 448.759 60.7426C447.634 59.6174 447.002 58.0913 447.002 56.5V50.5C447.009 47.0442 446.153 43.6412 444.512 40.6C444.302 40.21 444.077 39.82 443.852 39.445C441.991 36.4602 439.414 33.9881 436.354 32.2538C433.294 30.5194 429.849 29.5779 426.332 29.515C426.336 29.515 426.34 29.5134 426.343 29.5106C426.345 29.5078 426.347 29.504 426.347 29.5H435.002C438.548 29.4986 442.06 30.1961 445.336 31.5524C448.613 32.9088 451.59 34.8976 454.097 37.405C456.604 39.9125 458.593 42.8895 459.95 46.1659C461.306 49.4423 462.003 52.9539 462.002 56.5V56.5Z" fill="#3D9AE2"/>
<path d="M419.67 29.515C416.153 29.5779 412.708 30.5194 409.648 32.2538C406.588 33.9881 404.011 36.4602 402.15 39.445C401.925 39.82 401.7 40.21 401.49 40.6C399.849 43.6412 398.993 47.0442 399 50.5V56.5C399 58.0913 398.368 59.6174 397.243 60.7426C396.117 61.8679 394.591 62.5 393 62.5C392.493 62.5046 391.989 62.439 391.5 62.305C390.212 61.9745 389.07 61.2246 388.255 60.1735C387.441 59.1224 386.999 57.8299 387 56.5H384C384.006 49.341 386.853 42.4769 391.915 37.4147C396.977 32.3525 403.841 29.506 411 29.5H419.655C419.655 29.504 419.657 29.5078 419.659 29.5106C419.662 29.5134 419.666 29.515 419.67 29.515V29.515Z" fill="#FF6243"/>
<path d="M454.5 62.305V92.5C454.498 93.2949 454.181 94.0566 453.619 94.6187C453.057 95.1808 452.295 95.4976 451.5 95.5H394.5C393.705 95.4976 392.943 95.1808 392.381 94.6187C391.819 94.0566 391.502 93.2949 391.5 92.5V62.305C391.989 62.439 392.493 62.5046 393 62.5C394.591 62.5 396.117 61.8679 397.243 60.7426C398.368 59.6174 399 58.0913 399 56.5C399 58.0913 399.632 59.6174 400.757 60.7426C401.883 61.8679 403.409 62.5 405 62.5C406.591 62.5 408.117 61.8679 409.243 60.7426C410.368 59.6174 411 58.0913 411 56.5C411 58.0913 411.632 59.6174 412.757 60.7426C413.883 61.8679 415.409 62.5 417 62.5C418.591 62.5 420.117 61.8679 421.243 60.7426C422.368 59.6174 423 58.0913 423 56.5C423 58.0913 423.632 59.6174 424.757 60.7426C425.883 61.8679 427.409 62.5 429 62.5C430.591 62.5 432.117 61.8679 433.243 60.7426C434.368 59.6174 435 58.0913 435 56.5C435 58.0913 435.632 59.6174 436.757 60.7426C437.883 61.8679 439.409 62.5 441 62.5C442.591 62.5 444.117 61.8679 445.243 60.7426C446.368 59.6174 447 58.0913 447 56.5C447 58.0913 447.632 59.6174 448.757 60.7426C449.883 61.8679 451.409 62.5 453 62.5C453.507 62.5046 454.011 62.439 454.5 62.305V62.305Z" fill="#00CCB3"/>
<path d="M415.5 74.5V95.5H400.5V74.5C400.502 73.7051 400.819 72.9434 401.381 72.3813C401.943 71.8192 402.705 71.5024 403.5 71.5H412.5C413.295 71.5024 414.057 71.8192 414.619 72.3813C415.181 72.9434 415.498 73.7051 415.5 74.5V74.5Z" fill="#96C8EF"/>
<path d="M444 71.5H426C425.172 71.5 424.5 72.1716 424.5 73V82C424.5 82.8284 425.172 83.5 426 83.5H444C444.828 83.5 445.5 82.8284 445.5 82V73C445.5 72.1716 444.828 71.5 444 71.5Z" fill="#96C8EF"/>
<path d="M435 41.5V56.5C435 58.0913 434.368 59.6174 433.243 60.7426C432.117 61.8679 430.591 62.5 429 62.5C427.409 62.5 425.883 61.8679 424.757 60.7426C423.632 59.6174 423 58.0913 423 56.5V29.5C424.002 29.5017 424.999 29.6277 425.97 29.875C428.304 30.4703 430.405 31.7544 432 33.5603C433.594 35.3661 434.608 37.61 434.91 40C434.97 40.4977 435 40.9986 435 41.5Z" fill="#3D9AE2"/>
<path d="M423 29.5006C420.076 29.497 417.251 30.5624 415.057 32.4963C412.864 34.4301 411.453 37.099 411.09 40.0006C411.029 40.4983 410.999 40.9993 411 41.5006V56.5006C411 58.0919 410.368 59.6181 409.242 60.7433C408.117 61.8685 406.591 62.5006 405 62.5006C403.409 62.5006 401.882 61.8685 400.757 60.7433C399.632 59.6181 399 58.0919 399 56.5006V50.5006C398.993 47.0448 399.848 43.6418 401.49 40.6006C401.7 40.2106 401.925 39.8206 402.15 39.4456C404.01 36.4608 406.588 33.9887 409.648 32.2544C412.708 30.52 416.153 29.5786 419.67 29.5156C419.779 29.5031 419.89 29.4981 420 29.5006H423Z" fill="#3D9AE2"/>
<path d="M447 50.5006V56.5006C447 58.0919 446.368 59.6181 445.243 60.7433C444.117 61.8685 442.591 62.5006 441 62.5006C439.409 62.5006 437.883 61.8685 436.757 60.7433C435.632 59.6181 435 58.0919 435 56.5006V41.5006C435 40.9993 434.97 40.4983 434.91 40.0006C434.608 37.6106 433.594 35.3667 432 33.5609C430.405 31.7551 428.304 30.471 425.97 29.8756C424.999 29.6283 424.002 29.5023 423 29.5006H426C426.11 29.4981 426.22 29.5031 426.33 29.5156C429.847 29.5786 433.292 30.52 436.352 32.2544C439.412 33.9887 441.989 36.4608 443.85 39.4456C444.075 39.8206 444.3 40.2106 444.51 40.6006C446.151 43.6418 447.007 47.0448 447 50.5006V50.5006Z" fill="#FF6243"/>
<path d="M423 29.5V56.5C423 58.0913 422.368 59.6174 421.243 60.7426C420.117 61.8679 418.591 62.5 417 62.5C415.409 62.5 413.883 61.8679 412.757 60.7426C411.632 59.6174 411 58.0913 411 56.5V41.5C411 40.9986 411.03 40.4977 411.09 40C411.458 37.1006 412.871 34.4348 415.063 32.502C417.256 30.5692 420.077 29.5019 423 29.5V29.5Z" fill="#FF6243"/>
<path d="M454.5 62.305V65.305C454.011 65.439 453.507 65.5046 453 65.5C451.409 65.5 449.883 64.8679 448.757 63.7426C447.632 62.6174 447 61.0913 447 59.5C447 61.0913 446.368 62.6174 445.243 63.7426C444.117 64.8679 442.591 65.5 441 65.5C439.409 65.5 437.883 64.8679 436.757 63.7426C435.632 62.6174 435 61.0913 435 59.5C435 61.0913 434.368 62.6174 433.243 63.7426C432.117 64.8679 430.591 65.5 429 65.5C427.409 65.5 425.883 64.8679 424.757 63.7426C423.632 62.6174 423 61.0913 423 59.5C423 61.0913 422.368 62.6174 421.243 63.7426C420.117 64.8679 418.591 65.5 417 65.5C415.409 65.5 413.883 64.8679 412.757 63.7426C411.632 62.6174 411 61.0913 411 59.5C411 61.0913 410.368 62.6174 409.243 63.7426C408.117 64.8679 406.591 65.5 405 65.5C403.409 65.5 401.883 64.8679 400.757 63.7426C399.632 62.6174 399 61.0913 399 59.5C399 61.0913 398.368 62.6174 397.243 63.7426C396.117 64.8679 394.591 65.5 393 65.5C392.493 65.5046 391.989 65.439 391.5 65.305V62.305C391.989 62.439 392.493 62.5046 393 62.5C394.591 62.5 396.117 61.8679 397.243 60.7426C398.368 59.6174 399 58.0913 399 56.5C399 58.0913 399.632 59.6174 400.757 60.7426C401.883 61.8679 403.409 62.5 405 62.5C406.591 62.5 408.117 61.8679 409.243 60.7426C410.368 59.6174 411 58.0913 411 56.5C411 58.0913 411.632 59.6174 412.757 60.7426C413.883 61.8679 415.409 62.5 417 62.5C418.591 62.5 420.117 61.8679 421.243 60.7426C422.368 59.6174 423 58.0913 423 56.5C423 58.0913 423.632 59.6174 424.757 60.7426C425.883 61.8679 427.409 62.5 429 62.5C430.591 62.5 432.117 61.8679 433.243 60.7426C434.368 59.6174 435 58.0913 435 56.5C435 58.0913 435.632 59.6174 436.757 60.7426C437.883 61.8679 439.409 62.5 441 62.5C442.591 62.5 444.117 61.8679 445.243 60.7426C446.368 59.6174 447 58.0913 447 56.5C447 58.0913 447.632 59.6174 448.757 60.7426C449.883 61.8679 451.409 62.5 453 62.5C453.507 62.5046 454.011 62.439 454.5 62.305Z" fill="#00B39D"/>
<path d="M415.5 76V82L402 95.5H400.5V91L415.5 76Z" fill="#78B9EB"/>
<path d="M415.5 85V90.25L410.25 95.5H405L415.5 85Z" fill="#78B9EB"/>
<path d="M445.5 73L435 83.5H429L441 71.5H444C444.398 71.5 444.779 71.658 445.061 71.9393C445.342 72.2206 445.5 72.6022 445.5 73Z" fill="#78B9EB"/>
<path d="M445.5 76V81.25L443.25 83.5H438L445.5 76Z" fill="#78B9EB"/>
<path d="M411.002 50.0353V53.0203C406.449 50.151 403.075 45.7445 401.492 40.6003C401.702 40.2103 401.927 39.8203 402.152 39.4453C403.92 43.8152 407.016 47.5195 411.002 50.0353V50.0353Z" fill="#1E81CE"/>
<path d="M402.15 39.445C401.925 39.82 401.7 40.21 401.49 40.6C400.831 38.4621 400.497 36.2372 400.5 34C400.5 33.49 400.515 32.995 400.56 32.5C400.715 34.8851 401.252 37.2299 402.15 39.445V39.445Z" fill="#ED1C24"/>
<path d="M423 53.5002V56.5002C418.75 56.5076 414.587 55.3001 411 53.0202V50.0352C414.589 52.3086 418.752 53.5106 423 53.5002Z" fill="#ED1C24"/>
<path d="M435 50.0352V53.0202C431.413 55.3001 427.25 56.5076 423 56.5002V53.5002C427.248 53.5106 431.411 52.3086 435 50.0352Z" fill="#1E81CE"/>
<path d="M444.51 40.6003C442.927 45.7445 439.553 50.151 435 53.0203V50.0353C438.987 47.5195 442.082 43.8152 443.85 39.4453C444.075 39.8203 444.3 40.2103 444.51 40.6003V40.6003Z" fill="#ED1C24"/>
<path d="M445.501 34C445.503 36.2372 445.17 38.4621 444.511 40.6C444.301 40.21 444.076 39.82 443.851 39.445C444.749 37.2299 445.285 34.8851 445.441 32.5C445.486 32.995 445.501 33.49 445.501 34V34Z" fill="#1E81CE"/>
<path d="M423 53.5C435.426 53.5 445.5 43.4264 445.5 31C445.5 18.5736 435.426 8.5 423 8.5C410.574 8.5 400.5 18.5736 400.5 31C400.5 43.4264 410.574 53.5 423 53.5Z" fill="#FFD422"/>
<path d="M435.181 29.7106C435.13 30.0685 434.952 30.396 434.679 30.633C434.406 30.87 434.057 31.0006 433.696 31.0006H433.306C432.944 31.0006 432.595 30.87 432.322 30.633C432.049 30.396 431.871 30.0685 431.821 29.7106L430.711 22.0156C432.638 22.0458 434.502 22.7041 436.021 23.8906V23.9056L435.181 29.7106Z" fill="#A97C50"/>
<path d="M424.679 28.21C424.628 28.5678 424.45 28.8954 424.177 29.1324C423.904 29.3694 423.555 29.4999 423.194 29.5H422.804C422.442 29.4999 422.093 29.3694 421.82 29.1324C421.547 28.8954 421.369 28.5678 421.319 28.21L420.434 22H425.564L424.679 28.21Z" fill="#A97C50"/>
<path d="M414.18 29.7106C414.129 30.0685 413.951 30.396 413.678 30.633C413.405 30.87 413.056 31.0006 412.695 31.0006H412.305C411.943 31.0006 411.594 30.87 411.321 30.633C411.048 30.396 410.87 30.0685 410.82 29.7106L409.98 23.9056V23.8906C411.498 22.7041 413.363 22.0458 415.29 22.0156L414.18 29.7106Z" fill="#A97C50"/>
<path d="M430.71 22.0139L431.82 29.7089C431.871 30.0667 432.049 30.3943 432.322 30.6313C432.594 30.8683 432.944 30.9988 433.305 30.9989H433.695C434.056 30.9988 434.406 30.8683 434.678 30.6313C434.951 30.3943 435.129 30.0667 435.18 29.7089L436.02 23.9039C437.104 24.7419 437.981 25.8172 438.584 27.0471C439.187 28.2771 439.501 29.629 439.5 30.9989V33.9989C439.498 34.7938 439.181 35.5555 438.619 36.1176C438.057 36.6797 437.295 36.9965 436.5 36.9989H409.5C408.705 36.9965 407.943 36.6797 407.381 36.1176C406.819 35.5555 406.502 34.7938 406.5 33.9989V30.9989C406.499 29.629 406.813 28.2771 407.416 27.0471C408.019 25.8172 408.896 24.7419 409.98 23.9039L410.82 29.7089C410.871 30.0667 411.049 30.3943 411.322 30.6313C411.594 30.8683 411.944 30.9988 412.305 30.9989H412.695C413.056 30.9988 413.406 30.8683 413.678 30.6313C413.951 30.3943 414.129 30.0667 414.18 29.7089L415.29 22.0139C415.359 22.0009 415.43 21.9959 415.5 21.9989H420.435L421.32 28.2089C421.371 28.5667 421.549 28.8943 421.822 29.1313C422.094 29.3683 422.444 29.4988 422.805 29.4989H423.195C423.556 29.4988 423.906 29.3683 424.178 29.1313C424.451 28.8943 424.629 28.5667 424.68 28.2089L425.565 21.9989H430.5C430.57 21.9959 430.641 22.0009 430.71 22.0139V22.0139Z" fill="#C49A6C"/>
<path d="M423 55C418.253 55 413.613 53.5924 409.666 50.9553C405.719 48.3181 402.643 44.5698 400.827 40.1844C399.01 35.799 398.535 30.9734 399.461 26.3178C400.387 21.6623 402.673 17.3859 406.029 14.0294C409.386 10.673 413.662 8.38721 418.318 7.46116C422.973 6.53512 427.799 7.0104 432.184 8.8269C436.57 10.6434 440.318 13.7195 442.955 17.6663C445.592 21.6131 447 26.2533 447 31C446.992 37.3629 444.461 43.463 439.962 47.9622C435.463 52.4615 429.363 54.9925 423 55V55ZM423 10C418.847 10 414.786 11.2316 411.333 13.5391C407.88 15.8467 405.188 19.1264 403.598 22.9637C402.009 26.8009 401.593 31.0233 402.403 35.0969C403.214 39.1705 405.214 42.9124 408.151 45.8493C411.088 48.7862 414.829 50.7862 418.903 51.5965C422.977 52.4068 427.199 51.9909 431.036 50.4015C434.874 48.812 438.153 46.1204 440.461 42.667C442.768 39.2136 444 35.1534 444 31C443.994 25.4323 441.78 20.0943 437.843 16.1573C433.906 12.2204 428.568 10.006 423 10V10Z" fill="#FFA733"/>
<path d="M417 95.5H414V74.5C414 74.1022 413.842 73.7206 413.561 73.4393C413.279 73.158 412.898 73 412.5 73H403.5C403.102 73 402.721 73.158 402.439 73.4393C402.158 73.7206 402 74.1022 402 74.5V95.5H399V74.5C399 73.3065 399.474 72.1619 400.318 71.318C401.162 70.4741 402.307 70 403.5 70H412.5C413.693 70 414.838 70.4741 415.682 71.318C416.526 72.1619 417 73.3065 417 74.5V95.5Z" fill="#009986"/>
<path d="M444 85H426C425.204 85 424.441 84.6839 423.879 84.1213C423.316 83.5587 423 82.7956 423 82V73C423 72.2044 423.316 71.4413 423.879 70.8787C424.441 70.3161 425.204 70 426 70H444C444.796 70 445.559 70.3161 446.121 70.8787C446.684 71.4413 447 72.2044 447 73V82C447 82.7956 446.684 83.5587 446.121 84.1213C445.559 84.6839 444.796 85 444 85ZM426 73V82H444V73H426Z" fill="#009986"/>
<path d="M381 94H465V97H381V94Z" fill="#009986"/>
<path d="M409.5 80.5H412.5V86.5H409.5V80.5Z" fill="#009986"/>
<g clip-path="url(#clip0)">
<path d="M1203.4 1C1203.4 1 1203.4 1 1203.4 1H1110.6C1109.72 0.9998 1109 1.7158 1109 2.5992C1109 2.599 1109 2.5994 1109 2.5992V34.6H1112.2V4.2H1201.8V39.4H1145.8V42.6H1203.4C1204.28 42.6002 1205 41.8842 1205 41.0008C1205 41.001 1205 41.0006 1205 41.0008V2.6C1205 1.7166 1204.28 1.0002 1203.4 1Z" fill="#B2ABB1"/>
<path d="M1193.8 9H1161.8V12.2H1193.8V9Z" fill="#B2ABB1"/>
<path d="M1198.6 18.6H1166.6V21.8H1198.6V18.6Z" fill="#B2ABB1"/>
<path d="M1192.2 28.2H1160.2V31.4H1192.2V28.2Z" fill="#B2ABB1"/>
<path d="M1160.07 14.7948C1158.98 12.1618 1155.95 10.9154 1153.32 12.0108C1153.28 12.0296 1153.23 12.0488 1153.19 12.0688L1140.21 18.7988C1140.73 17.7384 1140.99 16.5772 1141 15.4C1141 10.9818 1137.42 7.4 1133 7.4C1128.58 7.4 1125 10.9818 1125 15.4C1125.01 17.1366 1125.58 18.8232 1126.64 20.2H1126.57C1122.03 20.2304 1117.98 23.0538 1116.38 27.3032L1112.1 42.025C1111.09 44.6662 1112.4 47.6318 1115.05 48.6486C1116.25 49.1122 1117.58 49.1044 1118.78 48.6266C1120.16 48.0716 1121.23 46.9508 1121.73 45.55L1123.4 40.225V63.3816C1122.02 62.3234 1120.34 61.7468 1118.6 61.7406C1114.19 61.734 1110.61 65.305 1110.6 69.7168C1110.6 71.8774 1111.47 73.947 1113.02 75.4538C1110.56 76.7094 1109.01 79.2326 1109 81.9922V95.4C1109 96.2834 1109.72 96.9998 1110.6 97C1110.6 97 1110.6 97 1110.6 97H1126.6C1127.48 97.0002 1128.2 96.2842 1128.2 95.4008C1128.2 95.401 1128.2 95.4006 1128.2 95.4008V81.9922C1128.19 79.7244 1127.14 77.5872 1125.34 76.2H1137.46C1135.66 77.5872 1134.61 79.7244 1134.6 81.9922V95.4C1134.6 96.2834 1135.32 96.9998 1136.2 97C1136.2 97 1136.2 97 1136.2 97H1152.2C1153.08 97.0002 1153.8 96.2842 1153.8 95.4008C1153.8 95.401 1153.8 95.4006 1153.8 95.4008V81.9922C1153.79 79.2326 1152.24 76.7094 1149.78 75.4538C1152.94 72.3704 1153 67.3098 1149.92 64.1508C1148.02 62.2054 1145.26 61.3584 1142.6 61.9024V29.1718L1157.29 21.5452C1159.92 20.45 1161.17 17.4276 1160.07 14.7948ZM1133 10.6C1135.65 10.6 1137.8 12.749 1137.8 15.4C1137.8 18.051 1135.65 20.2 1133 20.2C1130.35 20.1972 1128.2 18.0498 1128.2 15.4C1128.2 12.749 1130.35 10.6 1133 10.6ZM1118.6 64.9406C1121.25 64.9406 1123.4 67.0896 1123.4 69.7406C1123.4 72.3916 1121.25 74.5406 1118.6 74.5406C1115.95 74.5406 1113.8 72.3916 1113.8 69.7406C1113.8 67.0908 1115.95 64.9436 1118.6 64.9406ZM1125 93.8H1112.2V81.9922C1112.2 79.678 1114.08 77.8028 1116.39 77.8H1120.81C1123.12 77.8028 1125 79.678 1125 81.9922V93.8ZM1150.6 81.9922V93.8H1137.8V81.9922C1137.8 79.678 1139.68 77.8028 1141.99 77.8H1146.41C1148.72 77.8028 1150.6 79.678 1150.6 81.9922ZM1144.2 64.9406C1146.85 64.9434 1149 67.0908 1149 69.7406C1149 72.3916 1146.85 74.5406 1144.2 74.5406C1141.55 74.5406 1139.4 72.3916 1139.4 69.7406C1139.4 67.0896 1141.55 64.9406 1144.2 64.9406ZM1157.14 17.464C1156.93 18.0136 1156.49 18.445 1155.94 18.6484L1140.26 26.7796C1139.73 27.0548 1139.4 27.6026 1139.4 28.2V63.3816C1136.4 65.5976 1135.36 69.6082 1136.91 73H1134.6V45.8H1131.4V73H1125.89C1126.34 71.994 1126.58 70.904 1126.59 69.8H1126.6V29.8C1126.6 28.9162 1125.88 28.2 1125 28.2002C1124.3 28.2004 1123.68 28.6538 1123.47 29.3204L1118.7 44.5234C1118.33 45.5218 1117.23 46.0378 1116.23 45.6756C1116.16 45.6502 1116.09 45.6208 1116.03 45.5874C1115.1 45.1104 1114.71 43.9968 1115.13 43.0468L1119.4 28.325C1120.56 25.367 1123.4 23.4138 1126.57 23.4H1137.9C1138.16 23.4004 1138.41 23.3386 1138.64 23.2204L1154.54 14.9658C1155.5 14.5678 1156.6 14.975 1157.06 15.8986C1157.31 16.3854 1157.34 16.9534 1157.14 17.464Z" fill="#B2ABB1"/>
<path d="M1175.38 75.4532C1178.55 72.37 1178.61 67.305 1175.53 64.1404C1172.45 60.9758 1167.38 60.9098 1164.22 63.993C1161.05 67.0762 1160.99 72.1412 1164.07 75.3058C1164.12 75.3556 1164.17 75.4048 1164.22 75.4532C1161.76 76.7088 1160.21 79.2321 1160.2 81.9917V95.3995C1160.2 96.2829 1160.92 96.9993 1161.8 96.9995C1161.8 96.9995 1161.8 96.9995 1161.8 96.9995H1177.8C1178.68 96.9997 1179.4 96.2837 1179.4 95.4003C1179.4 95.4005 1179.4 95.4001 1179.4 95.4003V81.9917C1179.39 79.2321 1177.84 76.7088 1175.38 75.4532ZM1169.8 64.94C1172.45 64.94 1174.6 67.089 1174.6 69.74C1174.6 72.391 1172.45 74.54 1169.8 74.54C1167.15 74.54 1165 72.391 1165 69.74C1165 67.0902 1167.15 64.943 1169.8 64.94ZM1176.2 93.7995H1163.4V81.9917C1163.4 79.6775 1165.28 77.8022 1167.59 77.7994H1172.01C1174.32 77.8022 1176.2 79.6775 1176.2 81.9917V93.7995Z" fill="#B2ABB1"/>
<path d="M1200.98 75.4532C1204.15 72.37 1204.21 67.305 1201.13 64.1404C1198.05 60.9758 1192.98 60.9098 1189.82 63.993C1186.65 67.0762 1186.59 72.1412 1189.67 75.3058C1189.72 75.3556 1189.77 75.4048 1189.82 75.4532C1187.36 76.7088 1185.81 79.2321 1185.8 81.9917V95.3995C1185.8 96.2829 1186.52 96.9993 1187.4 96.9995C1187.4 96.9995 1187.4 96.9995 1187.4 96.9995H1203.4C1204.28 96.9997 1205 96.2837 1205 95.4003C1205 95.4005 1205 95.4001 1205 95.4003V81.9917C1204.99 79.2321 1203.44 76.7088 1200.98 75.4532ZM1195.4 64.94C1198.05 64.94 1200.2 67.089 1200.2 69.74C1200.2 72.391 1198.05 74.54 1195.4 74.54C1192.75 74.54 1190.6 72.391 1190.6 69.74C1190.6 67.0902 1192.75 64.943 1195.4 64.94ZM1201.8 93.7995H1189V81.9917C1189 79.6775 1190.88 77.8022 1193.19 77.7994H1197.61C1199.92 77.8022 1201.8 79.6775 1201.8 81.9917V93.7995Z" fill="#B2ABB1"/>
</g>
<path d="M836.86 39.0214C836.598 38.0487 835.96 37.2194 835.087 36.7167C834.213 36.2115 833.174 36.0748 832.2 36.3364C831.226 36.5986 830.397 37.2361 829.894 38.1093L829.261 39.2113C828.659 38.8656 827.891 39.069 827.539 39.6676L824.322 45.1508L823.22 44.5176C822.928 44.3488 822.581 44.303 822.255 44.3909C821.929 44.4793 821.652 44.6932 821.485 44.9864C821.142 45.5918 821.351 46.361 821.954 46.7086L823.056 47.3418L812.291 65.9966L809.631 73.1018L808.365 75.4696C807.623 76.7596 807.702 78.363 808.567 79.5732L805.718 83.0683L804.92 81.0678C804.56 80.1761 803.727 79.5652 802.769 79.4903C801.811 79.4149 800.893 79.8886 800.399 80.7129L799.943 81.4852L799.512 76.4194C799.413 75.221 798.485 74.2576 797.292 74.1129C796.098 73.9688 794.967 74.6843 794.586 75.8246L791.47 85.1708C791.253 85.8319 791.609 86.5442 792.268 86.7669C792.392 86.8244 792.525 86.859 792.661 86.8677C793.205 86.8695 793.69 86.5226 793.864 86.0069L796.967 76.6606L797.41 81.8019C797.501 82.8989 798.29 83.811 799.362 84.0596C800.434 84.3082 801.544 83.8357 802.108 82.8914L802.577 82.1185L803.362 84.1072C803.696 84.9451 804.45 85.5431 805.342 85.676C806.234 85.809 807.13 85.4571 807.694 84.7528L810.645 81.0171C810.971 81.1025 811.307 81.1451 811.645 81.1439C813.002 81.1544 814.263 80.4396 814.95 79.269L816.217 77.1541L821.042 71.2906L831.921 52.4076L833.023 53.0408C833.316 53.209 833.53 53.4867 833.618 53.8138C833.705 54.1384 833.66 54.4847 833.491 54.776L828.426 63.5527C828.235 63.8409 828.17 64.1946 828.246 64.5322C828.323 64.8693 828.534 65.1605 828.831 65.338C829.123 65.5074 829.47 65.5532 829.795 65.4654C830.121 65.377 830.398 65.163 830.566 64.8699L835.632 56.0932C836.137 55.2194 836.273 54.1805 836.011 53.2059C835.749 52.2326 835.112 51.4033 834.238 50.9006L833.136 50.2674L836.303 44.7835C836.648 44.1818 836.445 43.4138 835.847 43.0613L836.48 41.9594C836.999 41.072 837.136 40.0121 836.86 39.0214ZM832.085 39.3758C832.253 39.0826 832.531 38.8681 832.858 38.7809C833.183 38.7005 833.527 38.7456 833.82 38.9076C834.114 39.0752 834.328 39.3535 834.416 39.68C834.496 40.0053 834.451 40.3491 834.289 40.6422L833.656 41.7442L831.452 40.4777L832.085 39.3758ZM814.824 74.7356L812.316 73.2787L814.114 68.4664L818.104 70.7711L814.824 74.7356ZM811.024 78.3952C810.489 78.0223 810.325 77.305 810.645 76.736L811.278 75.6347L813.481 76.9012L812.848 77.9901C812.67 78.2981 812.372 78.517 812.025 78.5943C811.679 78.671 811.316 78.5992 811.024 78.3952ZM819.547 68.6946L815.166 66.1617L825.297 48.6082L829.679 51.1411L819.547 68.6946ZM830.945 48.9502L826.564 46.4173L829.097 42.0354L833.478 44.5683L830.945 48.9502Z" fill="#B2ABB1"/>
<path d="M780.984 77.7615L776.502 82.2324L773.817 79.5474C773.323 79.0564 772.525 79.0564 772.031 79.5474C771.791 79.7855 771.656 80.1089 771.656 80.4466C771.656 80.7842 771.791 81.1082 772.031 81.3457L774.716 84.0307C775.191 84.5019 775.833 84.766 776.502 84.7653C777.175 84.7691 777.822 84.505 778.3 84.0307L782.77 79.5474C783.201 79.0447 783.172 78.2958 782.704 77.8283C782.236 77.3602 781.487 77.3311 780.984 77.7615Z" fill="#B2ABB1"/>
<path d="M766.066 81.168C766.066 87.1138 770.886 91.9329 776.831 91.9329C782.776 91.9329 787.596 87.1138 787.596 81.168C787.596 80.4686 787.029 79.9016 786.329 79.9016C785.63 79.9016 785.063 80.4686 785.063 81.168C785.063 85.7144 781.377 89.4 776.831 89.4C772.285 89.4 768.599 85.7144 768.599 81.168C768.599 76.6217 772.285 72.9361 776.831 72.9361C778.613 72.9311 780.348 73.5093 781.77 74.5828C782.33 75.0027 783.124 74.8889 783.543 74.3293C783.963 73.7697 783.85 72.9763 783.29 72.5564C780.028 70.1101 775.663 69.7168 772.017 71.5398C768.37 73.3634 766.066 77.091 766.066 81.168Z" fill="#B2ABB1"/>
<path d="M806.592 31.1431C807.291 31.1431 807.858 30.5767 807.858 29.8766C807.858 29.1773 807.291 28.6102 806.592 28.6102H773.664C772.965 28.6102 772.398 29.1773 772.398 29.8766V34.9424C772.398 35.6425 772.965 36.2089 773.664 36.2089H806.592C807.291 36.2089 807.858 35.6425 807.858 34.9424C807.858 34.2431 807.291 33.676 806.592 33.676H774.931V31.1431H806.592Z" fill="#B2ABB1"/>
<path d="M777.463 38.7423C776.764 38.7423 776.197 39.3094 776.197 40.0088C776.197 40.7088 776.764 41.2752 777.463 41.2752H802.792C803.492 41.2752 804.059 40.7088 804.059 40.0088C804.059 39.3094 803.492 38.7423 802.792 38.7423H777.463Z" fill="#B2ABB1"/>
<path d="M810.391 47.6076H782.529C781.83 47.6076 781.263 48.1747 781.263 48.8741C781.263 49.5741 781.83 50.1405 782.529 50.1405H810.391C811.091 50.1405 811.658 49.5741 811.658 48.8741C811.658 48.1747 811.091 47.6076 810.391 47.6076Z" fill="#B2ABB1"/>
<path d="M797.727 56.4725C797.727 55.7732 797.16 55.2061 796.461 55.2061H771.132C770.432 55.2061 769.865 55.7732 769.865 56.4725C769.865 57.1726 770.432 57.739 771.132 57.739H796.461C797.16 57.739 797.727 57.1726 797.727 56.4725Z" fill="#B2ABB1"/>
<path d="M810.392 55.2061H801.527C800.828 55.2061 800.26 55.7732 800.26 56.4725C800.26 57.1726 800.828 57.739 801.527 57.739H810.392C811.091 57.739 811.658 57.1726 811.658 56.4725C811.658 55.7732 811.091 55.2061 810.392 55.2061Z" fill="#B2ABB1"/>
<path d="M783.796 64.0706C784.496 64.0706 785.063 63.5042 785.063 62.8042C785.063 62.1048 784.496 61.5377 783.796 61.5377H771.132C770.432 61.5377 769.865 62.1048 769.865 62.8042C769.865 63.5042 770.432 64.0706 771.132 64.0706H783.796Z" fill="#B2ABB1"/>
<path d="M788.862 64.0706H797.728C798.427 64.0706 798.994 63.5042 798.994 62.8042C798.994 62.1048 798.427 61.5377 797.728 61.5377H788.862C788.163 61.5377 787.596 62.1048 787.596 62.8042C787.596 63.5042 788.163 64.0706 788.862 64.0706Z" fill="#B2ABB1"/>
<path d="M817.99 79.2685C817.291 79.2685 816.724 79.8355 816.724 80.5349V93.1994C816.724 93.8994 816.157 94.4659 815.457 94.4659H764.799C764.1 94.4659 763.533 93.8994 763.533 93.1994V24.8111C763.533 24.1117 764.1 23.5446 764.799 23.5446H815.457C816.157 23.5446 816.724 24.1117 816.724 24.8111V48.5954C816.724 49.2948 817.291 49.8618 817.99 49.8618C818.69 49.8618 819.257 49.2948 819.257 48.5954V24.8111C819.257 22.7129 817.556 21.0117 815.457 21.0117H764.799C762.701 21.0117 761 22.7129 761 24.8111V93.1994C761 95.2982 762.701 96.9988 764.799 96.9988H815.457C817.556 96.9988 819.257 95.2982 819.257 93.1994V80.5349C819.257 79.8355 818.69 79.2685 817.99 79.2685Z" fill="#B2ABB1"/>
<defs>
<clipPath id="clip0">
<rect x="1109" y="1" width="96" height="96" fill="white"/>
</clipPath>
</defs>
</svg>
