<svg width="96" height="96" viewBox="0 0 96 96" fill="none" xmlns="http://www.w3.org/2000/svg">
<g clip-path="url(#clip0)">
<path d="M94.4008 4.18841e-08C94.401 4.18841e-08 94.4006 4.18841e-08 94.4008 4.18841e-08H1.6C0.7166 -0.000199958 0.000200209 0.7158 2.09446e-07 1.5992C2.09446e-07 1.599 2.09446e-07 1.5994 2.09446e-07 1.5992V33.6H3.2V3.2H92.8V38.4H36.8V41.6H94.4C95.2834 41.6002 95.9998 40.8842 96 40.0008C96 40.001 96 40.0006 96 40.0008V1.6C96.0002 0.7166 95.2842 0.000200042 94.4008 4.18841e-08Z" fill="#B2ABB1"/>
<path d="M84.8 8H52.8V11.2H84.8V8Z" fill="#B2ABB1"/>
<path d="M89.6 17.6H57.6V20.8H89.6V17.6Z" fill="#B2ABB1"/>
<path d="M83.2 27.2H51.2V30.4H83.2V27.2Z" fill="#B2ABB1"/>
<path d="M51.0724 13.7948C49.977 11.1618 46.9546 9.9154 44.3218 11.0108C44.2768 11.0296 44.232 11.0488 44.1876 11.0688L31.214 17.7988C31.7256 16.7384 31.9942 15.5772 32 14.4C32 9.9818 28.4182 6.4 24 6.4C19.5818 6.4 16 9.9818 16 14.4C16.006 16.1366 16.5826 17.8232 17.641 19.2H17.5744C13.0328 19.2304 8.9786 22.0538 7.3752 26.3032L3.104 41.025C2.0872 43.6662 3.404 46.6318 6.0454 47.6486C7.2498 48.1122 8.5848 48.1044 9.7838 47.6266C11.1614 47.0716 12.2334 45.9508 12.7268 44.55L14.4 39.225V62.3816C13.0232 61.3234 11.3366 60.7468 9.6 60.7406C5.1884 60.734 1.6066 64.305 1.6 68.7168C1.5968 70.8774 2.4688 72.947 4.0174 74.4538C1.5598 75.7094 0.00960004 78.2326 4.18877e-08 80.9922V94.4C-0.000199958 95.2834 0.7158 95.9998 1.5992 96C1.599 96 1.5994 96 1.5992 96H17.6C18.4834 96.0002 19.1998 95.2842 19.2 94.4008C19.2 94.401 19.2 94.4006 19.2 94.4008V80.9922C19.1922 78.7244 18.1386 76.5872 16.3448 75.2H28.4554C26.6614 76.5872 25.6078 78.7244 25.6002 80.9922V94.4C25.6 95.2834 26.316 95.9998 27.1994 96C27.1992 96 27.1996 96 27.1994 96H43.2002C44.0836 96.0002 44.8 95.2842 44.8002 94.4008C44.8002 94.401 44.8002 94.4006 44.8002 94.4008V80.9922C44.7906 78.2326 43.2404 75.7094 40.7828 74.4538C43.9418 71.3704 44.0032 66.3098 40.9198 63.1508C39.021 61.2054 36.2636 60.3584 33.6002 60.9024V28.1718L48.2884 20.5452C50.9212 19.45 52.1676 16.4276 51.0724 13.7948ZM24 9.6C26.651 9.6 28.8 11.749 28.8 14.4C28.8 17.051 26.651 19.2 24 19.2C21.3502 19.1972 19.2028 17.0498 19.2 14.4C19.2 11.749 21.349 9.6 24 9.6ZM9.6 63.9406C12.251 63.9406 14.4 66.0896 14.4 68.7406C14.4 71.3916 12.251 73.5406 9.6 73.5406C6.949 73.5406 4.8 71.3916 4.8 68.7406C4.8028 66.0908 6.9502 63.9436 9.6 63.9406ZM16 92.8H3.2V80.9922C3.2032 78.678 5.0786 76.8028 7.393 76.8H11.807C14.1212 76.8028 15.9968 78.678 16 80.9922V92.8ZM41.6 80.9922V92.8H28.8V80.9922C28.8032 78.678 30.6786 76.8028 32.993 76.8H37.407C39.7214 76.8028 41.5968 78.678 41.6 80.9922ZM35.2 63.9406C37.8498 63.9434 39.9972 66.0908 40 68.7406C40 71.3916 37.851 73.5406 35.2 73.5406C32.549 73.5406 30.4 71.3916 30.4 68.7406C30.4 66.0896 32.549 63.9406 35.2 63.9406ZM48.1446 16.464C47.9304 17.0136 47.4906 17.445 46.9368 17.6484L31.2634 25.7796C30.733 26.0548 30.4 26.6026 30.4 27.2V62.3816C27.403 64.5976 26.3648 68.6082 27.9104 72H25.6V44.8H22.4V72H16.8896C17.3448 70.994 17.5846 69.904 17.594 68.8H17.6V28.8C17.5998 27.9162 16.8832 27.2 15.9996 27.2002C15.301 27.2004 14.6832 27.6538 14.4736 28.3204L9.696 43.5234C9.334 44.5218 8.231 45.0378 7.2326 44.6756C7.1626 44.6502 7.094 44.6208 7.0272 44.5874C6.1042 44.1104 5.7124 42.9968 6.1336 42.0468L10.4046 27.325C11.5564 24.367 14.3998 22.4138 17.5742 22.4H28.9032C29.1596 22.4004 29.4124 22.3386 29.64 22.2204L45.5424 13.9658C46.4964 13.5678 47.596 13.975 48.0604 14.8986C48.3066 15.3854 48.3372 15.9534 48.1446 16.464Z" fill="#B2ABB1"/>
<path d="M66.3826 74.4532C69.5472 71.37 69.6132 66.305 66.53 63.1404C63.4468 59.9758 58.3818 59.9098 55.2172 62.993C52.0526 66.0762 51.9866 71.1412 55.0698 74.3058C55.1184 74.3556 55.1676 74.4048 55.2174 74.4532C52.76 75.7088 51.2096 78.232 51.2 80.9917V94.3995C51.1998 95.2829 51.9158 95.9993 52.7992 95.9995C52.799 95.9995 52.7994 95.9995 52.7992 95.9995H68.8C69.6834 95.9997 70.3998 95.2837 70.4 94.4003C70.4 94.4005 70.4 94.4001 70.4 94.4003V80.9917C70.3904 78.232 68.8402 75.7088 66.3826 74.4532ZM60.8 63.94C63.451 63.94 65.6 66.089 65.6 68.74C65.6 71.391 63.451 73.54 60.8 73.54C58.149 73.54 56 71.391 56 68.74C56.0028 66.0902 58.1502 63.943 60.8 63.94ZM67.2 92.7995H54.4V80.9917C54.4032 78.6775 56.2786 76.8022 58.593 76.7994H63.007C65.3212 76.8022 67.1968 78.6775 67.2 80.9917V92.7995Z" fill="#B2ABB1"/>
<path d="M91.9826 74.4532C95.1472 71.37 95.2132 66.305 92.13 63.1404C89.0468 59.9758 83.9818 59.9098 80.8172 62.993C77.6526 66.0762 77.5866 71.1412 80.6698 74.3058C80.7184 74.3556 80.7676 74.4048 80.8174 74.4532C78.36 75.7088 76.8096 78.232 76.8 80.9917V94.3995C76.7998 95.2829 77.5158 95.9993 78.3992 95.9995C78.399 95.9995 78.3994 95.9995 78.3992 95.9995H94.4C95.2834 95.9997 95.9998 95.2837 96 94.4003C96 94.4005 96 94.4001 96 94.4003V80.9917C95.9904 78.232 94.4402 75.7088 91.9826 74.4532ZM86.4 63.94C89.051 63.94 91.2 66.089 91.2 68.74C91.2 71.391 89.051 73.54 86.4 73.54C83.749 73.54 81.6 71.391 81.6 68.74C81.6028 66.0902 83.7502 63.943 86.4 63.94ZM92.8 92.7995H80V80.9917C80.0032 78.6775 81.8786 76.8022 84.193 76.7994H88.607C90.9212 76.8022 92.7968 78.6775 92.8 80.9917V92.7995Z" fill="#B2ABB1"/>
</g>
<defs>
<clipPath id="clip0">
<rect width="96" height="96" fill="white"/>
</clipPath>
</defs>
</svg>
