<svg width="96" height="96" viewBox="0 0 96 96" fill="none" xmlns="http://www.w3.org/2000/svg">
<path d="M87.002 52.5H84.002C84.0031 53.8299 83.5614 55.1224 82.7466 56.1735C81.9318 57.2246 80.7903 57.9745 79.502 58.305C79.0134 58.4389 78.5086 58.5046 78.002 58.5C76.4107 58.5 74.8846 57.8678 73.7594 56.7426C72.6342 55.6174 72.002 54.0913 72.002 52.5V46.5C72.0092 43.0442 71.1533 39.6412 69.512 36.6C69.302 36.21 69.077 35.82 68.852 35.445C66.9914 32.4602 64.4138 29.9881 61.3538 28.2538C58.2939 26.5194 54.8487 25.5779 51.332 25.515C51.336 25.515 51.3398 25.5134 51.3426 25.5106C51.3454 25.5078 51.347 25.504 51.347 25.5H60.002C63.5481 25.4986 67.0597 26.1961 70.3361 27.5524C73.6125 28.9088 76.5895 30.8976 79.097 33.405C81.6045 35.9125 83.5932 38.8895 84.9496 42.1659C86.306 45.4423 87.0034 48.9539 87.002 52.5Z" fill="#3D9AE2"/>
<path d="M44.67 25.515C41.1533 25.5779 37.7082 26.5194 34.6482 28.2538C31.5882 29.9881 29.0106 32.4602 27.15 35.445C26.925 35.82 26.7 36.21 26.49 36.6C24.8487 39.6412 23.9928 43.0442 24 46.5V52.5C24 54.0913 23.3679 55.6174 22.2426 56.7426C21.1174 57.8679 19.5913 58.5 18 58.5C17.4934 58.5046 16.9886 58.439 16.5 58.305C15.2118 57.9745 14.0702 57.2246 13.2554 56.1735C12.4406 55.1224 11.9989 53.8299 12 52.5H9C9.00596 45.341 11.8525 38.4769 16.9147 33.4147C21.9769 28.3525 28.841 25.506 36 25.5H44.655C44.655 25.504 44.6566 25.5078 44.6594 25.5106C44.6622 25.5134 44.666 25.515 44.67 25.515Z" fill="#FF6243"/>
<path d="M79.5 58.305V88.5C79.4976 89.2949 79.1808 90.0566 78.6187 90.6187C78.0566 91.1808 77.2949 91.4976 76.5 91.5H19.5C18.7051 91.4976 17.9434 91.1808 17.3813 90.6187C16.8192 90.0566 16.5024 89.2949 16.5 88.5V58.305C16.9886 58.439 17.4934 58.5046 18 58.5C19.5913 58.5 21.1174 57.8679 22.2426 56.7426C23.3679 55.6174 24 54.0913 24 52.5C24 54.0913 24.6321 55.6174 25.7574 56.7426C26.8826 57.8679 28.4087 58.5 30 58.5C31.5913 58.5 33.1174 57.8679 34.2426 56.7426C35.3679 55.6174 36 54.0913 36 52.5C36 54.0913 36.6321 55.6174 37.7574 56.7426C38.8826 57.8679 40.4087 58.5 42 58.5C43.5913 58.5 45.1174 57.8679 46.2426 56.7426C47.3679 55.6174 48 54.0913 48 52.5C48 54.0913 48.6321 55.6174 49.7574 56.7426C50.8826 57.8679 52.4087 58.5 54 58.5C55.5913 58.5 57.1174 57.8679 58.2426 56.7426C59.3679 55.6174 60 54.0913 60 52.5C60 54.0913 60.6321 55.6174 61.7574 56.7426C62.8826 57.8679 64.4087 58.5 66 58.5C67.5913 58.5 69.1174 57.8679 70.2426 56.7426C71.3679 55.6174 72 54.0913 72 52.5C72 54.0913 72.6321 55.6174 73.7574 56.7426C74.8826 57.8679 76.4087 58.5 78 58.5C78.5066 58.5046 79.0114 58.439 79.5 58.305Z" fill="#00CCB3"/>
<path d="M40.5 70.5V91.5H25.5V70.5C25.5024 69.7051 25.8192 68.9434 26.3813 68.3813C26.9434 67.8192 27.7051 67.5024 28.5 67.5H37.5C38.2949 67.5024 39.0566 67.8192 39.6187 68.3813C40.1808 68.9434 40.4976 69.7051 40.5 70.5Z" fill="#96C8EF"/>
<path d="M69 67.5H51C50.1716 67.5 49.5 68.1716 49.5 69V78C49.5 78.8284 50.1716 79.5 51 79.5H69C69.8284 79.5 70.5 78.8284 70.5 78V69C70.5 68.1716 69.8284 67.5 69 67.5Z" fill="#96C8EF"/>
<path d="M60 37.5V52.5C60 54.0913 59.3679 55.6174 58.2427 56.7426C57.1174 57.8679 55.5913 58.5 54 58.5C52.4087 58.5 50.8826 57.8679 49.7574 56.7426C48.6321 55.6174 48 54.0913 48 52.5V25.5C49.0017 25.5017 49.9993 25.6277 50.97 25.875C53.3043 26.4703 55.4053 27.7544 56.9998 29.5603C58.5943 31.3661 59.6083 33.61 59.91 36C59.9703 36.4977 60.0004 36.9986 60 37.5Z" fill="#3D9AE2"/>
<path d="M48 25.5004C45.0758 25.4968 42.2511 26.5622 40.0576 28.496C37.864 30.4298 36.453 33.0987 36.09 36.0004C36.0297 36.4981 35.9997 36.999 36 37.5004V52.5004C36 54.0917 35.3679 55.6178 34.2427 56.743C33.1175 57.8682 31.5913 58.5004 30 58.5004C28.4087 58.5004 26.8826 57.8682 25.7574 56.743C24.6322 55.6178 24 54.0917 24 52.5004V46.5004C23.9929 43.0445 24.8487 39.6416 26.49 36.6004C26.7 36.2104 26.925 35.8204 27.15 35.4454C29.0107 32.4605 31.5883 29.9885 34.6483 28.2541C37.7082 26.5198 41.1533 25.5783 44.67 25.5154C44.7796 25.5029 44.8898 25.4979 45 25.5004H48Z" fill="#3D9AE2"/>
<path d="M72 46.5004V52.5004C72 54.0917 71.3679 55.6178 70.2426 56.743C69.1174 57.8682 67.5913 58.5004 66 58.5004C64.4087 58.5004 62.8826 57.8682 61.7574 56.743C60.6321 55.6178 60 54.0917 60 52.5004V37.5004C60.0004 36.999 59.9703 36.4981 59.91 36.0004C59.6083 33.6103 58.5943 31.3664 56.9998 29.5606C55.4053 27.7548 53.3043 26.4707 50.97 25.8754C49.9993 25.6281 49.0017 25.5021 48 25.5004H51C51.1102 25.4979 51.2205 25.5029 51.33 25.5154C54.8467 25.5783 58.2918 26.5198 61.3518 28.2541C64.4118 29.9885 66.9894 32.4605 68.85 35.4454C69.075 35.8204 69.3 36.2104 69.51 36.6004C71.1513 39.6416 72.0072 43.0445 72 46.5004Z" fill="#FF6243"/>
<path d="M48 25.5V52.5C48 54.0913 47.3679 55.6174 46.2427 56.7426C45.1174 57.8679 43.5913 58.5 42 58.5C40.4087 58.5 38.8826 57.8679 37.7574 56.7426C36.6321 55.6174 36 54.0913 36 52.5V37.5C35.9996 36.9986 36.0297 36.4977 36.09 36C36.4582 33.1006 37.8708 30.4348 40.0632 28.502C42.2555 26.5692 45.0773 25.5019 48 25.5Z" fill="#FF6243"/>
<path d="M79.5 58.305V61.305C79.0114 61.439 78.5066 61.5046 78 61.5C76.4087 61.5 74.8826 60.8679 73.7574 59.7426C72.6321 58.6174 72 57.0913 72 55.5C72 57.0913 71.3679 58.6174 70.2426 59.7426C69.1174 60.8679 67.5913 61.5 66 61.5C64.4087 61.5 62.8826 60.8679 61.7574 59.7426C60.6321 58.6174 60 57.0913 60 55.5C60 57.0913 59.3679 58.6174 58.2426 59.7426C57.1174 60.8679 55.5913 61.5 54 61.5C52.4087 61.5 50.8826 60.8679 49.7574 59.7426C48.6321 58.6174 48 57.0913 48 55.5C48 57.0913 47.3679 58.6174 46.2426 59.7426C45.1174 60.8679 43.5913 61.5 42 61.5C40.4087 61.5 38.8826 60.8679 37.7574 59.7426C36.6321 58.6174 36 57.0913 36 55.5C36 57.0913 35.3679 58.6174 34.2426 59.7426C33.1174 60.8679 31.5913 61.5 30 61.5C28.4087 61.5 26.8826 60.8679 25.7574 59.7426C24.6321 58.6174 24 57.0913 24 55.5C24 57.0913 23.3679 58.6174 22.2426 59.7426C21.1174 60.8679 19.5913 61.5 18 61.5C17.4934 61.5046 16.9886 61.439 16.5 61.305V58.305C16.9886 58.439 17.4934 58.5046 18 58.5C19.5913 58.5 21.1174 57.8679 22.2426 56.7426C23.3679 55.6174 24 54.0913 24 52.5C24 54.0913 24.6321 55.6174 25.7574 56.7426C26.8826 57.8679 28.4087 58.5 30 58.5C31.5913 58.5 33.1174 57.8679 34.2426 56.7426C35.3679 55.6174 36 54.0913 36 52.5C36 54.0913 36.6321 55.6174 37.7574 56.7426C38.8826 57.8679 40.4087 58.5 42 58.5C43.5913 58.5 45.1174 57.8679 46.2426 56.7426C47.3679 55.6174 48 54.0913 48 52.5C48 54.0913 48.6321 55.6174 49.7574 56.7426C50.8826 57.8679 52.4087 58.5 54 58.5C55.5913 58.5 57.1174 57.8679 58.2426 56.7426C59.3679 55.6174 60 54.0913 60 52.5C60 54.0913 60.6321 55.6174 61.7574 56.7426C62.8826 57.8679 64.4087 58.5 66 58.5C67.5913 58.5 69.1174 57.8679 70.2426 56.7426C71.3679 55.6174 72 54.0913 72 52.5C72 54.0913 72.6321 55.6174 73.7574 56.7426C74.8826 57.8679 76.4087 58.5 78 58.5C78.5066 58.5046 79.0114 58.439 79.5 58.305Z" fill="#00B39D"/>
<path d="M40.5 72V78L27 91.5H25.5V87L40.5 72Z" fill="#78B9EB"/>
<path d="M40.5 81V86.25L35.25 91.5H30L40.5 81Z" fill="#78B9EB"/>
<path d="M70.5 69L60 79.5H54L66 67.5H69C69.3978 67.5 69.7794 67.658 70.0607 67.9393C70.342 68.2206 70.5 68.6022 70.5 69Z" fill="#78B9EB"/>
<path d="M70.5 72V77.25L68.25 79.5H63L70.5 72Z" fill="#78B9EB"/>
<path d="M36.0022 46.0353V49.0203C31.4488 46.151 28.0747 41.7445 26.4922 36.6003C26.7022 36.2103 26.9272 35.8203 27.1522 35.4453C28.92 39.8152 32.0157 43.5195 36.0022 46.0353Z" fill="#1E81CE"/>
<path d="M27.15 35.445C26.925 35.82 26.7 36.21 26.49 36.6C25.831 34.4621 25.4973 32.2372 25.5 30C25.5 29.49 25.515 28.995 25.56 28.5C25.7152 30.8851 26.2521 33.2299 27.15 35.445Z" fill="#ED1C24"/>
<path d="M48 49.5004V52.5004C43.7501 52.5078 39.5866 51.3004 36 49.0204V46.0354C39.5888 48.3088 43.7518 49.5109 48 49.5004Z" fill="#ED1C24"/>
<path d="M60 46.0354V49.0204C56.4134 51.3004 52.2499 52.5078 48 52.5004V49.5004C52.2482 49.5109 56.4112 48.3088 60 46.0354Z" fill="#1E81CE"/>
<path d="M69.51 36.6008C67.9275 41.745 64.5534 46.1515 60 49.0208V46.0358C63.9865 43.52 67.0822 39.8157 68.85 35.4458C69.075 35.8208 69.3 36.2108 69.51 36.6008Z" fill="#ED1C24"/>
<path d="M70.5006 30C70.5033 32.2372 70.1696 34.4621 69.5106 36.6C69.3006 36.21 69.0756 35.82 68.8506 35.445C69.7485 33.2299 70.2853 30.8851 70.4406 28.5C70.4856 28.995 70.5006 29.49 70.5006 30Z" fill="#1E81CE"/>
<path d="M48 49.5C60.4264 49.5 70.5 39.4264 70.5 27C70.5 14.5736 60.4264 4.5 48 4.5C35.5736 4.5 25.5 14.5736 25.5 27C25.5 39.4264 35.5736 49.5 48 49.5Z" fill="#FFD422"/>
<path d="M60.1809 25.7099C60.1303 26.0677 59.9522 26.3953 59.6794 26.6323C59.4066 26.8693 59.0573 26.9998 58.6959 26.9999H58.3059C57.9445 26.9998 57.5953 26.8693 57.3225 26.6323C57.0496 26.3953 56.8715 26.0677 56.8209 25.7099L55.7109 18.0149C57.6379 18.0451 59.5023 18.7034 61.0209 19.8899V19.9049L60.1809 25.7099Z" fill="#A97C50"/>
<path d="M49.6786 24.21C49.628 24.5678 49.4499 24.8954 49.1771 25.1324C48.9042 25.3694 48.555 25.4999 48.1936 25.5H47.8036C47.4422 25.4999 47.093 25.3694 46.8201 25.1324C46.5473 24.8954 46.3692 24.5678 46.3186 24.21L45.4336 18H50.5636L49.6786 24.21Z" fill="#A97C50"/>
<path d="M39.1795 25.7099C39.1289 26.0677 38.9508 26.3953 38.678 26.6323C38.4051 26.8693 38.0559 26.9998 37.6945 26.9999H37.3045C36.9431 26.9998 36.5939 26.8693 36.321 26.6323C36.0482 26.3953 35.8701 26.0677 35.8195 25.7099L34.9795 19.9049V19.8899C36.4981 18.7034 38.3626 18.0451 40.2895 18.0149L39.1795 25.7099Z" fill="#A97C50"/>
<path d="M55.71 18.0144L56.82 25.7094C56.8706 26.0672 57.0487 26.3948 57.3215 26.6318C57.5944 26.8688 57.9436 26.9993 58.305 26.9994H58.695C59.0564 26.9993 59.4056 26.8688 59.6785 26.6318C59.9513 26.3948 60.1294 26.0672 60.18 25.7094L61.02 19.9044C62.1037 20.7424 62.9809 21.8177 63.5842 23.0476C64.1875 24.2776 64.5008 25.6295 64.5 26.9994V29.9994C64.4976 30.7943 64.1808 31.556 63.6187 32.1181C63.0566 32.6802 62.2949 32.997 61.5 32.9994H34.5C33.7051 32.997 32.9434 32.6802 32.3813 32.1181C31.8192 31.556 31.5024 30.7943 31.5 29.9994V26.9994C31.4992 25.6295 31.8125 24.2776 32.4158 23.0476C33.0191 21.8177 33.8963 20.7424 34.98 19.9044L35.82 25.7094C35.8706 26.0672 36.0487 26.3948 36.3215 26.6318C36.5944 26.8688 36.9436 26.9993 37.305 26.9994H37.695C38.0564 26.9993 38.4056 26.8688 38.6785 26.6318C38.9513 26.3948 39.1294 26.0672 39.18 25.7094L40.29 18.0144C40.3592 18.0014 40.4297 17.9964 40.5 17.9994H45.435L46.32 24.2094C46.3706 24.5672 46.5487 24.8948 46.8215 25.1318C47.0944 25.3688 47.4436 25.4993 47.805 25.4994H48.195C48.5564 25.4993 48.9056 25.3688 49.1785 25.1318C49.4513 24.8948 49.6294 24.5672 49.68 24.2094L50.565 17.9994H55.5C55.5704 17.9964 55.6408 18.0014 55.71 18.0144Z" fill="#C49A6C"/>
<path d="M48 51C43.2533 51 38.6131 49.5924 34.6663 46.9553C30.7195 44.3181 27.6434 40.5698 25.8269 36.1844C24.0104 31.799 23.5351 26.9734 24.4612 22.3178C25.3872 17.6623 27.673 13.3859 31.0294 10.0294C34.3859 6.67299 38.6623 4.38721 43.3178 3.46116C47.9734 2.53512 52.799 3.0104 57.1844 4.8269C61.5698 6.6434 65.3181 9.71955 67.9553 13.6663C70.5924 17.6131 72 22.2533 72 27C71.9925 33.3629 69.4615 39.463 64.9622 43.9622C60.463 48.4615 54.3629 50.9925 48 51ZM48 6.00001C43.8466 6.00001 39.7865 7.23164 36.333 9.53915C32.8796 11.8467 30.188 15.1264 28.5985 18.9637C27.0091 22.8009 26.5932 27.0233 27.4035 31.0969C28.2138 35.1705 30.2139 38.9123 33.1508 41.8493C36.0877 44.7862 39.8295 46.7862 43.9031 47.5965C47.9767 48.4068 52.1991 47.9909 56.0364 46.4015C59.8736 44.812 63.1534 42.1204 65.4609 38.667C67.7684 35.2136 69 31.1534 69 27C68.9941 21.4323 66.7797 16.0943 62.8427 12.1573C58.9057 8.22037 53.5677 6.00597 48 6.00001Z" fill="#FFA733"/>
<path d="M42 91.5H39V70.5C39 70.1022 38.842 69.7206 38.5607 69.4393C38.2794 69.158 37.8978 69 37.5 69H28.5C28.1022 69 27.7206 69.158 27.4393 69.4393C27.158 69.7206 27 70.1022 27 70.5V91.5H24V70.5C24 69.3065 24.4741 68.1619 25.318 67.318C26.1619 66.4741 27.3065 66 28.5 66H37.5C38.6935 66 39.8381 66.4741 40.682 67.318C41.5259 68.1619 42 69.3065 42 70.5V91.5Z" fill="#009986"/>
<path d="M69 81H51C50.2044 81 49.4413 80.6839 48.8787 80.1213C48.3161 79.5587 48 78.7956 48 78V69C48 68.2044 48.3161 67.4413 48.8787 66.8787C49.4413 66.3161 50.2044 66 51 66H69C69.7956 66 70.5587 66.3161 71.1213 66.8787C71.6839 67.4413 72 68.2044 72 69V78C72 78.7956 71.6839 79.5587 71.1213 80.1213C70.5587 80.6839 69.7956 81 69 81ZM51 69V78H69V69H51Z" fill="#009986"/>
<path d="M6 90H90V93H6V90Z" fill="#009986"/>
<path d="M34.5 76.5H37.5V82.5H34.5V76.5Z" fill="#009986"/>
</svg>
