<svg width="56" height="56" viewBox="0 0 56 56" fill="none" xmlns="http://www.w3.org/2000/svg">
<path d="M49.0867 0H27.9991C24.1812 0 21.0867 3.08899 21.0867 6.91241V38.5436C21.0867 39.8856 22.6256 40.6704 23.7117 39.8561L30.3032 34.9124H49.0867C52.9045 34.9124 55.9991 31.8234 55.9991 28V6.91241C55.9991 3.09454 52.9101 0 49.0867 0V0Z" fill="#EFF6FE"/>
<path d="M49.0875 0H38.5435V34.9124H49.0875C52.9058 34.9124 55.9999 31.8239 55.9999 28V6.91241C55.9999 3.09412 52.9113 0 49.0875 0Z" fill="#D9E4EF"/>
<path d="M40.1841 25.3633C40.1841 26.2695 39.4496 27.0039 38.5435 27.0039C37.6377 27.0039 36.9028 26.2695 36.9028 25.3633C36.9028 24.4575 37.6377 23.7227 38.5435 23.7227C39.4496 23.7227 40.1841 24.4575 40.1841 25.3633Z" fill="#00D66A"/>
<path d="M38.5419 7.9082C35.2115 7.9082 32.51 10.6033 32.51 13.9401V13.9422C32.51 14.848 33.2444 15.582 34.1506 15.582C35.0568 15.582 35.7913 14.8463 35.7913 13.9401C35.7913 12.4233 37.0179 11.1895 38.544 11.1895C40.0616 11.1895 41.2963 12.4242 41.2963 13.9422C41.2963 15.4598 40.0616 16.6945 38.544 16.6945C37.6378 16.6945 36.9034 17.4294 36.9034 18.3351V20.0924C36.9034 20.9986 37.6378 21.733 38.544 21.733C39.4498 21.733 40.1846 20.9986 40.1846 20.0924V19.7493C42.7169 19.0328 44.5776 16.7005 44.5776 13.9422C44.5776 10.6148 41.871 7.9082 38.5419 7.9082Z" fill="#00D66A"/>
<path d="M40.1841 25.3633C40.1841 26.269 39.4492 27.0039 38.5435 27.0039V23.7227C39.4492 23.7227 40.1841 24.4579 40.1841 25.3633Z" fill="#00B85E"/>
<path d="M44.5779 13.9422C44.5779 16.7009 42.7164 19.0328 40.1841 19.7489V20.0924C40.1841 20.9982 39.4492 21.733 38.5435 21.733V16.6941C40.0619 16.6941 41.2966 15.4593 41.2966 13.9422C41.2966 12.4242 40.0619 11.1895 38.5435 11.1895V7.9082C41.8717 7.90906 44.5779 10.6161 44.5779 13.9422Z" fill="#00B85E"/>
<path d="M18.1814 34.1132C18.1814 38.3964 14.7092 41.8686 10.426 41.8686C6.14288 41.8686 2.67065 38.3964 2.67065 34.1132C2.67065 29.8297 6.14288 26.3574 10.426 26.3574C14.7092 26.3574 18.1814 29.8297 18.1814 34.1132Z" fill="#FFCFBE"/>
<path d="M18.1823 34.1132C18.1823 38.3964 14.7097 41.8682 10.4265 41.8682V26.3574C14.7097 26.3574 18.1823 29.8301 18.1823 34.1132Z" fill="#F9BCAA"/>
<path d="M10.4269 41.8691C4.66852 41.8691 0 46.5377 0 52.2961V54.3593C0 55.2654 0.734436 55.9999 1.64062 55.9999H19.2137C20.1194 55.9999 20.8543 55.2654 20.8543 54.3593V52.2961C20.8543 46.5377 16.1858 41.8691 10.4269 41.8691Z" fill="#FFCC4B"/>
<path d="M10.4269 41.8691C10.4269 41.8691 10.4269 41.8691 10.4265 41.8691V55.9999H19.2133C20.1194 55.9999 20.8539 55.2654 20.8539 54.3593V52.2961C20.8543 46.5377 16.1858 41.8691 10.4269 41.8691Z" fill="#FFB826"/>
</svg>
