<svg width="42" height="42" viewBox="0 0 42 42" fill="none" xmlns="http://www.w3.org/2000/svg">
<rect x="12.25" y="32.8125" width="6.5625" height="8.75" rx="3.28125" fill="#00CCB3"/>
<rect width="42" height="18.375" rx="9.1875" fill="#D9E4EF"/>
<rect x="0.875" y="32.8125" width="6.5625" height="8.75" rx="3.28125" fill="#00CCB3"/>
<rect x="23.1875" y="32.8125" width="6.5625" height="8.75" rx="3.28125" fill="#00CCB3"/>
<rect x="34.5625" y="32.8125" width="6.5625" height="8.75" rx="3.28125" fill="#00CCB3"/>
<path d="M22.3442 5.86023C21.8649 4.70829 20.5426 4.16299 19.3908 4.64223C19.3711 4.65045 19.3515 4.65885 19.3321 4.6676L13.6561 7.61198C13.88 7.14805 13.9975 6.64003 14 6.125C14 4.19204 12.433 2.625 10.5 2.625C8.56704 2.625 7 4.19204 7 6.125C7.00262 6.88476 7.25489 7.62265 7.71794 8.225H7.6888C5.70185 8.2383 3.92814 9.47354 3.22665 11.3327L1.358 17.7734C0.91315 18.929 1.48925 20.2264 2.64486 20.6713C3.17179 20.8741 3.75585 20.8707 4.28041 20.6616C4.88311 20.4188 5.35211 19.9285 5.56798 19.3156L6.3 16.9859V27.117C5.69765 26.654 4.95976 26.4017 4.2 26.399C2.26993 26.3961 0.702888 27.9584 0.7 29.8886C0.6986 30.8339 1.0801 31.7393 1.75761 32.3985C0.682413 32.9479 0.00420002 34.0518 1.83265e-08 35.2591V41.125C-8.74817e-05 41.5115 0.313163 41.8249 0.69965 41.825H7.7C8.08649 41.8251 8.39991 41.5118 8.4 41.1254V35.2591C8.39659 34.2669 7.93564 33.3319 7.15085 32.725H12.4492C11.6644 33.3319 11.2034 34.2669 11.2001 35.2591V41.125C11.2 41.5115 11.5133 41.8249 11.8997 41.825H18.9001C19.2866 41.8251 19.6 41.5118 19.6001 41.1254V35.2591C19.5959 34.0518 18.9177 32.9479 17.8425 32.3985C19.2245 31.0496 19.2514 28.8355 17.9024 27.4535C17.0717 26.6024 15.8653 26.2318 14.7001 26.4698V12.1502L21.1262 8.81353C22.278 8.33438 22.8233 7.01208 22.3442 5.86023ZM10.5 4.025C11.6598 4.025 12.6 4.96519 12.6 6.125C12.6 7.28481 11.6598 8.225 10.5 8.225C9.34071 8.22378 8.40123 7.28429 8.4 6.125C8.4 4.96519 9.34019 4.025 10.5 4.025ZM4.2 27.799C5.35981 27.799 6.3 28.7392 6.3 29.899C6.3 31.0588 5.35981 31.999 4.2 31.999C3.04019 31.999 2.1 31.0588 2.1 29.899C2.10123 28.7397 3.04071 27.8003 4.2 27.799ZM7 40.425H1.4V35.2591C1.4014 34.2466 2.22189 33.4262 3.23444 33.425H5.16556C6.17803 33.4262 6.9986 34.2466 7 35.2591V40.425ZM18.2 35.2591V40.425H12.6V35.2591C12.6014 34.2466 13.4219 33.4262 14.4344 33.425H16.3656C17.3781 33.4262 18.1986 34.2466 18.2 35.2591ZM15.4 27.799C16.5593 27.8002 17.4988 28.7397 17.5 29.899C17.5 31.0588 16.5598 31.999 15.4 31.999C14.2402 31.999 13.3 31.0588 13.3 29.899C13.3 28.7392 14.2402 27.799 15.4 27.799ZM21.0633 7.028C20.9696 7.26845 20.7771 7.45719 20.5349 7.54618L13.6777 11.1036C13.4457 11.224 13.3 11.4636 13.3 11.725V27.117C11.9888 28.0865 11.5346 29.8411 12.2108 31.325H11.2V19.425H9.8V31.325H7.3892C7.58835 30.8849 7.69326 30.408 7.69737 29.925H7.7V12.425C7.69991 12.0383 7.3864 11.725 6.99983 11.7251C6.69419 11.7252 6.4239 11.9235 6.3322 12.2152L4.242 18.8665C4.08362 19.3033 3.60106 19.529 3.16426 19.3706C3.13364 19.3595 3.10363 19.3466 3.0744 19.332C2.67059 19.1233 2.49917 18.6361 2.68345 18.2205L4.55201 11.7797C5.05592 10.4856 6.29991 9.63104 7.68871 9.625H12.6452C12.7573 9.62518 12.8679 9.59814 12.9675 9.54643L19.9248 5.93504C20.3422 5.76091 20.8233 5.93906 21.0264 6.34314C21.1341 6.55611 21.1475 6.80461 21.0633 7.028Z" fill="#00CCB3"/>
<path d="M29.0424 32.3983C30.4269 31.0494 30.4558 28.8335 29.1069 27.4489C27.758 26.0644 25.542 26.0356 24.1575 27.3845C22.773 28.7334 22.7441 30.9493 24.093 32.3338C24.1143 32.3556 24.1358 32.3771 24.1576 32.3983C23.0825 32.9476 22.4042 34.0515 22.4 35.2589V41.1248C22.3999 41.5113 22.7132 41.8247 23.0997 41.8248H30.1C30.4865 41.8249 30.7999 41.5116 30.8 41.1251V35.2589C30.7958 34.0515 30.1176 32.9476 29.0424 32.3983ZM26.6 27.7988C27.7598 27.7988 28.7 28.739 28.7 29.8988C28.7 31.0586 27.7598 31.9988 26.6 31.9988C25.4402 31.9988 24.5 31.0586 24.5 29.8988C24.5012 28.7395 25.4407 27.8001 26.6 27.7988ZM29.4 40.4248H23.8V35.2589C23.8014 34.2464 24.6219 33.426 25.6344 33.4248H27.5656C28.578 33.426 29.3986 34.2464 29.4 35.2589V40.4248Z" fill="#00CCB3"/>
<path d="M40.2424 32.3983C41.6269 31.0494 41.6558 28.8335 40.3069 27.4489C38.958 26.0644 36.742 26.0356 35.3575 27.3845C33.973 28.7334 33.9441 30.9493 35.293 32.3338C35.3143 32.3556 35.3358 32.3771 35.3576 32.3983C34.2825 32.9476 33.6042 34.0515 33.6 35.2589V41.1248C33.5999 41.5113 33.9132 41.8247 34.2997 41.8248H41.3C41.6865 41.8249 41.9999 41.5116 42 41.1251V35.2589C41.9958 34.0515 41.3176 32.9476 40.2424 32.3983ZM37.8 27.7988C38.9598 27.7988 39.9 28.739 39.9 29.8988C39.9 31.0586 38.9598 31.9988 37.8 31.9988C36.6402 31.9988 35.7 31.0586 35.7 29.8988C35.7012 28.7395 36.6407 27.8001 37.8 27.7988ZM40.6 40.4248H35V35.2589C35.0014 34.2464 35.8219 33.426 36.8344 33.4248H38.7656C39.778 33.426 40.5986 34.2464 40.6 35.2589V40.4248Z" fill="#00CCB3"/>
<rect x="6.5625" y="20.125" width="7.875" height="12.25" fill="#009986"/>
<path d="M7.875 29.9689C7.875 32.0226 6.21004 33.6875 4.15625 33.6875C2.10246 33.6875 0.4375 32.0226 0.4375 29.9689C0.4375 27.9149 2.10246 26.25 4.15625 26.25C6.21004 26.25 7.875 27.9149 7.875 29.9689Z" fill="#FFCFBE"/>
<path d="M7.875 29.969C7.875 32.0227 6.30788 33.6875 4.375 33.6875V26.25C6.30788 26.25 7.875 27.9152 7.875 29.969Z" fill="#F9BCAA"/>
<path d="M30.1875 29.9689C30.1875 32.0226 28.5225 33.6875 26.4688 33.6875C24.415 33.6875 22.75 32.0226 22.75 29.9689C22.75 27.9149 24.415 26.25 26.4688 26.25C28.5225 26.25 30.1875 27.9149 30.1875 29.9689Z" fill="#FFCFBE"/>
<path d="M30.1875 29.969C30.1875 32.0227 28.6204 33.6875 26.6875 33.6875V26.25C28.6204 26.25 30.1875 27.9152 30.1875 29.969Z" fill="#F9BCAA"/>
<path d="M41.5625 29.9689C41.5625 32.0226 39.8975 33.6875 37.8438 33.6875C35.79 33.6875 34.125 32.0226 34.125 29.9689C34.125 27.9149 35.79 26.25 37.8438 26.25C39.8975 26.25 41.5625 27.9149 41.5625 29.9689Z" fill="#FFCFBE"/>
<rect x="0.591064" y="20.4277" width="10.2777" height="4.77277" rx="2.38638" transform="rotate(-75 0.591064 20.4277)" fill="#FFCFBE"/>
<rect x="0.591064" y="20.4277" width="10.2777" height="4.77277" rx="2.38638" transform="rotate(-75 0.591064 20.4277)" fill="#FFCFBE"/>
<path d="M41.5625 29.969C41.5625 32.0227 39.9954 33.6875 38.0625 33.6875V26.25C39.9954 26.25 41.5625 27.9152 41.5625 29.969Z" fill="#F9BCAA"/>
<path d="M6.78125 19.9062V32.1562H10.5M14.2188 19.9062V32.1562H10.5M10.5 21V32.1562" stroke="#008F7B" stroke-width="3"/>
<path d="M5.95671 11.0709C5.92878 9.42293 7.23554 8.06106 8.88324 8.02093L11.802 7.94984C13.4869 7.90881 14.875 9.2635 14.875 10.949V17.9998C14.875 19.6567 13.5319 20.9998 11.875 20.9998H9.07458C7.43755 20.9998 6.10276 19.6875 6.07501 18.0507L5.95671 11.0709Z" fill="#00CCB3"/>
<path d="M13.7455 9.83778C13.1612 8.58765 13.7009 7.10052 14.9511 6.51619L19.1416 4.55744C20.3917 3.97311 21.8789 4.51284 22.4632 5.76297C23.0475 7.0131 22.5078 8.50023 21.2577 9.08456L17.0671 11.0433C15.817 11.6276 14.3299 11.0879 13.7455 9.83778Z" fill="#FFCFBE"/>
<path d="M13.7455 9.83778C13.1612 8.58765 13.7009 7.10052 14.9511 6.51619L19.1416 4.55744C20.3917 3.97311 21.8789 4.51284 22.4632 5.76297C23.0475 7.0131 22.5078 8.50023 21.2577 9.08456L17.0671 11.0433C15.817 11.6276 14.3299 11.0879 13.7455 9.83778Z" fill="#FFCFBE"/>
<path d="M37.0999 3.5H23.0999V4.9H37.0999V3.5Z" fill="#C4CFDA"/>
<path d="M39.1999 7.7H25.1999V9.1H39.1999V7.7Z" fill="#C4CFDA"/>
<path d="M36.3999 11.9H22.3999V13.3H36.3999V11.9Z" fill="#C4CFDA"/>
<path d="M17.2813 5.46875L12.8558 7.65625L14.1098 11.6228C14.2166 11.9606 14.5607 12.1529 14.8785 12.0524L15.6021 11.8237C17.6218 11.1855 17.9597 7.61518 17.2813 5.46875Z" fill="#009986"/>
<path d="M14.4375 5.68761C14.4375 7.86215 12.6746 9.625 10.5 9.625C8.32539 9.625 6.5625 7.86215 6.5625 5.68761C6.5625 3.51285 8.32539 1.75 10.5 1.75C12.6746 1.75 14.4375 3.51285 14.4375 5.68761Z" fill="#FFCFBE"/>
<path d="M14.4375 5.68772C14.4375 7.86232 12.6745 9.625 10.5 9.625V1.75C12.6745 1.75 14.4375 3.51311 14.4375 5.68772Z" fill="#F9BCAA"/>
<path d="M2.8437 12.0304C2.8437 12.0304 3.49993 8.96825 6.56241 8.31163C8.45041 7.90683 6.5156 13.4744 6.5156 13.4744C6.51511 13.8287 6.24456 14.1154 5.91123 14.1149L5.15233 14.1138C3.49992 13.3425 2.8437 12.6869 2.8437 12.0304Z" fill="#009986"/>
<path d="M7.875 29.9689C7.875 32.0226 6.21004 33.6875 4.15625 33.6875C2.10246 33.6875 0.4375 32.0226 0.4375 29.9689C0.4375 27.9149 2.10246 26.25 4.15625 26.25C6.21004 26.25 7.875 27.9149 7.875 29.9689Z" fill="#FFCFBE"/>
<path d="M7.875 29.969C7.875 32.0227 6.30788 33.6875 4.375 33.6875V26.25C6.30788 26.25 7.875 27.9152 7.875 29.969Z" fill="#F9BCAA"/>
<path d="M19.25 29.9689C19.25 32.0226 17.585 33.6875 15.5312 33.6875C13.4775 33.6875 11.8125 32.0226 11.8125 29.9689C11.8125 27.9149 13.4775 26.25 15.5312 26.25C17.585 26.25 19.25 27.9149 19.25 29.9689Z" fill="#FFCFBE"/>
<path d="M19.25 29.969C19.25 32.0227 17.6829 33.6875 15.75 33.6875V26.25C17.6829 26.25 19.25 27.9152 19.25 29.969Z" fill="#F9BCAA"/>
</svg>
