<svg width="42" height="42" viewBox="0 0 42 42" fill="none" xmlns="http://www.w3.org/2000/svg">
<rect width="32.0526" height="42" rx="5" fill="#D9E4EF"/>
<rect x="35.271" y="14.5234" width="3.8839" height="12.0637" transform="rotate(29.7246 35.271 14.5234)" fill="#00CCB3"/>
<rect x="39.1394" y="8.8418" width="2.30917" height="2.22548" transform="rotate(29.7246 39.1394 8.8418)" fill="#00CCB3"/>
<rect x="37.5771" y="11.0527" width="3.97299" height="3.8471" transform="rotate(29.7246 37.5771 11.0527)" fill="#D9E4EF"/>
<rect x="37.5771" y="11.0527" width="3.97299" height="3.8471" transform="rotate(29.7246 37.5771 11.0527)" fill="#009986"/>
<rect x="29.4158" y="26.1641" width="3.17073" height="3.59833" transform="rotate(29.7246 29.4158 26.1641)" fill="#D9E4EF"/>
<rect x="29.4158" y="26.1641" width="3.17073" height="3.59833" transform="rotate(29.7246 29.4158 26.1641)" fill="#009986"/>
<rect width="2.48038" height="1.82171" transform="matrix(0.868419 0.495831 -0.495832 0.868418 27.4294 29.8418)" fill="#D9E4EF"/>
<rect width="2.48038" height="1.82171" transform="matrix(0.868419 0.495831 -0.495832 0.868418 27.4294 29.8418)" fill="#00CCB3"/>
<ellipse cx="8.56581" cy="32.8808" rx="5.80263" ry="5.80263" fill="#EFF6FE"/>
<path d="M41.9224 9.95212C41.7778 9.41456 41.4252 8.95629 40.9426 8.67846C40.4598 8.39926 39.8856 8.32373 39.3471 8.46829C38.8092 8.61319 38.3509 8.96552 38.0731 9.44805L37.7231 10.057C37.3906 9.866 36.9658 9.97843 36.7714 10.3092L34.9936 13.3394L34.3847 12.9895C34.2234 12.8962 34.0313 12.8709 33.8516 12.9194C33.6715 12.9683 33.5184 13.0865 33.4258 13.2485C33.2361 13.5831 33.3516 14.0082 33.6848 14.2003L34.2938 14.5502L28.3448 24.8594L26.875 28.786L26.1751 30.0945C25.7653 30.8074 25.8091 31.6935 26.2872 32.3623L24.7124 34.2938L24.2716 33.1883C24.0727 32.6955 23.6124 32.3579 23.083 32.3165C22.5533 32.2748 22.0459 32.5366 21.7728 32.9921L21.5209 33.419L21.2831 30.6194C21.2284 29.9572 20.7155 29.4247 20.0559 29.3448C19.396 29.2651 18.7713 29.6605 18.5605 30.2907L16.8388 35.4557C16.7185 35.821 16.9153 36.2147 17.2796 36.3378C17.348 36.3695 17.4214 36.3887 17.4966 36.3935C17.7974 36.3945 18.0653 36.2028 18.1617 35.9178L19.8762 30.7527L20.1212 33.5939C20.1718 34.2002 20.6075 34.7042 21.2001 34.8416C21.7926 34.979 22.4057 34.7179 22.7177 34.1961L22.9768 33.7689L23.4108 34.8679C23.595 35.331 24.0115 35.6615 24.5047 35.7349C24.9978 35.8084 25.4926 35.614 25.8043 35.2247L27.4351 33.1603C27.6155 33.2074 27.8014 33.231 27.988 33.2303C28.7381 33.2361 29.4346 32.8411 29.8146 32.1942L30.5145 31.0254L33.1811 27.7851L39.1929 17.3497L39.8019 17.6997C39.9642 17.7926 40.0825 17.9461 40.1307 18.1268C40.1792 18.3063 40.1539 18.4976 40.0609 18.6586L37.2614 23.5089C37.1558 23.6681 37.1199 23.8636 37.1623 24.0502C37.2047 24.2365 37.3212 24.3974 37.4853 24.4955C37.6466 24.5891 37.8386 24.6144 38.0184 24.5659C38.1985 24.517 38.3516 24.3988 38.4442 24.2368L41.2437 19.3865C41.5229 18.9036 41.5984 18.3295 41.4535 17.7909C41.3086 17.253 40.9563 16.7948 40.4738 16.5169L39.8648 16.167L41.6145 13.1364C41.8055 12.8039 41.6931 12.3795 41.3626 12.1847L41.7126 11.5757C41.9993 11.0853 42.0752 10.4996 41.9224 9.95212ZM39.2838 10.1479C39.3765 9.98595 39.5302 9.86737 39.711 9.81918C39.8908 9.77475 40.0808 9.7997 40.2428 9.88924C40.4051 9.98185 40.5233 10.1356 40.5718 10.3161C40.6163 10.4958 40.5913 10.6858 40.5018 10.8478L40.1519 11.4568L38.9339 10.7569L39.2838 10.1479ZM29.7445 29.6889L28.3588 28.8838L29.3526 26.2243L31.5571 27.498L29.7445 29.6889ZM27.6449 31.7113C27.3493 31.5052 27.2584 31.1088 27.4351 30.7944L27.785 30.1858L29.0026 30.8857L28.6527 31.4875C28.5546 31.6576 28.3899 31.7786 28.1982 31.8213C28.0065 31.8637 27.8059 31.8241 27.6449 31.7113ZM32.3551 26.3504L29.9335 24.9507L35.5326 15.2501L37.9541 16.6499L32.3551 26.3504ZM38.654 15.4391L36.2325 14.0393L37.6322 11.6178L40.0538 13.0175L38.654 15.4391Z" fill="#009986"/>
<path d="M25.1957 5.59898C25.5822 5.59898 25.8956 5.28595 25.8956 4.8991C25.8956 4.51259 25.5822 4.19922 25.1957 4.19922H6.99879C6.61228 4.19922 6.2989 4.51259 6.2989 4.8991V7.69862C6.2989 8.08547 6.61228 8.3985 6.99879 8.3985H25.1957C25.5822 8.3985 25.8956 8.08547 25.8956 7.69862C25.8956 7.31212 25.5822 6.99874 25.1957 6.99874H7.69867V5.59898H25.1957Z" fill="#C4CFDA"/>
<path d="M9.09836 9.79855C8.71186 9.79855 8.39848 10.1119 8.39848 10.4984C8.39848 10.8853 8.71186 11.1983 9.09836 11.1983H23.096C23.4825 11.1983 23.7959 10.8853 23.7959 10.4984C23.7959 10.1119 23.4825 9.79855 23.096 9.79855H9.09836Z" fill="#C4CFDA"/>
<path d="M27.2954 14.6978H19.5967H11.898C11.5115 14.6978 11.1981 15.0112 11.1981 15.3977C11.1981 15.7845 11.5115 16.0976 11.898 16.0976H27.2954C27.6819 16.0976 27.9953 15.7845 27.9953 15.3977C27.9953 15.0112 27.6819 14.6978 27.2954 14.6978Z" fill="#C4CFDA"/>
<path d="M20.2968 19.5968C20.2968 19.2103 19.9834 18.897 19.5969 18.897H5.59929C5.21279 18.897 4.89941 19.2103 4.89941 19.5968C4.89941 19.9837 5.21279 20.2967 5.59929 20.2967H19.5969C19.9834 20.2967 20.2968 19.9837 20.2968 19.5968Z" fill="#C4CFDA"/>
<path d="M27.2958 18.897H22.3966C22.0101 18.897 21.6967 19.2103 21.6967 19.5968C21.6967 19.9837 22.0101 20.2967 22.3966 20.2967H27.2958C27.6823 20.2967 27.9957 19.9837 27.9957 19.5968C27.9957 19.2103 27.6823 18.897 27.2958 18.897Z" fill="#C4CFDA"/>
<path d="M12.5981 23.7958C12.9846 23.7958 13.298 23.4827 13.298 23.0959C13.298 22.7094 12.9846 22.396 12.5981 22.396H5.59929C5.21279 22.396 4.89941 22.7094 4.89941 23.0959C4.89941 23.4827 5.21279 23.7958 5.59929 23.7958H12.5981Z" fill="#C4CFDA"/>
<path d="M15.3978 23.7958H20.2969C20.6835 23.7958 20.9968 23.4827 20.9968 23.0959C20.9968 22.7094 20.6835 22.396 20.2969 22.396H15.3978C15.0113 22.396 14.6979 22.7094 14.6979 23.0959C14.6979 23.4827 15.0113 23.7958 15.3978 23.7958Z" fill="#C4CFDA"/>
<path d="M11.0077 31.1448L8.5304 33.6156L7.04657 32.1318C6.77353 31.8604 6.33268 31.8604 6.05963 32.1318C5.92704 32.2634 5.85254 32.4421 5.85254 32.6287C5.85254 32.8153 5.92704 32.9943 6.05963 33.1256L7.54346 34.6094C7.80592 34.8698 8.16064 35.0157 8.5304 35.0154C8.90222 35.0174 9.26002 34.8715 9.52418 34.6094L11.9946 32.1318C12.2325 31.8539 12.2164 31.4401 11.958 31.1817C11.6993 30.9231 11.2855 30.907 11.0077 31.1448Z" fill="#009986"/>
</svg>
