<svg width="22" height="22" viewBox="0 0 22 22" fill="none" xmlns="http://www.w3.org/2000/svg">
<path d="M18.0638 3.90862C16.1341 1.92213 13.4665 0.84375 10.7422 0.84375C4.953 0.84375 0.298944 5.55456 0.355701 11.287C0.355701 13.1032 0.866512 14.8627 1.71786 16.4519L0.242188 21.8438L5.74759 20.4248C7.28002 21.2762 8.98273 21.6735 10.6854 21.6735C16.4179 21.6735 21.0719 16.9627 21.0719 11.2302C21.0719 8.44916 19.9935 5.83835 18.0638 3.90862ZM10.7422 19.914C9.20975 19.914 7.67732 19.5167 6.37192 18.7221L6.03138 18.5519L2.73948 19.4032L3.59084 16.1681L3.36381 15.8275C0.866512 11.7978 2.0584 6.46267 6.14489 3.96537C10.2314 1.46807 15.5098 2.65997 18.0071 6.74645C20.5043 10.8329 19.3125 16.1113 15.226 18.6086C13.9206 19.46 12.3314 19.914 10.7422 19.914ZM15.7368 13.614L15.1125 13.3302C15.1125 13.3302 14.2043 12.9329 13.6368 12.6492C13.58 12.6492 13.5233 12.5924 13.4665 12.5924C13.2962 12.5924 13.1827 12.6492 13.0692 12.7059C13.0692 12.7059 13.0125 12.7627 12.2179 13.6708C12.1611 13.7843 12.0476 13.841 11.9341 13.841H11.8773C11.8206 13.841 11.7071 13.7843 11.6503 13.7275L11.3665 13.614C10.7422 13.3302 10.1746 12.9897 9.72057 12.5356C9.60705 12.4221 9.43678 12.3086 9.32327 12.1951C8.92597 11.7978 8.52867 11.3438 8.24489 10.8329L8.18813 10.7194C8.13138 10.6627 8.13138 10.6059 8.07462 10.4924C8.07462 10.3789 8.07462 10.2654 8.13138 10.2086C8.13138 10.2086 8.3584 9.92483 8.52867 9.75456C8.64219 9.64105 8.69894 9.47078 8.81246 9.35726C8.92597 9.18699 8.98273 8.95997 8.92597 8.7897C8.86921 8.50591 8.18813 6.97348 8.01786 6.63294C7.90435 6.46267 7.79084 6.40591 7.62057 6.34916H7.45029C7.33678 6.34916 7.16651 6.34916 6.99624 6.34916C6.88273 6.34916 6.76921 6.40591 6.6557 6.40591L6.59894 6.46267C6.48543 6.51943 6.37192 6.63294 6.2584 6.6897C6.14489 6.80321 6.08813 6.91672 5.97462 7.03024C5.57732 7.54105 5.3503 8.16537 5.3503 8.7897C5.3503 9.24375 5.46381 9.6978 5.63408 10.0951L5.69084 10.2654C6.20165 11.3438 6.88273 12.3086 7.79084 13.16L8.01786 13.387C8.18813 13.5573 8.3584 13.6708 8.47192 13.841C9.66381 14.8627 11.026 15.6005 12.5584 15.9978C12.7287 16.0546 12.9557 16.0546 13.126 16.1113C13.2962 16.1113 13.5233 16.1113 13.6935 16.1113C13.9773 16.1113 14.3179 15.9978 14.5449 15.8843C14.7152 15.7708 14.8287 15.7708 14.9422 15.6573L15.0557 15.5437C15.1692 15.4302 15.2827 15.3735 15.3962 15.26C15.5098 15.1465 15.6233 15.0329 15.68 14.9194C15.7935 14.6924 15.8503 14.4086 15.9071 14.1248C15.9071 14.0113 15.9071 13.841 15.9071 13.7275C15.9071 13.7275 15.8503 13.6708 15.7368 13.614Z" fill="#0DC143"/>
</svg>
